<svg width="11" height="11" viewBox="0 0 11 11" fill="none" xmlns="http://www.w3.org/2000/svg">
<path fill-rule="evenodd" clip-rule="evenodd" d="M0 0.458309C0 0.336758 0.0482855 0.220185 0.134235 0.134236C0.220185 0.0482861 0.336758 0 0.458309 0H5.95802C6.07957 0 6.19614 0.0482861 6.28209 0.134236C6.36804 0.220185 6.41633 0.336758 6.41633 0.458309C6.41633 0.57986 6.36804 0.696433 6.28209 0.782383C6.19614 0.868332 6.07957 0.916618 5.95802 0.916618H1.56467L10.8656 10.2166C10.9082 10.2592 10.942 10.3098 10.9651 10.3655C10.9881 10.4212 11 10.4809 11 10.5411C11 10.6014 10.9881 10.661 10.9651 10.7167C10.942 10.7724 10.9082 10.823 10.8656 10.8656C10.823 10.9082 10.7724 10.942 10.7167 10.9651C10.661 10.9881 10.6014 11 10.5411 11C10.4808 11 10.4212 10.9881 10.3655 10.9651C10.3098 10.942 10.2592 10.9082 10.2166 10.8656L0.916618 1.56467V5.95802C0.916618 6.07957 0.868333 6.19614 0.782383 6.28209C0.696433 6.36804 0.579861 6.41633 0.458309 6.41633C0.336758 6.41633 0.220185 6.36804 0.134235 6.28209C0.0482855 6.19614 0 6.07957 0 5.95802V0.458309Z" fill="white"/>
</svg>
