<svg xmlns="http://www.w3.org/2000/svg" xmlns:xlink="http://www.w3.org/1999/xlink" viewBox="0 0 586.68 454.8"><defs><radialGradient id="radial-gradient" cx="308.53" cy="266.55" r="290.1" gradientTransform="translate(-27.42 178.89) rotate(-12.67) scale(1 0.6)" gradientUnits="userSpaceOnUse"><stop offset="0" stop-color="#76b3e8"/><stop offset="0.2" stop-color="#7bb6e9"/><stop offset="0.42" stop-color="#88bdec"/><stop offset="0.65" stop-color="#9ecaf1"/><stop offset="0.88" stop-color="#bddcf8"/><stop offset="1" stop-color="#cfe7fc"/></radialGradient><radialGradient id="radial-gradient-2" cx="338.88" cy="-10.77" r="186.36" gradientUnits="userSpaceOnUse"><stop offset="0" stop-color="#cfe7fc"/><stop offset="1" stop-color="#5dabee"/></radialGradient><linearGradient id="linear-gradient" x1="282.97" y1="109.78" x2="290.97" y2="377.17" gradientUnits="userSpaceOnUse"><stop offset="0" stop-color="#80c2fb"/><stop offset="1" stop-color="#cfe7fc"/></linearGradient><linearGradient id="linear-gradient-2" x1="284.51" y1="186.99" x2="286.49" y2="-11.17" gradientUnits="userSpaceOnUse"><stop offset="0" stop-color="#a9d4fc"/><stop offset="0.05" stop-color="#a3d1fb"/><stop offset="0.3" stop-color="#84c1f7"/><stop offset="0.55" stop-color="#6eb5f4"/><stop offset="0.79" stop-color="#61aef2"/><stop offset="1" stop-color="#5cacf1"/></linearGradient><radialGradient id="radial-gradient-3" cx="1357.09" cy="-1953.41" r="2.28" gradientTransform="translate(-1314.27 1484.3) scale(1.22 0.66)" gradientUnits="userSpaceOnUse"><stop offset="0.19" stop-color="#afb6e5"/><stop offset="1" stop-color="#fff"/></radialGradient><linearGradient id="linear-gradient-3" x1="6158.36" y1="192.41" x2="6161.48" y2="195.76" gradientTransform="matrix(-1, 0, 0, 1, 6504.72, 0)" gradientUnits="userSpaceOnUse"><stop offset="0" stop-color="#afb6e5"/><stop offset="0.14" stop-color="#b6bce8"/><stop offset="0.35" stop-color="#c8cdf1"/><stop offset="0.58" stop-color="#e5e9ff"/><stop offset="0.95" stop-color="#f5f4fc"/><stop offset="1" stop-color="#f7f6fb"/></linearGradient><radialGradient id="Radial_Gradient_1" cx="343.42" cy="195.88" r="1.45" gradientUnits="userSpaceOnUse"><stop offset="0" stop-color="#fff"/><stop offset="1"/></radialGradient><linearGradient id="linear-gradient-4" x1="398.11" y1="176.49" x2="399.65" y2="176.49" gradientTransform="translate(-54.82)" gradientUnits="userSpaceOnUse"><stop offset="0" stop-color="#b9bfea"/><stop offset="0.25" stop-color="#e5e9ff"/><stop offset="0.7" stop-color="#afb6e5"/><stop offset="0.95" stop-color="#bac0ea"/><stop offset="1" stop-color="#bdc3ec"/></linearGradient><radialGradient id="radial-gradient-4" cx="346.14" cy="163.98" r="7.56" gradientUnits="userSpaceOnUse"><stop offset="0" stop-color="#bb6df3"/><stop offset="0.11" stop-color="#9155bd"/><stop offset="0.23" stop-color="#6b3e8b"/><stop offset="0.36" stop-color="#4a2b60"/><stop offset="0.48" stop-color="#2f1c3e"/><stop offset="0.61" stop-color="#1b0f23"/><stop offset="0.73" stop-color="#0c070f"/><stop offset="0.86" stop-color="#030204"/><stop offset="1"/></radialGradient><linearGradient id="Безымянный_градиент_2" x1="153.87" y1="141.6" x2="156.67" y2="141.6" gradientUnits="userSpaceOnUse"><stop offset="0.01" stop-color="#031f38"/><stop offset="0.04" stop-color="#031c39"/><stop offset="0.23" stop-color="#03123d"/><stop offset="1" stop-color="#6e6f74"/></linearGradient><linearGradient id="Безымянный_градиент_2-2" x1="153.97" y1="105.9" x2="156.77" y2="105.9" xlink:href="#Безымянный_градиент_2"/><radialGradient id="radial-gradient-5" cx="154.83" cy="116.84" r="28.42" gradientUnits="userSpaceOnUse"><stop offset="0" stop-color="#6ba6ff"/><stop offset="0.11" stop-color="#609bf1"/><stop offset="0.51" stop-color="#3d76c1"/><stop offset="0.82" stop-color="#275fa4"/><stop offset="0.99" stop-color="#1f5699"/></radialGradient><radialGradient id="radial-gradient-6" cx="155.2" cy="101.99" r="22.55" xlink:href="#radial-gradient-5"/><linearGradient id="Безымянный_градиент_4" x1="144.98" y1="94.3" x2="166.51" y2="94.3" gradientUnits="userSpaceOnUse"><stop offset="0" stop-color="#6ba6ff"/><stop offset="0.1" stop-color="#69a6f3"/><stop offset="0.36" stop-color="#63a5d7"/><stop offset="0.53" stop-color="#548fc4"/><stop offset="0.75" stop-color="#477bb3"/><stop offset="0.89" stop-color="#4274ad"/></linearGradient><radialGradient id="radial-gradient-7" cx="156.11" cy="79.27" r="28.62" xlink:href="#radial-gradient-5"/><linearGradient id="Безымянный_градиент_2-3" x1="271.26" y1="78.41" x2="274.06" y2="78.41" xlink:href="#Безымянный_градиент_2"/><linearGradient id="Безымянный_градиент_2-4" x1="271.36" y1="42.71" x2="274.17" y2="42.71" xlink:href="#Безымянный_градиент_2"/><radialGradient id="radial-gradient-8" cx="272.22" cy="53.65" r="28.42" xlink:href="#radial-gradient-5"/><radialGradient id="radial-gradient-9" cx="272.59" cy="38.8" r="22.55" xlink:href="#radial-gradient-5"/><linearGradient id="Безымянный_градиент_4-2" x1="262.37" y1="31.11" x2="283.9" y2="31.11" xlink:href="#Безымянный_градиент_4"/><radialGradient id="radial-gradient-10" cx="273.5" cy="16.08" r="28.62" xlink:href="#radial-gradient-5"/><linearGradient id="Безымянный_градиент_2-5" x1="302.09" y1="84.91" x2="304.25" y2="84.91" xlink:href="#Безымянный_градиент_2"/><linearGradient id="Безымянный_градиент_2-6" x1="302.17" y1="57.33" x2="304.33" y2="57.33" xlink:href="#Безымянный_градиент_2"/><radialGradient id="radial-gradient-11" cx="302.83" cy="65.78" r="21.95" xlink:href="#radial-gradient-5"/><radialGradient id="radial-gradient-12" cx="303.11" cy="54.32" r="17.42" xlink:href="#radial-gradient-5"/><linearGradient id="Безымянный_градиент_4-3" x1="295.22" y1="48.37" x2="311.85" y2="48.37" xlink:href="#Безымянный_градиент_4"/><radialGradient id="radial-gradient-13" cx="303.82" cy="36.76" r="22.11" xlink:href="#radial-gradient-5"/><linearGradient id="Безымянный_градиент_2-7" x1="173.55" y1="149.87" x2="177.56" y2="149.87" xlink:href="#Безымянный_градиент_2"/><linearGradient id="Безымянный_градиент_2-8" x1="173.69" y1="98.85" x2="177.7" y2="98.85" xlink:href="#Безымянный_градиент_2"/><radialGradient id="radial-gradient-14" cx="175" cy="102.06" r="41.86" gradientUnits="userSpaceOnUse"><stop offset="0.01" stop-color="#63a9e5"/><stop offset="0.99" stop-color="#3d7bb0"/></radialGradient><radialGradient id="radial-gradient-15" cx="179" cy="78.47" r="41.69" xlink:href="#radial-gradient-14"/><linearGradient id="Безымянный_градиент_4-4" x1="160.85" y1="82.27" x2="191.62" y2="82.27" xlink:href="#Безымянный_градиент_4"/><radialGradient id="radial-gradient-16" cx="176.33" cy="62.11" r="24.59" xlink:href="#radial-gradient-14"/><linearGradient id="Безымянный_градиент_2-9" x1="398.05" y1="197" x2="400.64" y2="197" xlink:href="#Безымянный_градиент_2"/><linearGradient id="Безымянный_градиент_2-10" x1="398.14" y1="164.02" x2="400.73" y2="164.02" xlink:href="#Безымянный_градиент_2"/><radialGradient id="radial-gradient-17" cx="398.98" cy="166.09" r="27.06" xlink:href="#radial-gradient-14"/><radialGradient id="radial-gradient-18" cx="401.57" cy="150.84" r="26.96" xlink:href="#radial-gradient-14"/><linearGradient id="Безымянный_градиент_4-5" x1="389.83" y1="153.3" x2="409.73" y2="153.3" xlink:href="#Безымянный_градиент_4"/><radialGradient id="radial-gradient-19" cx="399.85" cy="140.26" r="15.9" xlink:href="#radial-gradient-14"/></defs><g style="isolation:isolate"><g id="Layer_2" data-name="Layer 2"><g id="Layer_6" data-name="Layer 6"><path d="M259.69,454.71s165.58,7,271.27-100.41C688.46,194.18,458.3,222.39,494,146,519.5,91.45,441.63-9.88,307.56,22.44S-103.61,249.94,40.39,378.08C126.17,454.42,259.69,454.71,259.69,454.71Z" style="fill:url(#radial-gradient)"/><path d="M349.23,13.94s46.32,13.23,56.63,46.75c11.23,36.53,20.3,51.48,37.75,59.4,17.2,7.81,63.31,22.95,74.23,141.62a13.8,13.8,0,0,1-3.27,10.16c-34,40.1-197.23,63.59-197.23,63.59L415,231l56.21-47.5-48.88-42.83-75.3,29.11L278.19,207.9l-31,.46L229.49,174.7,322,123.41l41.36-39.76L351,51Z" style="fill:url(#radial-gradient-2)"/><path d="M85.41,151.91S36.87,245.09,67.25,303.66s122,111.85,246.17,90.28c120.48-20.94,195-79.59,204.11-123.29a16.19,16.19,0,0,0-.09-7.13c-11.82-49.39-27.79-83.6-27.79-83.6l-79,78.55-173.24,40-83.66-47.25-46-91.77Z" style="fill:url(#linear-gradient)"/><polygon points="137.68 130.24 265.79 36.31 322.62 51.99 345.32 63.33 331.07 102.56 218.26 181.56 229.49 204.36 255.78 211.26 328.25 186.55 406.52 148.44 452.1 181.56 431.19 221.96 402.46 244.43 293.34 291.36 235.44 286.37 183.78 268.2 137.68 234.85 121.3 196.14 117.2 164.03 137.68 130.24" style="fill:url(#linear-gradient-2)"/><path d="M476.33,156.55l2.12-2.12h0l-2.12,2.12,2.19-2.05A99.95,99.95,0,0,0,351.3,138.74l-82.13,53a12,12,0,0,1-12.18.49l-1.55-.83a2.81,2.81,0,0,1-1.13-1.08,2.93,2.93,0,0,1-.38-1.45,2.87,2.87,0,0,1,.32-1.33,2.83,2.83,0,0,1,1-1.07L366.51,113.8A52.14,52.14,0,0,0,384.3,94.29a52.86,52.86,0,0,0,6-24.53,52.21,52.21,0,0,0-16.79-38.45l-2,2.2h3V32.2l-1-.89A117.16,117.16,0,0,0,231,18.25L129.37,82.77a101.5,101.5,0,0,0-32,139l.18.3.25.25,2.12-2.12-2.55,1.58a206.07,206.07,0,0,0,76.71,73,207.79,207.79,0,0,0,99.69,25.5,206.17,206.17,0,0,0,100.34-26.07L464.42,244a57,57,0,0,0,22-21.7A57.94,57.94,0,0,0,494,193.65a57.11,57.11,0,0,0-15.48-39.15l0,0,0,0-2.12,2.12-2.2,2A51,51,0,0,1,488,193.65a51.81,51.81,0,0,1-6.78,25.65,51,51,0,0,1-19.71,19.43l-90.34,50.18a200.2,200.2,0,0,1-97.43,25.31,201.88,201.88,0,0,1-96.81-24.76,200.24,200.24,0,0,1-74.49-70.85l-.18-.3-.25-.25-2.12,2.12,2.55-1.57a95.09,95.09,0,0,1-14.2-50,96.12,96.12,0,0,1,11.43-45.43,95.15,95.15,0,0,1,32.92-35.33L234.23,23.31a111.16,111.16,0,0,1,135.22,12.4l2-2.2h-3v1.31l1,.89a46.18,46.18,0,0,1,14.87,34.05A46.86,46.86,0,0,1,379,91.5a46.28,46.28,0,0,1-15.76,17.28L252,181.45a8.82,8.82,0,0,0-3,3.31,8.86,8.86,0,0,0,3.67,11.93l1.56.83a18,18,0,0,0,18.26-.74l82.14-53A93.91,93.91,0,0,1,474.13,158.6l0,0,0,0,2.12-2.12-2.2,2ZM431,211l-1.55-2.57-63.92,38.5-.05,0a167.74,167.74,0,0,1-92.15,27.89c-41.86,0-82.87-16.16-112.82-48.73a84,84,0,0,1-16.06-25.82,81.07,81.07,0,0,1-5.83-29.77,64.78,64.78,0,0,1,6.88-29.7,61.46,61.46,0,0,1,22.19-24l.05,0,89.92-62.35a51.13,51.13,0,0,1,61.19,2.17L324.21,61a19.64,19.64,0,0,1-1.66,31.87L214.94,162.27a29.85,29.85,0,0,0-10.31,11,28.66,28.66,0,0,0-3.37,13.58c0,10.57,5.55,21.26,15.64,28.09,13.61,9.21,29,14.31,44.41,14.31a67.29,67.29,0,0,0,35.23-9.89l46.33-28.15,16.53-10,6.45-3.92A91.9,91.9,0,0,1,382.79,169,60.61,60.61,0,0,1,403,165.38c.53,0,1.07,0,1.61,0a36.23,36.23,0,0,1,17.49,5.09,33.49,33.49,0,0,1,12.44,13,23.49,23.49,0,0,1,3.1,10.86,14.61,14.61,0,0,1-1.79,7.09,21.8,21.8,0,0,1-6.58,7.12L431,211l-1.55-2.57L431,211l1.76,2.42a27.79,27.79,0,0,0,8.33-9.12,20.63,20.63,0,0,0,2.51-9.94,29.44,29.44,0,0,0-3.8-13.67,39.53,39.53,0,0,0-14.66-15.35,42.19,42.19,0,0,0-20.39-5.94c-.6,0-1.2,0-1.79,0a66.36,66.36,0,0,0-22.18,4,97.41,97.41,0,0,0-18.05,8.73l-69.31,42.12a61.27,61.27,0,0,1-32.12,9c-14.06,0-28.32-4.66-41.05-13.28-8.52-5.77-13-14.66-13-23.12a22.81,22.81,0,0,1,2.66-10.75,23.9,23.9,0,0,1,8.27-8.78L325.8,97.88a25.43,25.43,0,0,0,8.8-9.57,25.61,25.61,0,0,0-6.63-32L322.62,52a57.12,57.12,0,0,0-68.37-2.43l-89.87,62.31,1.71,2.47-1.61-2.53a67.39,67.39,0,0,0-24.31,26.28,70.72,70.72,0,0,0-7.54,32.44,87.27,87.27,0,0,0,6.25,32,89.85,89.85,0,0,0,17.23,27.67c31.14,33.88,73.85,50.67,117.23,50.67A173.74,173.74,0,0,0,368.79,252l-1.65-2.5,1.54,2.57,64-38.54.1-.08Z" style="fill:#1553a0"/><path d="M475,157.14h0a96.94,96.94,0,0,0-123.4-15.29l-82.13,53a15,15,0,0,1-15.22.62l-1.55-.84a5.86,5.86,0,0,1-.44-10.08l111.28-72.67a49.54,49.54,0,0,0,6.62-77.78h0A114.15,114.15,0,0,0,231.27,21.37L129.64,85.89a98.56,98.56,0,0,0-31.1,134.88h0a204,204,0,0,0,272.74,71.35l90.34-50.18A54.47,54.47,0,0,0,475,157.14Zm-45.32,54.45-63.87,38.46c-66.3,43.74-155.07,37.16-208.82-21.31-28.7-31.23-34.38-87,7.78-113.81l89.86-62.32a54.14,54.14,0,0,1,64.78,2.31l5.36,4.31A22.67,22.67,0,0,1,322.83,96L215.22,165.38c-17.81,11.49-15.54,35.77,2,47.65,23.52,15.92,52.32,19,76.4,4.35L363,175.26c10.6-6.44,24.54-12.75,40.37-12.27,13.55.41,26.13,7.73,32.5,19.69C440.5,191.49,442.07,202.55,429.66,211.59Z" style="fill:#5daaf0"/><path d="M137.85,252.89a115.82,115.82,0,0,1-28.48-32.71C83.22,174.66,91.72,117.76,138.8,88c32.65-20.66,66.38-42.24,92.7-59.61a107.13,107.13,0,0,1,107.12-6.28l9.47,5.11c39,21.68,37,60.26,6.94,79.9l-106.79,69c-7.59,4.39-8.4,15.23-2.42,20.2h0a26.48,26.48,0,0,0,30.45,2.39l89-52.93A79.6,79.6,0,0,1,455,151.54s41.55,36.69,14.41,70.73c-4.43,5.55-10.86,10-17.08,13.42L363,284.51a186.53,186.53,0,0,1-206.81-17Z" style="fill:none;stroke:#fff;stroke-miterlimit:10"/><path d="M148,246.63a108.12,108.12,0,0,1-26.57-30.52C97,173.63,104.92,120.54,148.84,92.75c30.47-19.28,61.95-39.41,86.5-55.62C265.17,17.43,300,15,331.91,31l7.93,4.51a49.53,49.53,0,0,1,11.9,8.66C373.35,65,370,89.33,340.63,107.78L239.55,170.6c-7.87,5.28-14.65,12.59-10.7,22.87,2.27,5.91,11.4,12.91,23.69,16.93a32.93,32.93,0,0,0,25.65-2.5L364,156.8c26.33-15.65,53.14-20.75,77.24-1.87l4,3.12c21.71,17,29,53.39,1.56,69l-92.06,51.26c-58.27,32.14-134.58,25.86-189.66-18Z" style="fill:none;stroke:#fff;stroke-miterlimit:10"/><path d="M157.94,240.59a98.76,98.76,0,0,1-24.23-27.91c-22.24-38.84-15-87.4,25-112.81,27.78-17.63,56.48-36,78.86-50.87,27.2-18,58.44-20.33,87.58-5.63h0c31.67,17.71,28.36,45.64-1.59,64.54L231.39,164c-7.18,4.83-22.14,12.58-17.62,28.62,2.42,8.59,17.12,18.74,28,23.34,16.07,6.83,31.92,4.41,41.39-2l77.06-46.9c12-7.16,23.62-12.07,34.58-14a48.8,48.8,0,0,1,38.63,10l2.28,1.79A34.43,34.43,0,0,1,431.19,222l-81.68,45.62a158.32,158.32,0,0,1-175.94-14.5Z" style="fill:none;stroke:#fff;stroke-miterlimit:10"/><polyline points="312.28 271.11 312.28 248.87 310.28 248.87 310.28 271.11" style="fill:#0b3d75"/><polyline points="369.53 298.63 369.53 276.39 367.53 276.39 367.53 298.63" style="fill:#0b3d75"/><polygon points="312.38 259.99 367.53 287.51 367.53 276.39 312.28 248.87 312.38 259.99" style="fill:#88f9ff"/><polyline points="367.35 249.02 407.09 272.2 408.84 271.39 369.05 248.41" style="fill:#fff"/><path d="M347.28,195.25c0,.83-1.25,1.5-2.79,1.5s-2.78-.67-2.78-1.5,1.25-1.51,2.78-1.51S347.28,194.42,347.28,195.25Z" style="mix-blend-mode:multiply;fill:url(#radial-gradient-3)"/><path d="M346,194.88h-3.94v.54c0,.64.88,1.15,2,1.15s2-.51,2-1.15Z" style="fill:#1553a0"/><path d="M342.08,194.89c0,.64.88,1.15,2,1.15s2-.51,2-1.15-.88-1.15-2-1.15S342.08,194.26,342.08,194.89Z" style="fill:url(#linear-gradient-3)"/><path d="M344.05,196c-1.08,0-1.95-.5-2-1.12v0c0,.63.88,1.15,2,1.15s2-.52,2-1.15v0C346,195.53,345.13,196,344.05,196Z" style="mix-blend-mode:color-dodge;fill:url(#Radial_Gradient_1)"/><path d="M344.84,157.69h-1.55v37.15c0,.25.34.45.77.45s.78-.2.78-.45Z" style="fill:url(#linear-gradient-4)"/><path d="M344.84,157.69h-1.55v37.15c0,.25.34.45.77.45s.78-.2.78-.45Z" style="fill:#0b3d75"/><path d="M345.66,157.66a1.61,1.61,0,1,1-1.61-1.6A1.61,1.61,0,0,1,345.66,157.66Z" style="fill:#1553a0"/><path d="M344.51,168c1.21-1.56,3.39-4.25,6.91-.75,3.05,3,7.61-2.34,8-3,0,0-5.67.53-7.86-3.26-2.49-4.3-5.82-2.32-7-.76Z" style="fill:#88f9ff"/><path d="M355.38,188.58c1.43-.1,3.95-.25,4,1.85,0,.9,1.29,1.3,2.65,1.46a16,16,0,0,0,3,0,7.78,7.78,0,0,1-1.5-1c-.7-.6-1.3-1.44-.9-2.33.93-2-1.82-2.43-3.25-2.33Z" style="fill:#afb6e5;opacity:0"/><path d="M359.4,186.28c1-.07,2.71.13,3.23,1a1.18,1.18,0,0,1,.1,1,1.74,1.74,0,0,1-.13.36,1.71,1.71,0,0,0,.39,1.83,3.48,3.48,0,0,0,.47.47,8.56,8.56,0,0,0,1.46,1,15.28,15.28,0,0,1-2.94,0c-1.31-.15-2.53-.53-2.57-1.4a2.13,2.13,0,0,0-.23-.86,2,2,0,0,0-1.41-.94,8.89,8.89,0,0,0-2.28-.1l3.56-2.05Z" style="fill:#afb6e5;opacity:0.004761904850602"/><path d="M359.41,186.3c1-.07,2.67.13,3.17.95a1.15,1.15,0,0,1,.1.95l-.13.36a1.66,1.66,0,0,0,.37,1.79,4.06,4.06,0,0,0,.45.48,7.86,7.86,0,0,0,1.43,1,13.39,13.39,0,0,1-2.85,0c-1.27-.15-2.42-.52-2.5-1.34a2.14,2.14,0,0,0-.24-.84,2,2,0,0,0-1.36-1,8.68,8.68,0,0,0-2.25-.14l3.46-2Z" style="fill:#afb6e5;opacity:0.00952380960317"/><path d="M359.41,186.32c1-.06,2.63.14,3.13.94a1.08,1.08,0,0,1,.08.92,2,2,0,0,1-.13.36,1.7,1.7,0,0,0,.35,1.77c.14.16.28.32.44.47a8.62,8.62,0,0,0,1.39,1,13.42,13.42,0,0,1-2.75,0c-1.22-.14-2.32-.5-2.42-1.28a2.47,2.47,0,0,0-.26-.82,2,2,0,0,0-1.31-1,8,8,0,0,0-2.22-.19l3.36-1.94Z" style="fill:#afb6e5;opacity:0.014285714355739"/><path d="M359.42,186.34c1-.06,2.59.15,3.07.92a1.12,1.12,0,0,1,.08.91c0,.11-.08.23-.13.35a1.66,1.66,0,0,0,.33,1.74,3.8,3.8,0,0,0,.42.47,9.21,9.21,0,0,0,1.35,1,13.22,13.22,0,0,1-2.65,0c-1.17-.14-2.21-.48-2.34-1.23a2.79,2.79,0,0,0-.28-.79,2,2,0,0,0-1.26-1,8.13,8.13,0,0,0-2.19-.24l3.27-1.88S359.4,186.34,359.42,186.34Z" style="fill:#afb6e5;opacity:0.019047619108307"/><path d="M359.42,186.36c1-.06,2.56.15,3,.9a1.05,1.05,0,0,1,.07.9,2.79,2.79,0,0,1-.12.34,1.67,1.67,0,0,0,.31,1.72,4.4,4.4,0,0,0,.4.46,9.32,9.32,0,0,0,1.32,1,14,14,0,0,1-2.56,0c-1.13-.14-2.11-.47-2.26-1.17a3.64,3.64,0,0,0-.3-.78,2,2,0,0,0-1.21-1,7.12,7.12,0,0,0-2.16-.28l3.17-1.83S359.4,186.36,359.42,186.36Z" style="fill:#afb6e5;opacity:0.023809523860875"/><path d="M359.42,186.38c1,0,2.53.16,3,.88a1,1,0,0,1,.07.88c0,.11-.08.23-.13.34a1.68,1.68,0,0,0,.3,1.69,2.44,2.44,0,0,0,.39.46,9.39,9.39,0,0,0,1.27,1,13.24,13.24,0,0,1-2.46-.05c-1.08-.13-2-.45-2.18-1.11a4.55,4.55,0,0,0-.32-.75,2,2,0,0,0-1.16-1.07,7.14,7.14,0,0,0-2.13-.33l3.07-1.77Z" style="fill:#afb6e5;opacity:0.028571428613443"/><path d="M359.43,186.4c1-.05,2.48.17,2.92.87a1,1,0,0,1,0,.86,2.19,2.19,0,0,1-.12.33,1.68,1.68,0,0,0,.27,1.67,3.23,3.23,0,0,0,.38.45,9.92,9.92,0,0,0,1.23,1,13.09,13.09,0,0,1-2.36-.05c-1-.13-1.9-.44-2.1-1a5.74,5.74,0,0,0-.34-.73,2,2,0,0,0-1.11-1.1,6.52,6.52,0,0,0-2.1-.38l3-1.71Z" style="fill:#afb6e5;opacity:0.033333333366011"/><path d="M359.43,186.42c1,0,2.45.17,2.87.85a1,1,0,0,1,.05.85l-.13.33a1.7,1.7,0,0,0,.26,1.64,5.07,5.07,0,0,0,.36.45,11.45,11.45,0,0,0,1.19,1,13.25,13.25,0,0,1-2.26-.06c-1-.12-1.91-.39-2-1a4.31,4.31,0,0,1-.36-.71,2,2,0,0,0-1.06-1.12,6.2,6.2,0,0,0-2.07-.42l2.87-1.66S359.41,186.42,359.43,186.42Z" style="fill:#afb6e5;opacity:0.03809523811858"/><path d="M359.44,186.44c1,0,2.41.18,2.81.83a.9.9,0,0,1,0,.83c0,.11-.07.22-.12.33a1.66,1.66,0,0,0,.24,1.61,3,3,0,0,0,.34.45,10.66,10.66,0,0,0,1.16,1,13.25,13.25,0,0,1-2.17-.06c-.95-.12-1.82-.38-1.94-.93a3.54,3.54,0,0,1-.38-.69,2.07,2.07,0,0,0-1-1.15,5.66,5.66,0,0,0-2-.47l2.78-1.6S359.41,186.44,359.44,186.44Z" style="fill:#afb6e5;opacity:0.042857142871148"/><path d="M359.44,186.46c1,0,2.38.19,2.77.82a.86.86,0,0,1,0,.81c0,.1-.07.21-.11.32a1.72,1.72,0,0,0,.21,1.59,4.59,4.59,0,0,0,.33.44,11.23,11.23,0,0,0,1.12,1,14.41,14.41,0,0,1-2.06-.06c-.91-.12-1.74-.36-1.87-.88a2.38,2.38,0,0,1-.4-.67,2,2,0,0,0-1-1.17,5.44,5.44,0,0,0-2-.52l2.68-1.54S359.41,186.46,359.44,186.46Z" style="fill:#afb6e5;opacity:0.047619047623716"/><path d="M359.44,186.48c1,0,2.34.19,2.72.8a.86.86,0,0,1,0,.8c0,.1-.07.2-.12.31a1.72,1.72,0,0,0,.2,1.56,3.47,3.47,0,0,0,.31.44,11.45,11.45,0,0,0,1.08,1,13.33,13.33,0,0,1-2-.07c-.87-.11-1.65-.34-1.79-.82a1.92,1.92,0,0,1-.42-.64,2.11,2.11,0,0,0-.92-1.2,4.8,4.8,0,0,0-2-.56l2.58-1.49S359.41,186.48,359.44,186.48Z" style="fill:#afb6e5;opacity:0.052380952376284"/><path d="M359.45,186.5c1,0,2.3.2,2.66.78a.8.8,0,0,1,0,.78c0,.1-.07.21-.11.31a1.71,1.71,0,0,0,.18,1.54,2.08,2.08,0,0,0,.3.43,10.49,10.49,0,0,0,1,1,13.44,13.44,0,0,1-1.87-.07c-.82-.11-1.56-.32-1.71-.76a1.61,1.61,0,0,1-.44-.63,2.12,2.12,0,0,0-.87-1.22,4.67,4.67,0,0,0-1.94-.61l2.48-1.43S359.41,186.5,359.45,186.5Z" style="fill:#afb6e5;opacity:0.057142857128852"/><path d="M359.45,186.52c1,0,2.27.2,2.62.76a.81.81,0,0,1,0,.77l-.11.3a1.73,1.73,0,0,0,.15,1.51,3.23,3.23,0,0,0,.29.43,10.21,10.21,0,0,0,1,1,13.89,13.89,0,0,1-1.77-.08c-.77-.1-1.47-.3-1.63-.7a1.31,1.31,0,0,1-.46-.6,2.18,2.18,0,0,0-.82-1.25,4.4,4.4,0,0,0-1.91-.66l2.38-1.37S359.41,186.52,359.45,186.52Z" style="fill:#afb6e5;opacity:0.061904761881421"/><path d="M359.46,186.54c1,0,2.23.21,2.56.75a.77.77,0,0,1,0,.75c0,.09-.07.19-.11.29a1.76,1.76,0,0,0,.14,1.49,3,3,0,0,0,.27.42,9.75,9.75,0,0,0,1,1,14,14,0,0,1-1.67-.08c-.73-.1-1.38-.28-1.55-.64a1.27,1.27,0,0,1-.48-.58,2.2,2.2,0,0,0-.77-1.28,4,4,0,0,0-1.88-.7l2.29-1.32S359.41,186.54,359.46,186.54Z" style="fill:#afb6e5;opacity:0.066666666633989"/><path d="M359.46,186.56c1,0,2.19.22,2.51.73.07.11.16.31,0,.73l-.11.3a1.81,1.81,0,0,0,.12,1.46,3.09,3.09,0,0,0,.25.42,8.74,8.74,0,0,0,.93,1,14.26,14.26,0,0,1-1.58-.08c-.68-.1-1.29-.27-1.47-.59s-.47-.4-.5-.56a2.23,2.23,0,0,0-.72-1.3,3.75,3.75,0,0,0-1.85-.75l2.19-1.26S359.41,186.56,359.46,186.56Z" style="fill:#afb6e5;opacity:0.071428571386557"/><path d="M359.46,186.58c1,0,2.16.22,2.46.71.07.1.16.3,0,.72,0,.1-.07.19-.11.29a1.86,1.86,0,0,0,.1,1.43,2.86,2.86,0,0,0,.24.42,8,8,0,0,0,.89,1c-.35,0-.94,0-1.48-.09a2.21,2.21,0,0,1-1.39-.52c-.32-.2-.49-.39-.52-.54a2.36,2.36,0,0,0-.67-1.33,3.66,3.66,0,0,0-1.82-.8l2.09-1.2S359.41,186.58,359.46,186.58Z" style="fill:#afb6e5;opacity:0.076190476139125"/><path d="M359.47,186.59c1,0,2.12.24,2.41.7.06.1.14.28,0,.71a2.33,2.33,0,0,0-.11.28,1.9,1.9,0,0,0,.08,1.41,3.23,3.23,0,0,0,.22.41,7.93,7.93,0,0,0,.85,1c-.35,0-.89,0-1.38-.09a2.31,2.31,0,0,1-1.31-.47c-.34-.19-.52-.37-.54-.52a2.33,2.33,0,0,0-.62-1.35,3.3,3.3,0,0,0-1.79-.84l2-1.15C359.29,186.64,359.41,186.59,359.47,186.59Z" style="fill:#afb6e5;opacity:0.080952380891693"/><path d="M359.47,186.61a3.15,3.15,0,0,1,2.36.69c.05.08.14.26,0,.68,0,.1-.07.19-.1.28a1.87,1.87,0,0,0,.06,1.38,2.27,2.27,0,0,0,.21.41,6.27,6.27,0,0,0,.81,1c-.36,0-.85,0-1.29-.1a2.93,2.93,0,0,1-1.23-.41c-.33-.23-.54-.35-.56-.49a2.44,2.44,0,0,0-.57-1.38,3.18,3.18,0,0,0-1.76-.89l1.89-1.09C359.31,186.65,359.42,186.61,359.47,186.61Z" style="fill:#afb6e5;opacity:0.085714285644261"/><path d="M359.48,186.63a3.13,3.13,0,0,1,2.3.67c.05.07.14.24,0,.67,0,.09-.08.18-.11.27a1.92,1.92,0,0,0,.05,1.36,2.09,2.09,0,0,0,.19.4,5,5,0,0,0,.77,1c-.36,0-.8-.05-1.19-.1a3.41,3.41,0,0,1-1.15-.35c-.36-.21-.57-.34-.58-.48a2.44,2.44,0,0,0-.52-1.4,3,3,0,0,0-1.73-.94l1.8-1Z" style="fill:#afb6e5;opacity:0.09047619039683"/><path d="M359.48,186.65a3.09,3.09,0,0,1,2.26.65c0,.06.13.23-.06.66,0,.09-.07.18-.1.26a2.08,2.08,0,0,0,0,1.33,2.87,2.87,0,0,0,.18.4,4.35,4.35,0,0,0,.73,1c-.37,0-.75,0-1.09-.1a4,4,0,0,1-1.07-.3c-.39-.18-.59-.32-.6-.45a2.52,2.52,0,0,0-.47-1.43,2.85,2.85,0,0,0-1.7-1l1.7-1Z" style="fill:#afb6e5;opacity:0.095238095149398"/><path d="M362.39,190.86a7.81,7.81,0,0,1-2-.34c-.42-.15-.62-.31-.62-.43a2.55,2.55,0,0,0-.42-1.46,2.67,2.67,0,0,0-1.67-1l1.6-.92h.19a3,3,0,0,1,2.21.64c0,.05.13.2-.06.63a2.11,2.11,0,0,0-.1,1.57A3.52,3.52,0,0,0,362.39,190.86Z" style="fill:#afb6e5;opacity:0.1"/><path d="M344.51,163c3.67-2.8,8.86,3.94,14.89,1.21,0,0-5.67.53-7.86-3.26-2.49-4.3-5.82-2.32-7-.76Z" style="mix-blend-mode:screen;opacity:0.5;fill:url(#radial-gradient-4)"/><g style="opacity:0.30000000000000004"><path d="M344.43,195.27l-.55-.33c-.26-.15-.22-.41.07-.58l15.87-9.54a.87.87,0,0,1,.8,0l.44.27c.2.12.18.33-.06.46l-15.57,9.71A1.11,1.11,0,0,1,344.43,195.27Z" style="fill:#afb6e5;opacity:0.05"/><path d="M344.43,195.26l-.53-.33c-.25-.14-.22-.4.07-.57l15.12-9.09a1,1,0,0,1,.83-.05l.42.27c.21.11.15.34-.09.47l-14.83,9.26A1.12,1.12,0,0,1,344.43,195.26Z" style="fill:#afb6e5;opacity:0.095238096080721"/><path d="M344.43,195.24l-.51-.31c-.25-.14-.22-.4.07-.56l14.37-8.64a1,1,0,0,1,.86-.07l.41.25c.2.12.11.36-.12.5L345.4,195.2A1,1,0,0,1,344.43,195.24Z" style="fill:#afb6e5;opacity:0.140476191230119"/><path d="M344.43,195.23l-.49-.3c-.24-.15-.21-.4.07-.56l13.62-8.19a1.18,1.18,0,0,1,.89-.09l.39.25c.2.12.08.38-.15.51l-13.37,8.34A1.09,1.09,0,0,1,344.43,195.23Z" style="fill:#afb6e5;opacity:0.185714286379516"/><path d="M344.43,195.22l-.47-.3c-.24-.14-.21-.38.07-.54l12.88-7.74a1.15,1.15,0,0,1,.91-.11l.38.24c.2.11.05.39-.18.52l-12.64,7.89A1.1,1.1,0,0,1,344.43,195.22Z" style="fill:#afb6e5;opacity:0.230952381528914"/><path d="M344.43,195.2l-.45-.28c-.24-.14-.21-.38.07-.54l12.13-7.29a1.25,1.25,0,0,1,.93-.12l.37.23c.2.11,0,.4-.21.54l-11.91,7.42A1,1,0,0,1,344.43,195.2Z" style="fill:#afb6e5;opacity:0.276190476678312"/><path d="M344.44,195.19l-.44-.27c-.23-.14-.2-.38.07-.53l11.38-6.85a1.39,1.39,0,0,1,1-.14l.36.22c.2.12,0,.43-.25.56l-11.17,7A1,1,0,0,1,344.44,195.19Z" style="fill:#afb6e5;opacity:0.32142857182771"/><path d="M344.44,195.17l-.42-.26c-.23-.13-.2-.36.07-.52L354.72,188a1.43,1.43,0,0,1,1-.16l.34.21c.2.11-.05.44-.27.57l-10.44,6.52A1,1,0,0,1,344.44,195.17Z" style="fill:#afb6e5;opacity:0.366666666977108"/><path d="M344.44,195.16l-.4-.25c-.22-.13-.2-.36.07-.51l9.88-6a1.6,1.6,0,0,1,1-.18l.33.21c.19.11-.09.46-.31.58l-9.71,6.06A1,1,0,0,1,344.44,195.16Z" style="fill:#afb6e5;opacity:0.411904762126506"/><path d="M344.44,195.14l-.38-.23c-.22-.13-.19-.36.06-.51l9.15-5.5a1.72,1.72,0,0,1,1-.19l.31.2c.2.11-.11.47-.34.6l-9,5.6A1,1,0,0,1,344.44,195.14Z" style="fill:#afb6e5;opacity:0.457142857275904"/><path d="M344.44,195.13l-.36-.23c-.22-.12-.19-.34.06-.49l8.4-5a1.77,1.77,0,0,1,1.07-.22l.3.19c.19.11-.15.49-.37.62l-8.24,5.14A.94.94,0,0,1,344.44,195.13Z" style="fill:#afb6e5;opacity:0.502380952425301"/><path d="M344.44,195.11l-.34-.21c-.21-.12-.19-.34.06-.48l7.65-4.61c.22-.12.9-.34,1.09-.23l.29.18c.19.11-.18.51-.4.63l-7.51,4.69A.93.93,0,0,1,344.44,195.11Z" style="fill:#afb6e5;opacity:0.547619047574699"/><path d="M344.45,195.1l-.33-.2c-.21-.12-.18-.34.06-.48l6.9-4.15a2.06,2.06,0,0,1,1.12-.26l.28.18c.19.11-.22.52-.44.65l-6.77,4.23A.91.91,0,0,1,344.45,195.1Z" style="fill:#afb6e5;opacity:0.592857142724097"/><path d="M344.45,195.09l-.31-.2c-.2-.12-.18-.33.06-.46l6.15-3.71c.22-.13,1-.38,1.15-.27l.26.17c.19.1-.25.53-.46.66l-6,3.77A.9.9,0,0,1,344.45,195.09Z" style="fill:#afb6e5;opacity:0.638095237873495"/><path d="M344.45,195.07l-.29-.18c-.2-.12-.17-.32.06-.46l5.41-3.26c.21-.12,1-.39,1.17-.28l.25.15c.19.11-.28.56-.5.68L345.24,195A.88.88,0,0,1,344.45,195.07Z" style="fill:#afb6e5;opacity:0.683333333022893"/><path d="M344.45,195.06l-.27-.17c-.2-.12-.17-.32.06-.45l4.66-2.81a2.39,2.39,0,0,1,1.2-.31l.23.15c.19.11-.31.57-.53.69L345.23,195A.86.86,0,0,1,344.45,195.06Z" style="fill:#afb6e5;opacity:0.728571428172291"/><path d="M344.45,195l-.25-.16c-.19-.11-.17-.31.06-.44l3.91-2.36c.21-.12,1-.43,1.23-.32l.22.14c.18.1-.35.59-.56.71l-3.84,2.4A.84.84,0,0,1,344.45,195Z" style="fill:#afb6e5;opacity:0.773809523321688"/><path d="M344.45,195l-.23-.15c-.19-.11-.16-.3.06-.43l3.16-1.92c.21-.12,1.07-.44,1.26-.34l.21.14c.18.1-.39.6-.6.72L345.2,195A.86.86,0,0,1,344.45,195Z" style="fill:#afb6e5;opacity:0.819047618471086"/><path d="M344.46,195l-.22-.13c-.18-.11-.16-.3.06-.43l2.41-1.46c.21-.12,1.1-.47,1.28-.36l.2.12c.18.11-.42.62-.62.74L345.19,195A.79.79,0,0,1,344.46,195Z" style="fill:#afb6e5;opacity:0.864285713620484"/><path d="M344.46,195l-.2-.12c-.18-.11-.16-.3.06-.42l1.67-1c.2-.12,1.12-.48,1.3-.38l.19.12c.17.11-.45.64-.66.76l-1.64,1A.8.8,0,0,1,344.46,195Z" style="fill:#afb6e5;opacity:0.909523808769882"/><path d="M344.46,195l-.18-.11c-.18-.1-.15-.29.05-.41l.93-.56c.2-.12,1.15-.5,1.33-.4l.17.11c.18.1-.48.65-.69.77l-.91.58A.76.76,0,0,1,344.46,195Z" style="fill:#afb6e5;opacity:0.95476190391928"/><path d="M344.46,195l-.16-.1c-.17-.1-.15-.28.05-.4l.18-.12c.2-.12,1.18-.52,1.36-.41l.16.1c.17.1-.52.66-.72.78l-.18.12A.77.77,0,0,1,344.46,195Z" style="fill:#afb6e5"/></g><path d="M492.07,138.77a31.48,31.48,0,1,0-58.2,16.61c8.09,13.5,26.72,27.88,26.72,27.88s18.63-14.38,26.73-27.88A31.25,31.25,0,0,0,492.07,138.77Z" style="fill:#88f9ff"/><path d="M460.59,181.16c-3.95-3.18-18.54-15.33-25.31-26.62a29.83,29.83,0,1,1,50.64,0C479.13,165.84,464.55,178,460.59,181.16Z" style="fill:#6669f1"/><circle cx="460.59" cy="138.77" r="21.09" transform="translate(219.72 555.16) rotate(-76.72)" style="fill:#6669f1;stroke:#fff;stroke-miterlimit:10"/><path d="M462.75,130a1.58,1.58,0,0,0-1.93,1.09l-3.47,12.51a1.56,1.56,0,0,0,1.09,1.92,1.52,1.52,0,0,0,.42.06,1.55,1.55,0,0,0,1.5-1.15l3.48-12.5A1.57,1.57,0,0,0,462.75,130Z" style="fill:#fff"/><path d="M452.21,130.35a1.56,1.56,0,0,0-2.2.2l-5.21,6.27a1.57,1.57,0,0,0,0,2l5.21,6.24a1.57,1.57,0,0,0,1.2.56,1.6,1.6,0,0,0,1-.36,1.57,1.57,0,0,0,.19-2.21L448,137.81l4.38-5.26A1.56,1.56,0,0,0,452.21,130.35Z" style="fill:#fff"/><path d="M476.38,136.79l-5.21-6.24a1.56,1.56,0,1,0-2.4,2l4.38,5.24-4.38,5.27a1.57,1.57,0,0,0,.2,2.2,1.6,1.6,0,0,0,1,.36,1.55,1.55,0,0,0,1.21-.57l5.21-6.26A1.56,1.56,0,0,0,476.38,136.79Z" style="fill:#fff"/><path d="M172.59,203a31.48,31.48,0,1,0-58.2,16.62c8.1,13.5,26.72,27.88,26.72,27.88s18.63-14.38,26.73-27.88A31.28,31.28,0,0,0,172.59,203Z" style="fill:#88f9ff"/><path d="M141.11,245.37c-4-3.18-18.53-15.33-25.31-26.63a29.82,29.82,0,1,1,50.65,0C159.65,230,145.07,242.19,141.11,245.37Z" style="fill:#6669f1"/><circle cx="141.11" cy="202.97" r="21.09" transform="translate(-88.85 293.68) rotate(-76.72)" style="fill:#6669f1;stroke:#fff;stroke-miterlimit:10"/><path d="M143.27,194.25a1.56,1.56,0,0,0-1.92,1.09l-3.48,12.5a1.57,1.57,0,0,0,1.09,1.93,1.52,1.52,0,0,0,.42.06,1.57,1.57,0,0,0,1.5-1.15l3.48-12.51A1.56,1.56,0,0,0,143.27,194.25Z" style="fill:#fff"/><path d="M132.73,194.55a1.56,1.56,0,0,0-2.2.21L125.32,201a1.57,1.57,0,0,0,0,2l5.22,6.24a1.57,1.57,0,0,0,2.2.2,1.57,1.57,0,0,0,.2-2.2L128.56,202l4.38-5.26A1.57,1.57,0,0,0,132.73,194.55Z" style="fill:#fff"/><path d="M156.91,201l-5.22-6.24a1.57,1.57,0,0,0-2.4,2l4.38,5.24-4.38,5.26a1.56,1.56,0,0,0,.21,2.2,1.5,1.5,0,0,0,1,.36,1.58,1.58,0,0,0,1.21-.56l5.21-6.27A1.57,1.57,0,0,0,156.91,201Z" style="fill:#fff"/><g style="isolation:isolate"><path d="M156.25,142.18a2.16,2.16,0,0,1-2,0c-.54-.32-.53-.83,0-1.14a2.15,2.15,0,0,1,2,0C156.82,141.36,156.8,141.87,156.25,142.18Z" style="fill:url(#Безымянный_градиент_2)"/><path d="M156.72,123.75l0-4.15c0-2.1,0-4.19,0-6.21l0-7.49a.71.71,0,0,0-.39-.57l-.22-.1h0l-.17-.06h-.09l-.06,0-.14,0h-.58l-.17,0h0l-.14,0-.08,0h0l-.26.11,0,0-.07.06-.09.07h0l-.08.09,0,0v0l0,0a.59.59,0,0,1,0,.08h0v0a.08.08,0,0,0,0,0s0,0,0,.08h0l-.1,35.71a.68.68,0,0,0,.4.56l.21.11h0l.16.06h.15l.14,0h.59l.16,0h0l.14,0,.09,0h0a1.11,1.11,0,0,0,.27-.12l0,0a.18.18,0,0,0,.07,0l.1-.07h0l.09-.09v0l0-.05a.2.2,0,0,0,0-.08h0a.43.43,0,0,1,0-.05.25.25,0,0,0,0-.08v0c0-2.34,0-4.86,0-7.47l0-6.24C156.72,126.51,156.72,125.13,156.72,123.75Z" style="fill:#11467a"/><path d="M156.35,106.48a2.19,2.19,0,0,1-2,0c-.54-.32-.53-.83,0-1.15a2.19,2.19,0,0,1,2,0C156.92,105.66,156.9,106.17,156.35,106.48Zm-.89-.53c.06,0,.06-.07,0-.11a.21.21,0,0,0-.19,0,.06.06,0,0,0,0,.11.19.19,0,0,0,.18,0" style="fill:url(#Безымянный_градиент_2-2)"/></g><path d="M173.47,124.83v-.15s0-.06,0-.09v0h0c0-.08,0-.15,0-.22a.53.53,0,0,0,0-.13,2,2,0,0,0,0-.25v-.06a.09.09,0,0,1,0,0,.34.34,0,0,1,0-.1.13.13,0,0,1,0-.06c0-.13,0-.27-.08-.4a.07.07,0,0,0,0,0h0a.29.29,0,0,0,0-.09c0-.1-.05-.21-.08-.32s0-.1-.05-.14l0-.1h0c0-.08-.06-.16-.09-.25l0-.09a2.72,2.72,0,0,0-.11-.25s0,0,0-.06l0,0a.2.2,0,0,0,0-.08l0-.09a1.14,1.14,0,0,0-.1-.19,1.09,1.09,0,0,0-.08-.15l0-.06,0,0h0l-.06-.1-.09-.15-.11-.16-.06-.09-.07-.11,0-.06-.19-.26-.46-.6-.3-.38-.68-.89,0,0-.46-.59-.26-.34-.23-.3-.05-.07,0,0-.41-.53-.34-.44-.61-.79-.11-.15-.73-1-.29-.38-.34-.44-.41-.52-.08-.11-.64-.84-.69-.89-.34-.44-.29-.38-.46-.6-.46-.59-.53-.69-.1-.13-.55-.73-.83-1.07,0,0-.4-.52c-.19-.25-.39-.5-.58-.76l-.05-.06-.58-.76-.15-.19-.12-.15-1.35-1.76-.08-.11c-.08-.09-.15-.19-.23-.3l-.27-.34-.27-.36-.18-.23,0,0-1.44-1.87h-.09l-16.59,21.31-.11.15-.09.13-.1.14-.09.13a.61.61,0,0,1-.07.1l0,.06a.57.57,0,0,1-.08.13,1.09,1.09,0,0,1-.08.15l-.09.16a.75.75,0,0,1-.07.12v0l-.06.12-.09.18-.06.14-.05.11,0,.05-.07.19,0,.1,0,.1s0,.09,0,.14l-.06.21,0,.1,0,.14a1.6,1.6,0,0,0-.05.21l0,.14s0,.07,0,.1a2.17,2.17,0,0,0,0,.25s0,.08,0,.12a.2.2,0,0,0,0,.07.22.22,0,0,1,0,.08c0,.1,0,.2,0,.31v.46a.31.31,0,0,1,0,.1.34.34,0,0,0,0,.1,1.24,1.24,0,0,0,0,.27.49.49,0,0,0,0,.12v.06c0,.13,0,.27.08.41h0v0l0,.1a1.68,1.68,0,0,0,.09.32s0,.05,0,.07a1,1,0,0,1,0,.1c0,.1.07.2.1.3s0,.05,0,.08a.14.14,0,0,0,0,.06l.15.35a.3.3,0,0,1,0,.08h0c.07.15.14.29.22.43v0l0,.07,0,0,.12.21.08.11a.83.83,0,0,0,.08.12l.09.14.13.17,0,0a.61.61,0,0,0,.07.1l.06.08c.05.05.09.11.14.17s.09.11.14.17l0,0,0,0,.06.06c.08.1.17.19.26.29l.13.12.07.08.24.23.12.11.13.12,0,0,.09.07.19.16.08.06.06.05.16.13.2.15.16.12h0l.1.07,0,0,.24.17.16.1.08.06.5.31,0,0,0,0q.42.25.87.48l.12.06.11.06c.29.14.59.29.9.42h0l.06,0,.85.35.11,0,.16.06.68.24.17.06.1,0,.91.28h0l.91.24.08,0,.23,0,.6.13.15,0,.22,0,.5.09.19,0,.21,0,.44.07.22,0,.21,0,.37,0,.21,0,.29,0,.29,0,.14,0,.5,0,.14,0h0l.61,0h2.17l.52,0h.5l.45,0h.06l.56,0,.18,0,.2,0,.2,0,.39-.05.22,0h.08l.34-.05.44-.06h.07l.5-.09.23,0,.79-.17.15,0q.31-.06.63-.15l.28-.07.4-.11.07,0,.73-.22.13,0h0l.34-.12.4-.14h0l.25-.1.44-.17.05,0,.34-.15.34-.14,0,0,.56-.27.17-.08h0c.24-.12.48-.24.71-.37l.13-.07.18-.11.27-.16.07,0,0,0,.14-.09.25-.16.07-.05.07,0,.14-.1.26-.19.16-.12.1-.07.26-.21.1-.08,0,0,.08-.07.1-.09.27-.24.07-.06h0l.14-.13.2-.21.06,0,.05-.06.1-.1.16-.18.13-.15,0-.05s0,0,0,0,.09-.11.14-.17l.08-.1,0,0,.08-.1.09-.12a.91.91,0,0,1,.11-.16l.1-.16.09-.13a.43.43,0,0,1,0-.07l0,0,.1-.18a.31.31,0,0,0,.05-.1l0-.06,0,0,.09-.19a1.19,1.19,0,0,0,.08-.16l0,0,0,0,0-.08v0l.09-.23,0-.12s0-.07,0-.11l0-.08s0,0,0-.06a.83.83,0,0,0,0-.15.88.88,0,0,0,.05-.15v0a.06.06,0,0,1,0,0,.75.75,0,0,1,0-.16s0-.07,0-.11a.43.43,0,0,0,0-.11.64.64,0,0,0,0-.07s0,0,0-.08a1.85,1.85,0,0,0,0-.23.68.68,0,0,1,0-.14h0v0h0s0,0,0,0v0C173.46,125.06,173.47,125,173.47,124.83Z" style="fill:url(#radial-gradient-5)"/><path d="M170.36,108.59a.27.27,0,0,1,0-.09v0s0,0,0-.06a3.57,3.57,0,0,0,0-.46v0h0v0c0-.14-.05-.29-.08-.43a.09.09,0,0,1,0,0s0,0,0-.05l0-.11-.09-.29,0-.09a.08.08,0,0,0,0,0,.3.3,0,0,0,0-.1.05.05,0,0,0,0,0,2.17,2.17,0,0,0-.15-.35h0l-.06-.13a.54.54,0,0,1-.07-.13c0-.07-.09-.14-.13-.22l0-.06-.13-.19,0,0h0L155.91,85.66s0,0,0,0h-.16l0,.05h0l0-.05h0l0,0h0l-13.55,19.78-.07.11-.12.19-.11.19,0,0,0,0-.06.1-.09.2-.09.2,0,0v0l0,.13a1.46,1.46,0,0,0-.07.19c0,.07-.05.14-.07.2h0l0,.09a.43.43,0,0,0,0,.11,1.94,1.94,0,0,0-.05.2,1.77,1.77,0,0,0,0,.2v.07a.59.59,0,0,0,0,.14,1.23,1.23,0,0,0,0,.19c0,.07,0,.13,0,.2v.09a.49.49,0,0,1,0,.12c0,.07,0,.14,0,.2a1.27,1.27,0,0,0,0,.2V109a.77.77,0,0,0,0,.15c0,.06,0,.13,0,.2a.85.85,0,0,0,0,.17s0,.07,0,.1l0,.13.06.2a1.05,1.05,0,0,0,.05.19l0,0a.76.76,0,0,0,.06.16,1.59,1.59,0,0,0,.07.2s.05.1.07.16a1,1,0,0,1,0,.1l.07.13c0,.07.07.13.1.2l.1.17,0,0,.1.17.13.19,0,0,.07.1.06.08,0,.06s0,0,0,0l.27.34.05,0,0,.06.22.23a.94.94,0,0,0,.1.1.23.23,0,0,0,.07.07l.06.06.1.09.19.18.19.16.14.12,0,0,.07,0a.39.39,0,0,0,.1.08l.11.09.21.15.13.09.05,0,.07,0,.22.15.1.07.31.19.56.31h0l.05,0,.71.35.1,0,.09,0,.75.32h0l.73.26.09,0,.13,0,.56.18.14,0,.08,0c.5.14,1,.27,1.51.38h.07l.19,0,.48.09.13,0,.17,0,.43.06.16,0,.16,0,.37,0,.19,0,.16,0,.3,0h.2l.18,0,.29,0h2.82l.5,0h.13l.41,0h.11l.22,0,.23,0,.16,0,.38-.05.19,0,.09,0,1-.17h.07l.19,0,.43-.09.29-.07.41-.11.16,0,.08,0,1-.31.07,0,.12,0,.61-.23.13,0,0,0c.25-.1.5-.2.74-.32h0l.09,0,.74-.37.09-.05a.31.31,0,0,1,.1,0l.5-.3.16-.1,0,0,.12-.08.1-.06.05,0,.35-.26.14-.1h0l.42-.34h0l.12-.11h0l.13-.11.14-.13.15-.15c.07-.07.14-.13.2-.2v0h0l0,0c.08-.08.15-.17.22-.25l.07-.08.11-.14.08-.1.09-.12h0a.21.21,0,0,0,0-.06,3,3,0,0,0,.2-.29l0,0v0l0-.06.09-.15,0-.1.06-.11a.83.83,0,0,0,.07-.13l0-.06,0-.08,0-.09v0a.14.14,0,0,0,0-.06,1.78,1.78,0,0,0,.12-.29v0s0-.08,0-.12l0-.07s0,0,0-.07a2.33,2.33,0,0,0,.07-.25l0-.14s0,0,0-.06,0,0,0,0h0a3,3,0,0,0,.06-.42V109s0-.06,0-.09S170.36,108.7,170.36,108.59Z" style="fill:url(#radial-gradient-6)"/><g style="isolation:isolate"><path d="M148.24,89.81c4.27-2.39,11.08-2.32,15.23.16s4,6.42-.22,8.81-11.08,2.33-15.22-.15S144,92.2,148.24,89.81Zm7.42,4.43c-.06,0-.06.08,0,.11a.21.21,0,0,0,.19,0s0-.07,0-.1a.23.23,0,0,0-.18,0" style="fill:url(#Безымянный_градиент_4)"/><path d="M166.5,94.57a1.77,1.77,0,0,0,0-.23v-.17c0-.13,0-.26,0-.39h0s0,0,0,0,0-.23-.07-.35,0,0,0,0a.88.88,0,0,0,0-.15,1.72,1.72,0,0,0-.07-.21.14.14,0,0,0,0-.06,1.42,1.42,0,0,0-.08-.18,1.11,1.11,0,0,0-.07-.16.59.59,0,0,0,0-.08l-.11-.19-.08-.14a1,1,0,0,0-.11-.17L155.9,77.68s0,0,0,0h-.18a0,0,0,0,1,0,0h0q-5,7.14-9.92,14.27a3.73,3.73,0,0,0-.23.37l-.06.1c-.06.12-.13.25-.18.37h0a2.46,2.46,0,0,0-.14.38l0,.1-.09.38h0c0,.13,0,.26,0,.39v.1a2.41,2.41,0,0,0,0,.38v0c0,.13,0,.26,0,.39a.29.29,0,0,1,0,.09c0,.13.06.26.1.38v0a3.73,3.73,0,0,0,.15.38l0,.1c.06.12.12.24.19.36v0l.18.28a.18.18,0,0,0,0,.07c.05.07.11.14.16.22s.11.13.16.19l.2.22.13.14.07.06.11.11.29.25.12.1.07.06c.11.09.23.17.36.26l.08,0,.21.15.28.17.37.21.29.15.23.11.11.06.62.27h0l.09,0,.5.19.23.07.2.07.18,0,.61.17h0l.09,0,.47.11.35.07.15,0,.09,0,.56.09.23,0h.13l.17,0,.48,0,.26,0h.2l.41,0h1.15l.35,0h0l.36,0,.38,0,.24,0h.17l.46-.06.34-.05.13,0,.1,0,.46-.09c.15,0,.3,0,.44-.09l.52-.13.43-.11.05,0q.38-.11.72-.24l.07,0,.14-.06c.13,0,.26-.09.39-.15s.18-.08.27-.12l.19-.08.12-.06c.22-.1.43-.21.64-.33h0l.5-.3.12-.08.13-.09.26-.18.08-.07c.13-.1.26-.2.37-.3l.05,0,.08-.08.3-.29.08-.09,0,0,.26-.31,0-.07.09-.12.08-.12.16-.25s0-.06,0-.09a.67.67,0,0,0,.06-.12,2.26,2.26,0,0,0,.11-.22.47.47,0,0,0,0-.1s0-.09.05-.13.05-.13.07-.2l0-.09a.83.83,0,0,0,0-.15c0-.06,0-.12,0-.18a.31.31,0,0,0,0-.08,1.1,1.1,0,0,0,0-.18l0-.17Z" style="fill:url(#radial-gradient-7)"/></g><g style="isolation:isolate"><path d="M273.64,79a2.13,2.13,0,0,1-2,0c-.54-.32-.53-.83,0-1.14a2.13,2.13,0,0,1,2,0C274.21,78.17,274.19,78.68,273.64,79Z" style="fill:url(#Безымянный_градиент_2-3)"/><path d="M274.11,60.56l0-4.14c0-2.11,0-4.2,0-6.22l0-7.49a.66.66,0,0,0-.39-.56l-.22-.11h0l-.17-.06h-.15l-.14,0h-.58l-.17,0h0l-.14,0-.08,0h0a1.23,1.23,0,0,0-.26.12h0l-.07.06-.09.07h0l-.08.09v0l0,0,0,0a.59.59,0,0,1,0,.08h0v0l0,0s0,.06,0,.08v0l-.1,35.7a.67.67,0,0,0,.4.56,1.13,1.13,0,0,0,.22.11h0l.17.06h.14l.14,0h.59l.16,0h0l.14,0,.09,0h0a1.11,1.11,0,0,0,.27-.12h0l.07-.06.1-.07h0l.09-.09v0s0,0,0,0a.59.59,0,0,0,0-.08h0v0s0,0,0,0a.25.25,0,0,0,0-.08v0c0-2.34,0-4.86,0-7.47V64.7C274.11,63.33,274.11,62,274.11,60.56Z" style="fill:#11467a"/><path d="M273.74,43.29a2.16,2.16,0,0,1-2,0c-.54-.32-.53-.83,0-1.14a2.13,2.13,0,0,1,2,0C274.31,42.47,274.3,43,273.74,43.29Zm-.88-.53c.05,0,.05-.07,0-.1a.25.25,0,0,0-.19,0,.06.06,0,0,0,0,.11.21.21,0,0,0,.19,0" style="fill:url(#Безымянный_градиент_2-4)"/></g><path d="M290.86,61.65v-.16a.28.28,0,0,0,0-.09v0h0c0-.07,0-.15,0-.22a.53.53,0,0,0,0-.13,2.11,2.11,0,0,0,0-.25v-.06s0,0,0,0,0-.07,0-.1,0,0,0-.06-.05-.27-.07-.4a.09.09,0,0,1,0,0h0l0-.08a3,3,0,0,0-.08-.32s0-.1-.05-.15l0-.1h0v0a2.44,2.44,0,0,0-.1-.24l0-.1c0-.08-.07-.16-.11-.25s0,0,0-.06l0,0a.2.2,0,0,0,0-.08.36.36,0,0,0,0-.09,1.74,1.74,0,0,0-.1-.19,1.09,1.09,0,0,0-.08-.15l0-.06,0,0h0l-.06-.1-.09-.15-.11-.16-.06-.09-.07-.11,0-.06-.19-.26-.46-.6c-.1-.12-.2-.25-.29-.38l-.69-.88,0,0-.46-.6-.26-.34-.23-.3-.05-.07,0,0-.41-.53-.34-.44-.6-.79-.12-.15L284.6,51l-.29-.37L284,50.2l-.41-.52-.08-.11-.64-.84-.69-.89-.33-.44-.3-.38c-.16-.21-.31-.41-.46-.59l-.46-.6-.53-.69L280,45l-.56-.73-.83-1.07,0,0-.4-.53-.58-.75-.05-.07-.58-.76-.15-.19-.12-.15L275.33,39l-.08-.11-.23-.3-.27-.34c-.09-.13-.19-.25-.27-.36l-.18-.23,0,0-1.44-1.87h-.09L256.15,57l-.1.15a1.13,1.13,0,0,0-.1.13l-.1.14-.09.13-.06.1,0,.06s-.05.09-.07.14l-.09.14-.09.16-.06.12,0,0-.06.12a1.42,1.42,0,0,0-.08.18.91.91,0,0,0-.07.14,1.17,1.17,0,0,1-.05.11s0,0,0,0l-.07.19,0,.1,0,.1-.05.14-.06.21,0,.1,0,.15c0,.07,0,.14,0,.21a.59.59,0,0,0,0,.13.36.36,0,0,0,0,.1,2.17,2.17,0,0,0,0,.25s0,.08,0,.12,0,.05,0,.07v.08c0,.1,0,.21,0,.31v.46a.31.31,0,0,1,0,.1s0,.07,0,.1l0,.27s0,.08,0,.12v.06c0,.14.05.27.08.41h0v0l0,.1.09.33a.14.14,0,0,0,0,.06l0,.1c0,.1.07.2.11.3l0,.08s0,0,0,.06a3.73,3.73,0,0,0,.16.35l0,.08v0c.07.14.14.28.22.42v0l.05.07,0,0,.12.21.08.11.08.12.1.14.12.17,0,0a.61.61,0,0,0,.07.1l.06.08c.05,0,.09.11.14.17l.15.17,0,0,0,0,.06.07.26.28a1.59,1.59,0,0,1,.13.13l.08.07.23.23.12.11.14.12,0,0,.09.08.19.15.08.06.06,0,.16.13.2.15.16.12h0l.09.07,0,0,.24.17.16.1.08.06.5.31,0,0,0,0,.87.48.12.07.11,0c.29.15.59.29.9.43h0l.06,0,.85.35.11,0,.16.06.68.24.17.06.1,0,.91.28h0l.91.24.09,0,.22,0,.6.13.15,0,.22,0c.17,0,.33.07.5.09l.19,0,.21,0,.44.07.22,0,.22,0,.36,0,.21,0,.29,0,.29,0,.14,0,.5,0h.18l.61,0h2.88l.31,0,.45,0h.06l.56,0,.18,0,.2,0,.21,0,.38,0,.22,0h.08l.34-.06.44-.06h.07l.5-.09.23,0,.79-.17.16,0,.62-.15.28-.08.4-.11.08,0,.73-.22.12,0h0l.34-.11.4-.15h0l.24-.1.45-.17,0,0,.34-.14.34-.15,0,0,.56-.27.17-.08h0c.24-.12.48-.24.71-.37l.13-.07.18-.11.27-.16.07,0,0,0,.15-.09.25-.16.06,0,.07,0,.14-.1.26-.19.17-.12.09-.07.26-.2.1-.09,0,0,.08-.07.1-.09.28-.24.06-.06h0l.14-.13.21-.2a.12.12,0,0,1,.05,0l.05-.07a.47.47,0,0,0,.1-.1l.16-.18.13-.15a.1.1,0,0,0,0,0l0,0c.05,0,.09-.11.14-.17l.08-.1,0,0,.08-.1.09-.12.11-.16s.07-.1.1-.16l.09-.13,0-.07,0,0,.1-.18.06-.09,0-.06,0,0,.09-.19a1.19,1.19,0,0,0,.08-.16l0,0,0,0,0-.08v0c0-.08.07-.15.1-.22s0-.09,0-.13,0-.07,0-.11l0-.08s0,0,0-.06,0-.1.05-.15,0-.1,0-.15v0a.06.06,0,0,1,0,0,.94.94,0,0,1,0-.16.43.43,0,0,0,0-.11l0-.11s0,0,0-.07a.19.19,0,0,0,0-.08,1.57,1.57,0,0,0,0-.23s0-.09,0-.14h0v0h0a.09.09,0,0,0,0-.05v0C290.85,61.87,290.86,61.76,290.86,61.65Z" style="fill:url(#radial-gradient-8)"/><path d="M287.75,45.4v-.11s0,0,0-.06a2.38,2.38,0,0,0,0-.46v0h0v0c0-.14-.05-.29-.08-.43a.09.09,0,0,1,0,0l0-.05,0-.11-.09-.29,0-.09a.08.08,0,0,0,0-.05.3.3,0,0,0,0-.1s0,0,0,0a3.73,3.73,0,0,0-.16-.35h0v0l-.06-.12-.07-.13a1.59,1.59,0,0,0-.13-.22l0-.07a2.14,2.14,0,0,0-.13-.19l0,0h0L273.3,22.47s0,0,0,0h-.17l0,0h0l0,0h0l0,0h0L259.53,42.25l-.07.11-.12.19-.11.19,0,0,0,0-.06.1-.09.2-.09.2,0,.05v0c0,.05,0,.09,0,.13a1.46,1.46,0,0,0-.07.19c0,.07-.05.14-.07.2h0a.19.19,0,0,0,0,.08l0,.11a1.6,1.6,0,0,0-.05.21c0,.06,0,.13,0,.19v.07s0,.09,0,.14a1.23,1.23,0,0,0,0,.2c0,.06,0,.12,0,.19v.42a1.21,1.21,0,0,0,0,.19v.06c0,.05,0,.1,0,.15s0,.13,0,.2a1.16,1.16,0,0,0,0,.18s0,.06,0,.09l0,.13.06.2c0,.07,0,.13.05.19l0,0,.06.16a1.59,1.59,0,0,0,.07.2l.07.16,0,.1.06.13a1.28,1.28,0,0,0,.11.2l.09.18,0,0,.1.17a2.14,2.14,0,0,0,.13.19l0,.05.08.1.05.08.05.06,0,0c.09.12.18.23.28.34l0,.06,0,0,.22.23.1.1a.23.23,0,0,0,.07.07l.06.06.1.09.19.18.19.16.14.12.06,0,.06,0,.1.08.11.09.21.15.13.09.05,0,.07,0,.22.15.1.07.31.19c.18.11.37.21.56.31h0l.05,0L264,52l.1,0,.09,0,.75.32h0l.73.26.09,0,.13,0,.56.18.14,0,.08,0c.5.14,1,.27,1.51.38h.07l.19,0,.49.09.12,0,.17,0,.43.06.16,0,.16,0,.37,0,.19,0h.16l.31,0,.19,0h.18l.29,0h2.82l.5,0h.13l.41,0h.11l.22,0,.23,0,.16,0,.38,0,.2,0,.08,0,1-.17H278l.19,0,.43-.1.29-.07.41-.11.16,0,.08,0,1-.31.07,0,.12-.05.61-.23.13,0,0,0,.74-.31,0,0,.09-.05.74-.37.09-.05.1,0,.5-.3.16-.1,0,0,.13-.08.1-.06,0,0,.35-.26.14-.1h0a4.78,4.78,0,0,0,.42-.34h0l.12-.1h0l.13-.12.14-.13.15-.15a1.89,1.89,0,0,0,.2-.2h0l0,0c.08-.08.15-.17.22-.25l.07-.08.11-.14.08-.1.09-.12h0a.1.1,0,0,0,0,0l.21-.3a.08.08,0,0,1,0,0l0,0,0-.06.09-.15a.31.31,0,0,0,.05-.1l.06-.11a.83.83,0,0,0,.07-.13l0-.06s0-.05,0-.08l0-.09v0l0-.06c0-.1.08-.19.11-.29v0a.56.56,0,0,0,0-.12l0-.07s0,0,0-.06a2.5,2.5,0,0,0,.07-.26l0-.13a.64.64,0,0,1,0-.07s0,0,0,0h0a3,3,0,0,0,.06-.42v-.12s0-.06,0-.09S287.75,45.51,287.75,45.4Z" style="fill:url(#radial-gradient-9)"/><g style="isolation:isolate"><path d="M265.63,26.62c4.27-2.39,11.08-2.32,15.23.16s4,6.42-.22,8.81-11.08,2.33-15.22-.15S261.37,29,265.63,26.62Zm7.42,4.44c-.05,0-.06.07,0,.1a.21.21,0,0,0,.19,0s0-.07,0-.1a.19.19,0,0,0-.18,0" style="fill:url(#Безымянный_градиент_4-2)"/><path d="M283.89,31.39a1.93,1.93,0,0,0,0-.24V31c0-.14,0-.27,0-.4h0a.09.09,0,0,0,0-.05c0-.11,0-.23-.07-.35s0,0,0,0a.88.88,0,0,0,0-.15l-.06-.21,0-.06a.89.89,0,0,0-.08-.17.87.87,0,0,0-.07-.17s0,0,0-.08l-.11-.19-.08-.14a1,1,0,0,0-.11-.17l-9.85-14.33,0,0h-.17l0,0h0q-4.95,7.14-9.92,14.27a3.73,3.73,0,0,0-.23.37l-.06.1c-.06.12-.13.25-.18.37h0c-.05.13-.1.25-.14.38l0,.1-.09.38h0c0,.13,0,.26,0,.39V31a2.41,2.41,0,0,0,0,.38v0a2.63,2.63,0,0,0,.06.39.44.44,0,0,0,0,.1,2.49,2.49,0,0,0,.09.37v0a3,3,0,0,0,.15.38l0,.1c.06.12.12.24.19.36v0l.18.29.05.06.17.22.16.2.19.21.13.14.07.06.11.11.29.25.12.1.07.06c.12.09.23.18.36.26l.08,0,.21.15a2.61,2.61,0,0,0,.28.17l.37.21c.1.06.2.1.3.15l.22.11.11.06.62.27h0l.09,0,.5.19.23.07.2.07.18,0,.61.17h0l.09,0,.48.11.35.07.14,0,.09,0,.57.09.22,0,.13,0,.17,0,.48,0,.26,0h.2l.42,0H274l.36,0,.38,0,.24,0h.17l.46-.06.34,0,.13,0,.1,0c.16,0,.3-.06.46-.09s.3,0,.44-.09l.53-.13.42-.11.05,0,.72-.23.07,0,.14,0,.39-.15.27-.13.19-.08.13-.06q.32-.15.63-.33h0l.49-.3.12-.08.13-.09.26-.18.09-.07.36-.3.05,0,.09-.08.3-.29.07-.09.05,0,.26-.31.05-.07.09-.12.08-.12.16-.25.06-.09.05-.12a2.26,2.26,0,0,0,.11-.22l0-.1s0-.08.05-.13.05-.13.07-.2l0-.09a.83.83,0,0,0,0-.15,1.16,1.16,0,0,0,0-.18.31.31,0,0,0,0-.08l0-.18a1,1,0,0,1,0-.17Z" style="fill:url(#radial-gradient-10)"/></g><g style="isolation:isolate"><path d="M303.92,85.36a1.68,1.68,0,0,1-1.53,0c-.41-.25-.4-.65,0-.89a1.68,1.68,0,0,1,1.53,0C304.36,84.73,304.35,85.12,303.92,85.36Z" style="fill:url(#Безымянный_градиент_2-5)"/><path d="M304.29,71.13V67.92c0-1.63,0-3.24,0-4.8l0-5.78a.53.53,0,0,0-.31-.44l-.16-.09h0l-.14,0h-.11l-.11,0h-.61l-.11,0h-.08l-.21.09,0,0-.06,0-.07.05h0l-.07.07h0v0s0,0,0,0l0,.06h0a.09.09,0,0,1,0,0v.06h0l-.08,27.58a.53.53,0,0,0,.3.44l.17.08h0l.13,0h.12l.1,0h.46l.13,0h0l.1,0,.07,0h0a.72.72,0,0,0,.2-.09h0l.05,0,.08-.06h0l.07-.08h0l0,0s0,0,0,0l0-.06h0s0,0,0,0v-.07h0c0-1.8,0-3.75,0-5.77V74.32C304.29,73.26,304.29,72.19,304.29,71.13Z" style="fill:#11467a"/><path d="M304,57.78a1.68,1.68,0,0,1-1.53,0c-.42-.25-.41-.65,0-.89a1.68,1.68,0,0,1,1.53,0C304.44,57.15,304.43,57.54,304,57.78Zm-.68-.41a0,0,0,0,0,0-.08.17.17,0,0,0-.14,0,0,0,0,0,0,0,.08.14.14,0,0,0,.15,0" style="fill:url(#Безымянный_градиент_2-6)"/></g><path d="M317.23,72v-.19h0v-.16a.41.41,0,0,0,0-.11c0-.06,0-.12,0-.19a.07.07,0,0,1,0-.05v0a.22.22,0,0,1,0-.08s0,0,0,0,0-.2-.06-.3v0h0a.14.14,0,0,1,0-.07,2.17,2.17,0,0,0-.07-.24l0-.12,0-.07h0c0-.06-.05-.12-.07-.19l0-.07a1.54,1.54,0,0,0-.08-.19l0-.05,0,0,0-.06,0-.07-.08-.15-.06-.11,0,0v0h0l0-.08a1,1,0,0,0-.08-.11.57.57,0,0,0-.08-.13.43.43,0,0,1,0-.07l-.06-.08,0,0-.15-.2-.35-.46c-.08-.09-.15-.19-.23-.29l-.53-.69,0,0-.36-.46c-.06-.09-.13-.17-.2-.26l-.18-.23,0-.06,0,0-.31-.4-.27-.35-.46-.61-.09-.11-.57-.74-.22-.29-.27-.34-.31-.41-.06-.08L311,62l-.53-.68c-.08-.12-.17-.23-.26-.34l-.22-.3-.36-.46-.35-.46c-.14-.17-.28-.35-.41-.53l-.08-.1-.43-.56-.64-.83,0,0-.31-.4L307,56.7l0-.05-.45-.58-.12-.15-.08-.12-1-1.36-.06-.08-.18-.23-.2-.27-.22-.27-.14-.18,0,0-1.11-1.44h-.07L290.42,68.4l-.09.11a.86.86,0,0,1-.07.1l-.08.11-.06.1-.06.08,0,0-.06.1-.07.11a.75.75,0,0,1-.07.12.47.47,0,0,1-.05.1v0l-.06.09-.06.14-.05.11,0,.09v0l-.06.15,0,.08s0,0,0,.07a.76.76,0,0,0,0,.11.75.75,0,0,1-.05.16.19.19,0,0,1,0,.08l0,.11,0,.17s0,.07,0,.1a.22.22,0,0,0,0,.08,1.25,1.25,0,0,0,0,.19s0,.06,0,.1a.43.43,0,0,0,0,0v.06c0,.08,0,.16,0,.24v.16c0,.06,0,.13,0,.19V72s0,0,0,.08a1.49,1.49,0,0,0,0,.21.28.28,0,0,1,0,.09v0l.06.33h0a.31.31,0,0,1,0,.08c0,.09.05.17.07.25s0,0,0,.05a.24.24,0,0,0,0,.08l.08.23,0,.07,0,0a1.51,1.51,0,0,0,.12.26s0,0,0,.06v0c.05.11.11.21.17.32v0h0l0,.06,0,0,.09.16.06.08.06.1a1,1,0,0,1,.08.11l.1.13h0l.05.08,0,.06.11.13.11.13,0,0,0,0,0,0,.2.22.1.1.06.06.18.17.09.09.11.09,0,0,.07.06.15.12.06,0,0,0,.13.1.15.12.13.09h0l.08.06h0l.19.13.12.08.06,0,.39.24,0,0,0,0,.67.37.09,0,.09,0a7.5,7.5,0,0,0,.7.33h.05c.21.1.43.19.65.27l.09,0,.13,0,.52.19.13,0,.07,0,.71.21h0c.23.07.46.13.7.18l.07,0,.17,0,.46.1.12,0,.17,0,.38.07.15,0,.16,0,.34,0,.17,0,.17,0,.29,0,.16,0,.22,0,.22,0h.11l.38,0h.14l.48,0h1.68l.39,0h.15l.24,0,.35,0h0l.44,0h.14l.15,0h.16l.29,0,.18,0h.06l.26,0,.34,0h.06l.38-.07.18,0,.61-.13.12,0,.48-.12.22-.06.3-.08.07,0,.56-.17.1,0h0a2,2,0,0,0,.26-.09l.32-.11h0l.19-.07.35-.14h0l.26-.11.27-.12h0l.43-.21.13-.06h0c.19-.09.37-.19.54-.29l.11,0,.14-.09.2-.12.06,0,0,0,.11-.07.19-.12a.1.1,0,0,0,.05,0l.05,0L314,77l.2-.14.13-.09.07-.06a1.56,1.56,0,0,0,.2-.16l.08-.06,0,0,.07,0a.46.46,0,0,0,.07-.07l.21-.18s0,0,.05,0h0l.11-.1.16-.16,0,0,0,0,.08-.08.12-.14.1-.12,0,0,0,0,.11-.13.06-.08,0,0,.06-.08a.61.61,0,0,1,.07-.1.83.83,0,0,1,.08-.12l.08-.12a.61.61,0,0,1,.07-.1l0-.06v0a.64.64,0,0,0,.08-.14l.05-.07,0,0,0,0a.91.91,0,0,1,.07-.14l.06-.13v0l0,0,0-.06v0a1.22,1.22,0,0,0,.07-.17.36.36,0,0,0,0-.09l0-.09a.14.14,0,0,0,0-.06l0,0,0-.12a.36.36,0,0,0,0-.11V73l0-.12a.31.31,0,0,0,0-.08s0-.06,0-.09a.43.43,0,0,0,0,0s0,0,0-.06l0-.18s0-.07,0-.11h0v0h0v-.06A2.28,2.28,0,0,0,317.23,72Z" style="fill:url(#radial-gradient-11)"/><path d="M314.82,59.41v-.13a2.19,2.19,0,0,0,0-.36h0v0l-.06-.33a30827137529.83,30827137529.83,0,0,1,0-.08l0-.08a2,2,0,0,0-.07-.23.64.64,0,0,1,0-.07l0,0,0-.07v0c0-.09-.07-.18-.12-.27h0a.41.41,0,0,0-.05-.09.31.31,0,0,0,0-.1,1,1,0,0,0-.1-.17s0,0,0-.05l-.1-.15,0,0h0L303.66,41.7a0,0,0,0,0,0,0h-.12l0,0h0l0,0h0l0,0h0L293,57l-.06.08-.09.15-.09.15v0l0,0a.59.59,0,0,1,0,.08l-.07.15a1,1,0,0,0-.07.15l0,0v0l0,.09-.06.16c0,.05,0,.1-.05.15h0a.64.64,0,0,0,0,.07s0,0,0,.08a1.24,1.24,0,0,0,0,.16l0,.15v.06a.34.34,0,0,0,0,.1.77.77,0,0,0,0,.15c0,.05,0,.1,0,.15v.07a.34.34,0,0,0,0,.1.92.92,0,0,0,0,.16v.15a.06.06,0,0,0,0,0,.49.49,0,0,0,0,.12c0,.05,0,.1,0,.15s0,.09,0,.14,0,.05,0,.07a.3.3,0,0,0,0,.1c0,.05,0,.11,0,.16a1,1,0,0,1,0,.14l0,0s0,.09,0,.13l.06.15,0,.12,0,.08a.47.47,0,0,0,.05.1,1.19,1.19,0,0,0,.08.16l.07.13,0,0,.09.13.09.14,0,0,.05.07.05.06,0,0,0,0a2.65,2.65,0,0,0,.21.26l0,0,0,.05.16.17.08.08.05.06.05,0,.08.07.15.14.14.12.11.1,0,0a.1.1,0,0,1,.05,0l.08.06.09.07.15.11.11.07,0,0,.05,0,.17.11.08.05.24.15.43.24h0l0,0,.55.27.07,0,.07,0,.58.25h0c.19.08.38.14.57.21l.07,0,.1,0,.43.14.11,0,.06,0c.38.11.77.2,1.17.28l.05,0,.15,0,.37.07.1,0,.13,0,.33.05.13,0,.12,0,.29,0,.15,0h.11l.24,0,.15,0h2.54l.39,0h.1l.32,0h.25l.18,0,.12,0,.3,0,.15,0h.06l.78-.13h0l.15,0,.33-.07.22,0,.32-.08.13,0,.06,0,.77-.23.06,0,.09,0,.48-.17.09,0,0,0c.2-.07.39-.16.57-.24l0,0,.06,0c.2-.09.39-.19.58-.29l.06,0,.08,0c.14-.07.26-.15.39-.23l.12-.08,0,0,.1-.06.08,0,0,0,.27-.2.11-.08h0l.33-.27h0L313,63h0l.1-.09a.52.52,0,0,0,.11-.1,1.14,1.14,0,0,0,.11-.11,1.21,1.21,0,0,0,.16-.16h0l0,0,.17-.19,0-.06.09-.11.06-.08.07-.09h0l0-.05a1.88,1.88,0,0,0,.16-.23l0,0h0l0-.05a.41.41,0,0,1,.07-.11.3.3,0,0,1,0-.08l0-.09.06-.1,0,0,0-.07,0-.06v0s0,0,0,0l.09-.23v0a.32.32,0,0,0,0-.09l0-.06a.09.09,0,0,1,0-.05l0-.2a.36.36,0,0,0,0-.1s0,0,0,0v0h0c0-.11,0-.22,0-.33v-.16A2.17,2.17,0,0,0,314.82,59.41Z" style="fill:url(#radial-gradient-12)"/><g style="isolation:isolate"><path d="M297.74,44.91A13,13,0,0,1,309.5,45c3.2,1.92,3.13,5-.17,6.82a13,13,0,0,1-11.76-.12C294.37,49.8,294.45,46.75,297.74,44.91Zm5.73,3.42a0,0,0,0,0,0,.08.16.16,0,0,0,.15,0,0,0,0,0,0,0-.08.17.17,0,0,0-.14,0" style="fill:url(#Безымянный_градиент_4-3)"/><path d="M311.85,48.58v-.3a1.55,1.55,0,0,0,0-.31h0a.06.06,0,0,0,0,0,2.56,2.56,0,0,0-.05-.27v0l0-.11-.06-.17s0,0,0,0a.75.75,0,0,0-.06-.13.69.69,0,0,0-.05-.13l0-.06a1.09,1.09,0,0,0-.08-.15l-.06-.1-.09-.14-7.6-11.06,0,0h-.14v0h0l-7.67,11c-.07.09-.12.19-.18.28s0,0,0,.08a2.59,2.59,0,0,0-.14.29h0c0,.1-.08.2-.11.3s0,.05,0,.07-.05.2-.07.3h0a1.53,1.53,0,0,0,0,.3s0,.05,0,.08,0,.19,0,.29h0c0,.1,0,.2,0,.3s0,.05,0,.08l.08.29h0l.12.3,0,.07a2.49,2.49,0,0,0,.15.28v0l.14.22,0,0,.13.17.13.15.15.16a.52.52,0,0,0,.1.11l0,0,.09.08.22.2.1.08.05,0,.27.2.06,0,.17.12.21.13.29.16.23.12.17.08.09.05c.15.07.31.14.48.2h0l.07,0,.38.14.18.06.16,0,.14,0,.47.13h.1l.37.09L301,53l.1,0,.08,0,.43.06.18,0H302l.37,0h.36l.32,0h1.44l.29,0,.19,0h.12l.36,0,.26,0h.11l.07,0,.36-.07.34-.06.4-.11a3.18,3.18,0,0,0,.33-.09h0a5.22,5.22,0,0,0,.56-.18l.05,0,.11,0,.3-.12.21-.09.15-.07.09,0,.49-.25h0l.38-.24.1-.06.1-.07.2-.14.06,0,.29-.23,0,0s.05,0,.07-.06l.23-.22.06-.07,0,0,.2-.24,0-.05.07-.09.06-.1.12-.19.05-.07,0-.09.08-.17,0-.08a.42.42,0,0,0,0-.1.88.88,0,0,0,.05-.15l0-.08,0-.11,0-.14,0-.06s0-.1,0-.14a.69.69,0,0,0,0-.13S311.85,48.6,311.85,48.58Z" style="fill:url(#radial-gradient-13)"/></g><g style="isolation:isolate"><path d="M177,150.7a3.07,3.07,0,0,1-2.83,0c-.77-.46-.76-1.19,0-1.64a3.13,3.13,0,0,1,2.83,0A.87.87,0,0,1,177,150.7Z" style="fill:url(#Безымянный_градиент_2-7)"/><path d="M177.63,124.36v-5.92c0-3,0-6,0-8.89l0-10.7a1,1,0,0,0-.57-.81,1.48,1.48,0,0,0-.31-.15h0l-.24-.08-.07,0h-.07l-.07,0-.2,0h-.6l-.22,0h0l-.24,0-.05,0-.2,0-.12,0,0,0-.38.16-.05,0a.7.7,0,0,0-.1.08l-.13.1h0a1.59,1.59,0,0,0-.13.13s0,0,0,0,0,0,0,0l-.05.06a.61.61,0,0,0,0,.12h0v0a.24.24,0,0,0,0,.08s0,.08,0,.12h0l-.14,51a1,1,0,0,0,.57.81,2.25,2.25,0,0,0,.31.16h0l.24.08.07,0h.07l.07,0,.2,0h.6l.22,0h0l.24,0,.05,0,.2-.05a.53.53,0,0,0,.12,0h0a2.59,2.59,0,0,0,.38-.17l.05,0a.39.39,0,0,1,.1-.08l.13-.1h0l.13-.14v0l0,0,.05-.07a.37.37,0,0,0,0-.11h0v0a.31.31,0,0,0,0-.08s0-.08,0-.12v0c0-3.34,0-6.94,0-10.67l0-8.93C177.62,128.31,177.62,126.34,177.63,124.36Z" style="fill:#11467a"/><path d="M177.09,99.68a3.07,3.07,0,0,1-2.83,0c-.77-.46-.75-1.19,0-1.64a3.13,3.13,0,0,1,2.83,0A.87.87,0,0,1,177.09,99.68Zm-1.26-.75c.07,0,.08-.11,0-.16a.3.3,0,0,0-.26,0c-.08,0-.08.11,0,.15a.29.29,0,0,0,.27,0" style="fill:url(#Безымянный_градиент_2-8)"/></g><path d="M201.44,126.07a1.7,1.7,0,0,0,0-.22v-.16h0c0-.1,0-.2,0-.31a1.28,1.28,0,0,0,0-.19c0-.11,0-.23,0-.35v-.09s0,0,0-.06a.76.76,0,0,0,0-.15s0-.06,0-.09a5,5,0,0,0-.1-.56.25.25,0,0,1,0-.08h0a.53.53,0,0,0,0-.12l-.12-.46L201,123s0-.1-.05-.14h0v0c0-.12-.08-.23-.13-.35a.69.69,0,0,0-.05-.13c0-.12-.1-.24-.15-.36l0-.09,0-.07-.06-.12a.67.67,0,0,0-.06-.12,2.44,2.44,0,0,0-.14-.28,2.12,2.12,0,0,0-.11-.21l-.05-.09,0-.05h0a1.19,1.19,0,0,0-.09-.15l-.13-.22-.15-.23-.08-.12-.11-.16-.06-.09-.27-.36-.66-.86-.42-.54-1-1.27,0-.06-.65-.85-.38-.49-.33-.43-.07-.09,0-.06-.58-.75c-.16-.21-.33-.42-.49-.64l-.87-1.12-.16-.21-1-1.37-.41-.53-.49-.64L191,109l-.12-.15c-.29-.37-.63-.81-.92-1.2l-1-1.27-.48-.63-.42-.54c-.23-.3-.45-.59-.66-.85l-.65-.86-.76-1-.14-.19-.8-1-1.18-1.53,0-.06-.58-.75-.83-1.08-.07-.09-.83-1.08c-.07-.09-.14-.19-.22-.28l-.16-.22-1.93-2.51-.12-.15-.33-.43-.38-.49c-.13-.18-.27-.36-.39-.51l-.26-.34,0-.06-2-2.66h-.14l-23.7,30.46-.15.21a1.33,1.33,0,0,0-.14.19l-.14.19-.12.19-.1.14-.06.09-.11.19-.13.21-.12.22c0,.06-.06.12-.1.18v0l-.1.18c0,.09-.08.17-.11.26a1.24,1.24,0,0,0-.1.2l-.07.16a.19.19,0,0,0,0,.07l-.11.27s0,.09-.05.14,0,.1,0,.14l-.06.2c0,.1-.07.2-.1.3l0,.15a1.94,1.94,0,0,0-.05.2c0,.1-.05.21-.07.31s0,.12,0,.19a.68.68,0,0,0,0,.14c0,.12,0,.24-.05.36a1.11,1.11,0,0,0,0,.17.38.38,0,0,0,0,.1.49.49,0,0,0,0,.12l0,.43v.3c0,.12,0,.24,0,.36a.66.66,0,0,1,0,.14c0,.05,0,.1,0,.15s0,.26,0,.39a1,1,0,0,1,0,.17s0,0,0,.08a5.59,5.59,0,0,0,.11.59h0v0l0,.14c0,.16.08.31.13.47s0,.06,0,.09a.58.58,0,0,1,.05.14l.15.43.05.12a.36.36,0,0,0,0,.09c.06.17.14.33.21.49l.05.12,0,0c.09.2.2.4.31.6l0,0,0,0,.06.11,0,.07.18.3.11.15a1.63,1.63,0,0,0,.11.17l.14.21.18.24,0,0a1.71,1.71,0,0,1,.11.14l.09.11.2.24.2.25.06.06,0,0,.09.09.37.41.18.18.12.11c.11.11.22.22.34.32a1.29,1.29,0,0,0,.17.16l.19.17.06.06.13.11.27.22.11.09.09.07.23.18.28.21.24.18,0,0,.13.1,0,0,.35.24.23.15.11.08.72.45,0,0,.08,0c.4.24.82.46,1.24.68l.17.1.15.07c.43.21.86.42,1.3.61h0l.08,0c.4.17.8.34,1.21.49l.16.07.24.08,1,.34.25.09.14,0c.43.14.87.28,1.31.4h0l1.31.34.12,0,.33.07.85.19.21.05.32,0,.71.13.28.06.29,0,.63.1.31,0,.31,0,.53.07.3,0,.41,0,.41,0,.21,0,.7.06h.26l.88.05h3.11l.73,0h.28l.44,0,.64,0h.08l.81-.06.25,0,.29,0,.29,0,.55-.07.32,0h.11l.49-.07.63-.1h.1l.71-.13.33-.06,1.13-.23.22-.06.9-.21.39-.11.57-.15.11,0,1-.32.18-.06h0l.49-.17.57-.2h0l.35-.13.64-.25.06,0,.49-.21.49-.21.06,0,.8-.38.24-.12h0c.34-.17.67-.35,1-.53l.19-.11.26-.16.38-.22.1-.06,0,0,.2-.13.36-.23.1-.06.09-.07.2-.14.38-.27.23-.17.14-.1.36-.29.15-.12.06,0,.11-.09.15-.13.39-.34.09-.09h0l.2-.19.3-.29.07-.08.08-.09a.93.93,0,0,0,.14-.14c.08-.09.16-.17.23-.26l.19-.21.06-.07.05-.06a2.35,2.35,0,0,0,.19-.25l.12-.14,0-.06.11-.15.13-.18.15-.22.15-.23.12-.19.07-.1,0,0,.15-.25a.64.64,0,0,1,.08-.14l0-.09,0-.05c.05-.09.09-.18.13-.27a1.67,1.67,0,0,0,.12-.23l0,0,0-.06,0-.12v0l.14-.32.06-.17.06-.16s0-.08,0-.12l0-.09.06-.21a1.72,1.72,0,0,0,.07-.21v0s0-.05,0-.07l.06-.22c0-.05,0-.11,0-.16l0-.15a.3.3,0,0,1,0-.1s0-.08,0-.12,0-.22.05-.33l0-.2h0v-.17A3.87,3.87,0,0,0,201.44,126.07Z" style="fill:url(#radial-gradient-14)"/><path d="M197.11,102.7v-.17a.25.25,0,0,0,0-.08,4.89,4.89,0,0,0,0-.66v0h0v0a.43.43,0,0,1,0,0c0-.2-.07-.41-.12-.62,0,0,0,0,0-.07l0-.07a1.24,1.24,0,0,0,0-.16c0-.13-.08-.27-.13-.41a.65.65,0,0,0,0-.13l0-.08s0-.09,0-.14l0,0c-.07-.17-.14-.34-.22-.5h0v0l-.1-.18-.09-.18-.18-.32a.41.41,0,0,1,0-.09l-.18-.27a.1.1,0,0,0,0,0v0q-9.6-14.19-19.21-28.39s0,0,0,0h-.2l0,0,0,.06h0l0-.06h0l0,0h0q-9.68,14.14-19.36,28.27l-.1.16c-.06.09-.12.18-.17.27l-.17.28,0,0-.05.07a1,1,0,0,0-.07.15l-.14.28-.13.28a.3.3,0,0,1,0,.08s0,0,0,0a1.34,1.34,0,0,1-.07.18c0,.09-.07.18-.1.28l-.09.29h0s0,.08,0,.12,0,.1,0,.16-.05.19-.07.29a2.74,2.74,0,0,0,0,.28v0s0,0,0,.06l0,.19,0,.29c0,.09,0,.18,0,.27a.57.57,0,0,1,0,.13v.17c0,.1,0,.2,0,.3a2.62,2.62,0,0,0,0,.28v.08l0,.22c0,.09,0,.18,0,.28a2.17,2.17,0,0,0,0,.25l0,.14a1.16,1.16,0,0,0,0,.18c0,.1,0,.2.08.3s.05.17.07.26l0,.08c0,.07.05.15.08.23s.07.18.11.27a1.6,1.6,0,0,0,.1.23l.06.14.09.2.15.28.14.25a.21.21,0,0,0,0,.06l.15.25c.06.09.11.18.17.26l.06.09.1.14.08.1.06.09,0,.06c.13.17.26.33.4.49l.07.08a.46.46,0,0,0,.07.07l.3.33.15.15.1.1.08.08.15.13.27.26.27.22.21.18.07.06.09.07.15.12.16.12.29.21.19.13.07,0,.1.07.31.21.15.1.44.27.8.45h0l.07,0,1,.5.15.07.13.06c.35.16.7.31,1.07.45h0c.35.13.69.26,1.05.38l.12,0,.2.06.8.25.2.06.11,0q1.06.31,2.16.54l.1,0,.26.05.7.13.17,0,.25,0,.62.1.23,0,.22,0,.54.06.27,0,.22,0,.44,0,.28,0,.26,0,.41,0h.24l.36,0h2.7l.35,0h.38l.71-.05h.19l.59,0,.16,0,.31,0,.33,0,.22,0,.55-.07.28,0,.12,0c.48-.07,1-.15,1.43-.25h.1l.27-.06.61-.14.42-.1.59-.15.23-.06.11,0q.74-.21,1.44-.45l.1,0,.17-.06.88-.33.18-.06.07,0c.36-.14.71-.29,1.06-.45l.06,0,.12-.06c.36-.17.72-.35,1.06-.54l.13-.06.14-.08c.25-.14.49-.28.72-.43l.22-.14.06,0,.18-.12.15-.09.06,0,.5-.36.2-.15,0,0h0l.61-.49h0l.17-.16h0l.19-.17.2-.18.21-.21c.09-.1.2-.19.29-.29v0h0l0,0,.31-.35.11-.12.15-.2.12-.15.12-.16h0l.06-.08c.1-.14.2-.28.29-.43l0-.06v0a.41.41,0,0,0,0-.09,2.39,2.39,0,0,0,.13-.21l.08-.14.09-.16.09-.19a.3.3,0,0,0,0-.08l.06-.12.06-.12s0,0,0,0a.36.36,0,0,0,0-.09c.06-.14.12-.28.17-.42s0,0,0,0l.05-.17s0-.07,0-.11a.29.29,0,0,0,0-.09c0-.12.07-.24.1-.36s0-.13,0-.19a.3.3,0,0,1,0-.1.43.43,0,0,1,0-.05v0q.06-.3.09-.6a.09.09,0,0,0,0,0v-.05s0,0,0-.07v-.13C197.1,103,197.11,102.86,197.11,102.7Z" style="fill:url(#radial-gradient-15)"/><g style="isolation:isolate"><path d="M165.51,75.86c6.09-3.42,15.83-3.32,21.75.22s5.79,9.18-.31,12.6S171.12,92,165.2,88.46,159.42,79.28,165.51,75.86Zm10.59,6.33a.09.09,0,0,0,0,.16.3.3,0,0,0,.26,0c.07,0,.08-.11,0-.15a.27.27,0,0,0-.26,0" style="fill:url(#Безымянный_градиент_4-4)"/><path d="M191.6,82.67c0-.12,0-.23,0-.34v-.24a5.54,5.54,0,0,0-.05-.56h0s0,0,0-.06a3,3,0,0,0-.1-.5s0,0,0,0-.05-.14-.07-.21a2.81,2.81,0,0,0-.1-.31l0-.09-.11-.24c0-.08-.07-.17-.11-.25s0-.07-.06-.11l-.15-.26-.11-.21-.17-.25L176.45,58.53l0,0h-.25l0,0h0L162,78.91q-.18.27-.33.54l-.08.13a4.43,4.43,0,0,0-.26.54h0a5.14,5.14,0,0,0-.2.55.57.57,0,0,0,0,.14,5.29,5.29,0,0,0-.13.54h0a5.62,5.62,0,0,0-.06.56s0,.1,0,.15,0,.36,0,.54v0a5.39,5.39,0,0,0,.08.56l0,.14a3.58,3.58,0,0,0,.14.54v0c.06.18.14.36.22.55l.06.13a5.12,5.12,0,0,0,.27.52v0c.08.14.17.27.26.41l.07.09.24.31c.07.1.15.19.23.29l.28.3a1.8,1.8,0,0,0,.19.2l.09.09.16.15c.13.12.27.25.42.37l.17.14.1.08c.16.13.33.25.5.37l.12.08.31.21.39.24a5.54,5.54,0,0,0,.53.3l.42.22.32.16.16.08.89.38,0,0,.13,0c.23.1.47.19.71.27l.33.11.29.09.26.08c.29.09.58.16.87.24h.06l.13,0,.67.16.5.09.2,0,.14,0c.27,0,.54.09.81.12l.32,0,.19,0,.24,0,.69.06.36,0h.3l.58,0h2.16l.51,0,.54,0,.35,0h.23l.66-.08.49-.08.19,0,.14,0c.22,0,.43-.08.65-.13l.64-.12.75-.2.61-.16.07,0c.35-.1.69-.21,1-.33l.09,0,.21-.08.55-.22c.14,0,.26-.11.39-.17l.27-.12.18-.08c.31-.15.61-.3.9-.47l0,0c.25-.14.48-.28.7-.43l.18-.11.19-.13c.13-.08.24-.17.36-.26l.13-.09.52-.43a.46.46,0,0,0,.07-.07l.12-.11.43-.42.11-.12.07-.06.37-.44a.86.86,0,0,1,.07-.1l.13-.17c0-.06.07-.12.11-.17s.16-.24.23-.36l.08-.13.09-.17.15-.32s.05-.09.07-.14,0-.12.07-.18.07-.19.1-.29,0-.09,0-.13,0-.14.05-.21a2.61,2.61,0,0,0,.06-.27l0-.11a2.06,2.06,0,0,0,0-.26,2,2,0,0,0,0-.24A.17.17,0,0,0,191.6,82.67Z" style="fill:url(#radial-gradient-16)"/></g><g style="isolation:isolate"><path d="M400.24,197.54a2,2,0,0,1-1.83,0c-.5-.29-.49-.77,0-1.06a2,2,0,0,1,1.83,0A.56.56,0,0,1,400.24,197.54Z" style="fill:url(#Безымянный_градиент_2-9)"/><path d="M400.68,180.51v-3.83c0-2,0-3.87,0-5.75l0-6.91a.62.62,0,0,0-.37-.52l-.2-.1h0l-.16-.06h-.13l-.13,0h-.54l-.16,0h0l-.13,0-.08,0h0l-.25.11,0,0-.07,0-.08.07h0l-.08.08v0l0,0,0,.07h0v0a.43.43,0,0,0,0,.05.17.17,0,0,0,0,.07h0l-.1,33a.64.64,0,0,0,.37.52l.2.1h0l.16.06h.14l.12,0h.55l.15,0h0l.13,0,.07,0h0a1,1,0,0,0,.24-.11h0l.07-.05.09-.07h0a.6.6,0,0,0,.08-.08v0l0,0a.43.43,0,0,1,0-.07h0v0s0,0,0,0V197h0c0-2.17,0-4.5,0-6.91l0-5.77C400.67,183.07,400.68,181.79,400.68,180.51Z" style="fill:#11467a"/><path d="M400.34,164.56a2.05,2.05,0,0,1-1.84,0c-.49-.3-.48-.77,0-1.06a2,2,0,0,1,1.83,0C400.86,163.79,400.85,164.27,400.34,164.56Zm-.82-.49c.05,0,.05-.07,0-.1a.17.17,0,0,0-.17,0c-.05,0-.05.07,0,.1a.2.2,0,0,0,.17,0" style="fill:url(#Безымянный_градиент_2-10)"/></g><path d="M416.08,181.61v-.14s0-.05,0-.08v0h0c0-.07,0-.14,0-.2a.53.53,0,0,0,0-.13,1.64,1.64,0,0,0,0-.22v-.06s0,0,0,0a.31.31,0,0,0,0-.1.43.43,0,0,0,0-.05c0-.13,0-.25-.07-.37v0h0a.29.29,0,0,0,0-.09c0-.1-.05-.19-.08-.29a.74.74,0,0,0,0-.14s0-.06,0-.09h0v0a2,2,0,0,1-.08-.22s0-.06,0-.09a2.29,2.29,0,0,0-.1-.23.14.14,0,0,0,0-.06s0,0,0,0l0-.07a.2.2,0,0,0,0-.08l-.09-.18-.07-.13,0-.06,0,0h0a.33.33,0,0,0-.06-.1.64.64,0,0,0-.08-.14l-.1-.15-.05-.08a.86.86,0,0,0-.07-.1l0-.06-.18-.24-.42-.55-.27-.35-.63-.82,0,0-.42-.55c-.08-.1-.16-.21-.25-.31l-.21-.28,0-.06,0,0L412,174l-.31-.41-.56-.72a1.71,1.71,0,0,0-.11-.14l-.68-.88-.26-.35-.32-.41-.37-.48-.08-.1-.59-.78-.64-.82c-.1-.13-.2-.27-.31-.4l-.27-.36-.42-.55-.43-.55-.49-.64-.09-.12c-.18-.23-.36-.46-.51-.67l-.76-1,0,0-.38-.49-.53-.69-.05-.06c-.19-.25-.37-.49-.54-.7l-.14-.18-.1-.14c-.41-.53-.87-1.14-1.25-1.62l-.08-.11c-.06-.08-.13-.18-.21-.27l-.24-.32-.26-.33-.17-.22,0,0c-.43-.56-.93-1.22-1.33-1.73h-.09q-7.65,9.85-15.32,19.69l-.1.14-.09.12-.09.13-.08.12-.06.09,0,.06a.75.75,0,0,0-.07.12,1,1,0,0,0-.08.14l-.09.14-.05.12,0,0-.06.12c0,.05-.05.1-.07.16l-.06.13s0,.07-.05.1,0,0,0,.05l-.06.17a1,1,0,0,0,0,.1l0,.09s0,.08,0,.13l-.06.19s0,.06,0,.09,0,.09,0,.14,0,.13,0,.19a.51.51,0,0,0,0,.13s0,.06,0,.09l0,.23s0,.07,0,.11v.07a.2.2,0,0,1,0,.07c0,.09,0,.19,0,.28v.43s0,.06,0,.09a.38.38,0,0,0,0,.1,2.29,2.29,0,0,0,0,.25s0,.07,0,.11v.05c0,.13,0,.25.07.38h0a.44.44,0,0,1,0,.1l.09.3s0,0,0,.06l0,.09c0,.09.07.18.1.28l0,.08,0,.05a3.09,3.09,0,0,0,.14.32l0,.07v0c.06.13.13.26.2.39v0a.16.16,0,0,1,0,.07l0,0,.12.19.06.1a1,1,0,0,0,.08.11l.09.14.12.15v0l.07.09.06.08.12.15.14.16,0,0,0,0,.06.06.24.26.12.12a.46.46,0,0,1,.07.07l.22.21a.52.52,0,0,1,.11.1l.13.11,0,0s.06.05.08.08l.18.14.07.06.05,0,.15.12.19.14.15.11h0l.08.07,0,0,.23.15.14.1.07,0,.47.3h0l.05,0c.27.16.53.3.81.44a.39.39,0,0,0,.11.06.31.31,0,0,0,.1.05l.83.4h0l0,0,.79.32.1,0,.15.06.63.22.16.06.08,0,.85.26h0l.84.22.08,0,.21,0,.55.12.14,0,.2,0,.46.09.18,0,.19,0,.41.06.2,0,.2,0,.34,0,.2,0,.26,0,.27,0,.13,0,.46,0h.16a5.44,5.44,0,0,0,.57,0h2.66l.29,0,.41,0h.06l.52,0,.16,0,.19,0,.19,0,.35,0,.21,0h.07l.31-.05.41-.06H404l.45-.08.22,0,.73-.15.14,0,.58-.14.26-.07.36-.09.08,0,.67-.2.12,0h0l.32-.11.37-.13h0l.22-.09.42-.16h0l.32-.14.31-.13,0,0,.52-.25.15-.07h0l.65-.35.12-.06.17-.11a2,2,0,0,0,.25-.14l.06,0,0,0,.13-.08.23-.15.06,0,.06,0,.14-.09.24-.18.15-.11.09-.06.23-.19.1-.08,0,0,.08-.06.09-.08.25-.22.06-.06h0l.13-.12.19-.19.05,0,.05-.06.09-.09.15-.17.12-.13,0,0,0,0a1,1,0,0,0,.13-.16l.07-.09,0,0,.07-.1.08-.11.1-.14.1-.15.08-.12a.43.43,0,0,1,0-.07v0l.1-.17a.41.41,0,0,1,.05-.09l0-.06,0,0,.08-.17a1.09,1.09,0,0,0,.08-.15v0l0,0,0-.08v0l.09-.21s0-.07,0-.11l0-.1,0-.08a.43.43,0,0,1,0-.05,1,1,0,0,0,0-.14l.05-.14v-.07a.57.57,0,0,0,0-.14.36.36,0,0,0,0-.1.44.44,0,0,0,0-.1s0-.05,0-.07a.17.17,0,0,1,0-.07l0-.22s0-.08,0-.12h0v0h0v-.07A3,3,0,0,0,416.08,181.61Z" style="fill:url(#radial-gradient-17)"/><path d="M413.28,166.5v-.1a.07.07,0,0,0,0-.05,3,3,0,0,0,0-.43v0h0v-.05c0-.13-.05-.27-.08-.4s0,0,0,0,0,0,0,0l0-.1L413,165s0-.06,0-.08l0,0a1,1,0,0,0,0-.1s0,0,0,0-.09-.22-.14-.32h0l-.07-.12-.06-.12a2.12,2.12,0,0,0-.12-.2l0-.06a1.74,1.74,0,0,0-.11-.18l0,0h0l-12.42-18.35,0,0h-.16l0,.05h0l0-.05h0l0,0h0l-12.52,18.27a.36.36,0,0,1-.07.1,1.74,1.74,0,0,1-.11.18l-.1.18,0,0,0,0-.05.1-.09.18-.08.18a.08.08,0,0,0,0,0v0a.49.49,0,0,0,0,.11,1.34,1.34,0,0,0-.07.18l-.06.19h0a.24.24,0,0,0,0,.08l0,.1c0,.06,0,.13-.05.19l0,.18v.06c0,.05,0,.09,0,.13a1.11,1.11,0,0,0,0,.19.91.91,0,0,0,0,.17s0,.06,0,.09v.3a1.09,1.09,0,0,1,0,.18v.05a.78.78,0,0,1,0,.14c0,.06,0,.12,0,.19l0,.16s0,.06,0,.09l0,.12a1.8,1.8,0,0,0,.05.19,1.54,1.54,0,0,0,.05.17V168l.06.14a1.34,1.34,0,0,0,.07.18l.06.15,0,.09.06.13a1.62,1.62,0,0,0,.1.18l.09.16,0,0c0,.06.07.11.1.16s.07.12.11.17l0,.06.06.09.05.07.05,0,0,0,.25.32.05.05,0,0,.2.21.09.1.07.06s0,0,.05.05l.1.09a1.45,1.45,0,0,0,.18.16l.17.15a.69.69,0,0,0,.13.11l.05,0,.06,0,.09.08.11.08.18.14a.91.91,0,0,0,.13.08l0,0,.07,0,.2.13.1.07.28.17c.17.1.34.2.52.29h0l.05,0,.65.32.09,0,.09,0a7.17,7.17,0,0,0,.69.3h0c.22.08.45.17.68.24l.08,0,.13,0,.51.16.13,0,.08,0c.45.13.92.24,1.39.34l.06,0,.18,0,.45.08.11,0,.16,0,.4.06.15,0,.14,0,.35,0,.17,0,.14,0,.29,0,.18,0h.17l.26,0H401l.46,0h.12l.38,0h.1l.21,0,.21,0,.14,0,.36,0,.18,0,.08,0c.31,0,.62-.1.92-.16h.06l.18,0,.4-.08.27-.07.38-.1.14,0,.08,0,.93-.28.06,0,.12-.05c.19-.06.37-.13.56-.21l.12,0,0,0c.24-.09.46-.19.69-.3h0l.07,0c.24-.11.47-.23.69-.35l.08,0,.1-.05.46-.28.15-.09,0,0,.12-.07.09-.06,0,0,.33-.23.13-.09,0,0h0c.14-.11.27-.21.39-.32h0a.52.52,0,0,0,.11-.1h0l.12-.1.13-.12.14-.14c.06-.06.13-.12.19-.19h0l0,0,.2-.22.07-.08a.64.64,0,0,0,.1-.13l.07-.09.09-.11h0a.1.1,0,0,0,0-.05l.19-.27a.05.05,0,0,1,0,0v0l0,0,.09-.14.05-.09.05-.11.07-.12,0-.05,0-.08a.3.3,0,0,1,0-.08v0s0,0,0-.06l.11-.27v0l0-.11,0-.06a.13.13,0,0,1,0-.06l.06-.24,0-.12s0,0,0-.07a0,0,0,0,1,0,0h0l.06-.39V167a.09.09,0,0,1,0,0v-.08C413.27,166.71,413.28,166.61,413.28,166.5Z" style="fill:url(#radial-gradient-18)"/><g style="isolation:isolate"><path d="M392.85,149.15a15.49,15.49,0,0,1,14.06.15c3.83,2.29,3.74,5.93-.2,8.14a15.49,15.49,0,0,1-14.06-.14C388.82,155,388.91,151.37,392.85,149.15Zm6.85,4.1c-.05,0-.05.07,0,.1a.17.17,0,0,0,.17,0c.05,0,.05-.07,0-.1a.15.15,0,0,0-.16,0" style="fill:url(#Безымянный_градиент_4-5)"/><path d="M409.72,153.55v-.37a2.19,2.19,0,0,0,0-.36h0s0,0,0,0,0-.22-.07-.33v0a.65.65,0,0,0,0-.13l-.06-.2,0-.06-.07-.16-.06-.15,0-.07-.1-.18a.54.54,0,0,1-.07-.13l-.11-.16L399.92,138a0,0,0,0,0,0,0h-.13s0,0,0,0h0l0,0h0l-9.17,13.18a3.13,3.13,0,0,0-.21.34.41.41,0,0,0,0,.09,3.78,3.78,0,0,0-.17.35h0c-.05.12-.09.24-.13.36l0,.09c0,.12-.06.23-.08.35h0c0,.12,0,.24,0,.36v.09a2.16,2.16,0,0,0,0,.36h0c0,.12,0,.24.05.36s0,.06,0,.09a2.25,2.25,0,0,0,.09.35h0c0,.12.09.24.14.36s0,0,0,.08a2.21,2.21,0,0,0,.18.34v0l.16.26.05.06.15.2.15.19.18.19.12.13.06.06.11.1a2,2,0,0,0,.27.23.52.52,0,0,0,.11.1l.06.05.33.24.07,0,.2.13.26.16.34.2.27.13.21.11.1,0,.58.25h0l.09,0,.46.17.21.07.19.06.16.05.57.16h0l.08,0,.44.1.32.07.13,0,.09,0,.52.08.21,0h.12l.15,0,.45,0,.24,0h.19l.37,0h1.4l.33,0,.35,0,.22,0h.15l.43-.05.31,0,.13,0h.09l.42-.09.41-.08.49-.12.39-.11h.05c.22-.07.45-.14.66-.22l.06,0,.14-.05.36-.14.25-.11.17-.08.12-.05.58-.31h0l.45-.28.11-.07.13-.08.23-.17.08-.06.34-.28.05,0,.07-.07.28-.27.07-.08.05,0c.08-.1.16-.19.23-.29l.05-.06.09-.11a.41.41,0,0,1,.07-.11l.15-.24.05-.08a1.17,1.17,0,0,0,.05-.11,1.86,1.86,0,0,0,.1-.2l.05-.09s0-.08,0-.12,0-.12.07-.19l0-.08,0-.14a1,1,0,0,0,0-.17.25.25,0,0,0,0-.07c0-.06,0-.11,0-.17a.78.78,0,0,0,0-.16A.43.43,0,0,0,409.72,153.55Z" style="fill:url(#radial-gradient-19)"/></g><path d="M310.06,91.18a31.48,31.48,0,1,0-58.2,16.62c8.1,13.5,26.73,27.87,26.73,27.87s18.62-14.38,26.72-27.87A31.31,31.31,0,0,0,310.06,91.18Z" style="fill:#88f9ff"/><path d="M278.59,133.57c-4-3.18-18.54-15.32-25.32-26.62a29.82,29.82,0,1,1,50.65,0C297.12,118.25,282.54,130.39,278.59,133.57Z" style="fill:#6669f1"/><circle cx="278.59" cy="91.18" r="21.09" transform="translate(125.84 341.36) rotate(-76.72)" style="fill:#6669f1;stroke:#fff;stroke-miterlimit:10"/><path d="M280.74,82.45a1.56,1.56,0,0,0-1.92,1.09l-3.48,12.51A1.56,1.56,0,0,0,276.43,98a1.52,1.52,0,0,0,.42.06,1.56,1.56,0,0,0,1.5-1.14l3.48-12.51A1.58,1.58,0,0,0,280.74,82.45Z" style="fill:#fff"/><path d="M270.21,82.76A1.58,1.58,0,0,0,268,83l-5.21,6.27a1.56,1.56,0,0,0,0,2L268,97.47a1.56,1.56,0,0,0,1.2.56,1.56,1.56,0,0,0,1.2-2.56L266,90.23,270.41,85A1.57,1.57,0,0,0,270.21,82.76Z" style="fill:#fff"/><path d="M294.38,89.2,289.17,83a1.58,1.58,0,0,0-2.21-.2,1.56,1.56,0,0,0-.19,2.2l4.37,5.24-4.38,5.27A1.57,1.57,0,0,0,288,98a1.58,1.58,0,0,0,1.21-.56l5.21-6.27A1.57,1.57,0,0,0,294.38,89.2Z" style="fill:#fff"/><path d="M411.79,244.33a25.1,25.1,0,0,1,1.86,3c.34.66,1.32,2.44,1,3.12a2,2,0,0,1-1.94.93c-1-.3-1.73-2.54-2.25-2.74a3.81,3.81,0,0,1-.44-.15,1,1,0,0,1-.4-.4,6.29,6.29,0,0,1-.7-1.77,1,1,0,0,1,.1-.95C409.59,244.66,411,243.46,411.79,244.33Z" style="fill:#3657ba"/><path d="M383,269.06c-4.34.44-4.81.54-5.33.43a2.08,2.08,0,0,1-1.5-1.89,3,3,0,0,1,.27-.8c.51-.61,2.41-.44,3.64-.62a1.26,1.26,0,0,0,1-.72.86.86,0,0,1,.29-.38c.9-.65,2.86,0,2.8,1.26C384.1,267.14,384.06,269,383,269.06Z" style="fill:#3657ba"/><path d="M411.41,244.55a24.32,24.32,0,0,1,1.86,3c.34.66,1.31,2.44,1,3.11a2,2,0,0,1-1.94.94c-1-.3-1.73-2.55-2.25-2.74-.14-.06-.3-.08-.44-.15a1.1,1.1,0,0,1-.4-.4,6.29,6.29,0,0,1-.7-1.77,1,1,0,0,1,.1-.95C409.21,244.88,410.57,243.67,411.41,244.55Z" style="fill:#fffdf5"/><path d="M383.09,268.58c-4.34.44-4.81.55-5.33.43-1.07-.24-1.75-1.74-1.23-2.37s2.4-.76,3.64-.93a1.25,1.25,0,0,0,1-.72.89.89,0,0,1,.3-.38c.89-.65,2.86,0,2.79,1.25C384.21,266.66,384.18,268.47,383.09,268.58Z" style="fill:#fffdf5"/><path d="M390.85,225.78c-.2.12,1.24,1.38,1.13,1.59-.48.94.45,1.4,1.31,1.38a41.19,41.19,0,0,1,5,.32,1.37,1.37,0,0,1,.82.62.79.79,0,0,0,.49.39h.21c.72,0,1.39.42,1.85-.32.25-.4.54-.85.76-1.27a.74.74,0,0,0,.08-.54.76.76,0,0,0-.08-.21,1.82,1.82,0,0,0-.52-.78,5.46,5.46,0,0,0-3.11.11C396.57,226.93,391.74,225.22,390.85,225.78Z" style="fill:#e0f0ff"/><path d="M382,259.28a24.09,24.09,0,0,1,1-5c.52-1.45,1.41-5.23,1.78-6.94.54-2.46,2-3.89,3.2-6.12,1-1.85,2.13-3.38,3.1-5.23.08-.17.1-.6.24-.73s.4-.71.74-.68c1.53.14,2.51,1.65,3.13,3a8.44,8.44,0,0,1,1,3.26,12.91,12.91,0,0,1,5.87-.72.51.51,0,0,1,.3.1.45.45,0,0,1,.13.22c.78,2.23.82,4.68,1.8,6.82a1.67,1.67,0,0,1,1.39-.54c.51,0,.87-.53,1.44-.66.81-.18.14-.36.95-.85.77-.08,2.19,2.76,1.52,3.22,0,0-1.43,1.18-3,2.36s-3.19,2-3.6,2.39c-1,.83-3.25.87-3.83.21-.72-.84-2.18-10.53-2.18-10.53h-1.43c-.1.17-.21.34-.34.52-1.68,2.28-3.79,5.18-5.55,7.4a17.27,17.27,0,0,0-1.55,4c-.71,2-.6,2.83-1.35,4.83-.37,1-1.17,3.64-1.73,5.49,0,.53-4.17-.31-4.07-.82C381.33,262.45,381.8,261.14,382,259.28Z" style="fill:#466cc6"/><path d="M385.55,245.56a50.37,50.37,0,0,1,4.8-8.36L402,238.72c.58,1.32.91,5.05,1.53,8.3.65,1.66-4.74,3.42-5.24,2,0-.11-1.61-4.35-2.09-6l-.4,0c-.43.64-4.93,5.18-4.93,5.18C390.24,249,385.13,246.81,385.55,245.56Z" style="fill:#466cc6"/><path d="M391.37,224.8c.46.23,5.36,2.31,6.95,3.71a8.37,8.37,0,0,1,1.38,3.93c.05,1.26.19,2.64,2.24,6.1.85,1.42-3.34,2.63-5.52,2.57-3.82-.11-6.48-2.05-6.39-3.52a4.09,4.09,0,0,0-.24-1.86c-4-6.46-4.26-7.87-2.69-10.32a2.58,2.58,0,0,1,.89-1A8,8,0,0,1,391.37,224.8Z" style="fill:#fffdf5"/><path d="M391.69,247.89c.39-.32.09-.21.4-.6.75-1,1.56-.73,2.48-.58a14.35,14.35,0,0,0,2.73-2.62,26.89,26.89,0,0,0,2.65-4.27c-.19-.12-3.09-3.59-4.33-5.19l3.73-4.15c.15,1.55,3.46,7.31,3.75,8a3,3,0,0,1,.21,2.25c-.54,1.18-5.61,6.4-5.78,6.66a11,11,0,0,1-1.77,2.25c-1.44,1.37-2.44,1.77-3.77.18a2.48,2.48,0,0,1-.55-.92A1,1,0,0,1,391.69,247.89Z" style="fill:#e0f0ff"/><path d="M398.32,228.51c.46.45,4.39,5.86,5.13,7.2.54,1-3.83,4.79-4.69,3.64-.43-.57-2.17-2.51-3.87-4.88Z" style="fill:#fffdf5"/><path d="M392.08,225.36c.66,1.23,2.59,1.52,1.89,3.27-.3.77-.67,1.84-1.5,2.19a3.56,3.56,0,0,1-3.25-.77,2.57,2.57,0,0,1-1.06-2.18,6,6,0,0,1,1.24-2.36,5.75,5.75,0,0,1,.54-.66.78.78,0,0,1,.43-.26.67.67,0,0,1,.34,0,9.56,9.56,0,0,1,1.13.41Z" style="fill:#c0e3ff"/><path d="M391.71,220.71a4.88,4.88,0,0,1,1.24,5.07,4.33,4.33,0,0,1-.68,1.38c-1.36,1.79-4.27,5.17-5.7,3.44-.2-.24-2.28-6.09.07-9.07C388.26,219.6,390.41,219.54,391.71,220.71Z" style="fill:#e0f0ff"/><path d="M391.8,227.71c0-.73.59-1.29.24-1.86-.44-.72-1.18-.17-1.24.51a2.88,2.88,0,0,1-.05.59c-.12.4-.53.52-.75.17a1.09,1.09,0,0,1-.12-.4,12.15,12.15,0,0,0-.17-1.47c-.21-.81-2.28-2.34-3.84-2.26.09-2.5,2.57-3.73,4.89-3,1.92.61,3.42,2.86,2.32,5.78A5.9,5.9,0,0,1,391.8,227.71Z" style="fill:#446ebc"/></g></g></g></svg>