<svg width="21" height="21" viewBox="0 0 21 21" fill="none" xmlns="http://www.w3.org/2000/svg">
<path d="M10.5 0C4.70297 0 0 4.70297 0 10.5C0 16.297 4.70297 21 10.5 21C16.297 21 21 16.3022 21 10.5C21 4.69781 16.297 0 10.5 0ZM17.1666 4.83984C18.3815 6.26805 19.1046 8.04925 19.2291 9.92016C17.3367 9.82172 15.0727 9.82172 13.2572 9.99141C13.0275 9.41156 12.7922 8.84297 12.5353 8.29594C14.6287 7.38844 16.2422 6.19594 17.1666 4.83984ZM10.5 1.74984C12.5395 1.74634 14.5156 2.45866 16.0837 3.76266C15.1322 4.96547 13.6392 6.01266 11.7797 6.80297C10.7625 4.92188 9.59203 3.30328 8.34375 2.02875C9.04819 1.8469 9.77248 1.75322 10.5 1.74984ZM6.54047 2.70703C7.80375 3.96469 8.99063 5.56641 10.0298 7.44141C8.05547 8.04469 5.79141 8.39062 3.375 8.39062C2.91563 8.39062 2.4675 8.37422 2.02453 8.34656C2.33266 7.13935 2.8949 6.0118 3.67367 5.03927C4.45244 4.06673 5.42981 3.27161 6.54047 2.70703ZM1.76625 10.0842C2.26406 10.1062 2.76703 10.117 3.27562 10.1119C6.03187 10.0791 8.59688 9.64688 10.8009 8.94C11.0087 9.37219 11.2056 9.81516 11.3916 10.2689C11.1252 10.3272 10.8637 10.4056 10.6092 10.5033C7.59609 11.7689 5.22281 13.8084 3.9375 16.275C2.52813 14.6814 1.75007 12.6274 1.74984 10.5C1.74984 10.3594 1.75547 10.2211 1.76625 10.0842ZM10.5 19.2502C8.556 19.2525 6.66724 18.6036 5.13516 17.407C6.3 15.0994 8.37797 13.1883 10.9978 12.0037C11.2439 11.8889 11.572 11.7961 11.9494 11.7141C12.2619 12.5778 12.5408 13.4747 12.7861 14.4047C13.1525 15.8083 13.4223 17.2354 13.5938 18.6759C12.6061 19.0543 11.5576 19.2489 10.5 19.2502ZM15.2306 17.8556C15.0595 16.4001 14.7871 14.9584 14.4155 13.5408C14.228 12.8297 14.0166 12.1406 13.7869 11.468C15.5039 11.3273 17.5603 11.3475 19.1953 11.468C19.0512 12.7606 18.6206 14.0047 17.9347 15.1097C17.2488 16.2148 16.325 17.1529 15.2306 17.8556Z" fill="#6669F1"/>
</svg>
