<svg width="138" height="146" viewBox="0 0 138 146" fill="none" xmlns="http://www.w3.org/2000/svg">
<g filter="url(#filter0_d_4_712)">
<path fill-rule="evenodd" clip-rule="evenodd" d="M45.625 43.3738C45.625 30.7242 56.1957 20.5 68.982 20.5C81.8043 20.5 92.375 30.7242 92.375 43.3738C92.375 49.7481 90.0568 55.666 86.2411 60.6818C82.0317 66.2147 76.8434 71.0353 71.0035 74.8192C69.6669 75.6936 68.4607 75.7596 66.9937 74.8192C61.1205 71.0353 55.9322 66.2147 51.7589 60.6818C47.9405 55.666 45.625 49.7481 45.625 43.3738ZM61.2841 44.0861C61.2841 48.3237 64.7421 51.6566 68.982 51.6566C73.2247 51.6566 76.7159 48.3237 76.7159 44.0861C76.7159 39.8814 73.2247 36.3863 68.982 36.3863C64.7421 36.3863 61.2841 39.8814 61.2841 44.0861Z" fill="#EA4335"/>
<path d="M86.2411 60.6818L86.639 60.9846L86.6391 60.9846L86.2411 60.6818ZM71.0035 74.8192L70.7316 74.3996L70.7297 74.4008L71.0035 74.8192ZM66.9937 74.8192L66.7229 75.2395L66.7239 75.2401L66.9937 74.8192ZM51.7589 60.6818L52.1581 60.3807L52.1567 60.379L51.7589 60.6818ZM68.982 20C55.9313 20 45.125 30.4365 45.125 43.3738H46.125C46.125 31.0119 56.4601 21 68.982 21V20ZM92.875 43.3738C92.875 30.436 82.0682 20 68.982 20V21C81.5404 21 91.875 31.0124 91.875 43.3738H92.875ZM86.6391 60.9846C90.5104 55.8955 92.875 49.8737 92.875 43.3738H91.875C91.875 49.6226 89.6031 55.4365 85.8432 60.3791L86.6391 60.9846ZM71.2754 75.2388C77.164 71.4233 82.3949 66.5631 86.639 60.9846L85.8432 60.3791C81.6685 65.8662 76.5228 70.6472 70.7316 74.3996L71.2754 75.2388ZM66.7239 75.2401C67.5145 75.747 68.2778 76.0096 69.0538 75.9997C69.8289 75.9899 70.5566 75.7091 71.2772 75.2376L70.7297 74.4008C70.1138 74.8038 69.5701 74.9931 69.0412 74.9998C68.5131 75.0065 67.9399 74.8319 67.2636 74.3983L66.7239 75.2401ZM51.3597 60.9829C55.5686 66.5629 60.8004 71.4238 66.7229 75.2395L67.2645 74.3989C61.4407 70.6468 56.2959 65.8665 52.1581 60.3807L51.3597 60.9829ZM45.125 43.3738C45.125 49.8736 47.4867 55.8954 51.361 60.9847L52.1567 60.379C48.3942 55.4365 46.125 49.6227 46.125 43.3738H45.125ZM68.982 51.1566C65.0074 51.1566 61.7841 48.0368 61.7841 44.0861H60.7841C60.7841 48.6106 64.4768 52.1566 68.982 52.1566V51.1566ZM76.2159 44.0861C76.2159 48.0339 72.9623 51.1566 68.982 51.1566V52.1566C73.487 52.1566 77.2159 48.6134 77.2159 44.0861H76.2159ZM68.982 36.8863C72.9498 36.8863 76.2159 40.1588 76.2159 44.0861H77.2159C77.2159 39.604 73.4995 35.8863 68.982 35.8863V36.8863ZM61.7841 44.0861C61.7841 40.1559 65.0199 36.8863 68.982 36.8863V35.8863C64.4643 35.8863 60.7841 39.6069 60.7841 44.0861H61.7841Z" fill="white"/>
</g>
<defs>
<filter id="filter0_d_4_712" x="-9" y="-5" width="156" height="156" filterUnits="userSpaceOnUse" color-interpolation-filters="sRGB">
<feFlood flood-opacity="0" result="BackgroundImageFix"/>
<feColorMatrix in="SourceAlpha" type="matrix" values="0 0 0 0 0 0 0 0 0 0 0 0 0 0 0 0 0 0 127 0" result="hardAlpha"/>
<feOffset dy="25"/>
<feGaussianBlur stdDeviation="22.5"/>
<feComposite in2="hardAlpha" operator="out"/>
<feColorMatrix type="matrix" values="0 0 0 0 0.917647 0 0 0 0 0.262745 0 0 0 0 0.207843 0 0 0 0.58 0"/>
<feBlend mode="normal" in2="BackgroundImageFix" result="effect1_dropShadow_4_712"/>
<feBlend mode="normal" in="SourceGraphic" in2="effect1_dropShadow_4_712" result="shape"/>
</filter>
</defs>
</svg>
