<svg xmlns="http://www.w3.org/2000/svg" xmlns:xlink="http://www.w3.org/1999/xlink" viewBox="0 0 485.56 470.57"><defs><radialGradient id="radial-gradient" cx="210.42" cy="296.23" r="157.99" gradientUnits="userSpaceOnUse"><stop offset="0" stop-color="#76b3e8"/><stop offset="0.2" stop-color="#7bb6e9"/><stop offset="0.42" stop-color="#88bdec"/><stop offset="0.65" stop-color="#9ecaf1"/><stop offset="0.88" stop-color="#bddcf8"/><stop offset="1" stop-color="#cfe7fc"/></radialGradient><linearGradient id="linear-gradient" x1="247.8" y1="136.05" x2="241.2" y2="386.39" gradientUnits="userSpaceOnUse"><stop offset="0" stop-color="#67b1f1"/><stop offset="0.99" stop-color="#f0f9ff"/></linearGradient><linearGradient id="linear-gradient-2" x1="296.57" y1="189.51" x2="197.16" y2="196.44" gradientUnits="userSpaceOnUse"><stop offset="0" stop-color="#589ee8"/><stop offset="1" stop-color="#e2f0fe"/></linearGradient><linearGradient id="linear-gradient-3" x1="211.1" y1="194.07" x2="287.5" y2="194.07" gradientUnits="userSpaceOnUse"><stop offset="0.01" stop-color="#1f5699"/><stop offset="0.99" stop-color="#1f5699" stop-opacity="0"/></linearGradient><linearGradient id="linear-gradient-4" x1="211.21" y1="120.78" x2="286.47" y2="120.78" xlink:href="#linear-gradient"/><linearGradient id="linear-gradient-5" x1="211.09" y1="120.33" x2="287.5" y2="120.33" xlink:href="#linear-gradient-3"/><linearGradient id="linear-gradient-6" x1="259.28" y1="229.29" x2="151.28" y2="233.91" xlink:href="#linear-gradient"/><linearGradient id="linear-gradient-7" x1="169.35" y1="231.4" x2="245.75" y2="231.4" xlink:href="#linear-gradient-3"/><linearGradient id="linear-gradient-8" x1="318.03" y1="171.85" x2="160.16" y2="171.19" xlink:href="#linear-gradient"/><linearGradient id="linear-gradient-9" x1="169.33" y1="170.93" x2="245.75" y2="170.93" xlink:href="#linear-gradient-3"/><linearGradient id="linear-gradient-10" x1="220.74" y1="266.99" x2="92.6" y2="271.28" xlink:href="#linear-gradient"/><linearGradient id="linear-gradient-11" x1="127.62" y1="268.68" x2="204.02" y2="268.68" xlink:href="#linear-gradient-3"/><linearGradient id="linear-gradient-12" x1="128" y1="221.36" x2="203.26" y2="221.36" xlink:href="#linear-gradient"/><linearGradient id="linear-gradient-13" x1="127.61" y1="221.46" x2="204.02" y2="221.46" xlink:href="#linear-gradient-3"/><linearGradient id="linear-gradient-14" x1="172.79" y1="306.04" x2="29.12" y2="306.04" xlink:href="#linear-gradient"/><linearGradient id="linear-gradient-15" x1="85.53" y1="305.26" x2="161.94" y2="305.26" xlink:href="#linear-gradient-3"/><linearGradient id="linear-gradient-16" x1="86.1" y1="270.73" x2="161.36" y2="270.73" xlink:href="#linear-gradient"/><linearGradient id="linear-gradient-17" x1="85.52" y1="270.73" x2="161.94" y2="270.73" xlink:href="#linear-gradient-3"/><linearGradient id="linear-gradient-18" x1="135.91" y1="341.74" x2="-8.42" y2="341.08" xlink:href="#linear-gradient"/><linearGradient id="linear-gradient-19" x1="43.46" y1="341.64" x2="119.86" y2="341.64" xlink:href="#linear-gradient-3"/><linearGradient id="linear-gradient-20" x1="44.03" y1="319.84" x2="119.29" y2="319.84" xlink:href="#linear-gradient"/><linearGradient id="linear-gradient-21" x1="43.45" y1="319.84" x2="119.87" y2="319.84" xlink:href="#linear-gradient-3"/><linearGradient id="linear-gradient-22" x1="327.33" y1="232.81" x2="193.56" y2="229.18" xlink:href="#linear-gradient"/><linearGradient id="linear-gradient-23" x1="252.83" y1="231.41" x2="329.15" y2="231.41" xlink:href="#linear-gradient-3"/><linearGradient id="linear-gradient-24" x1="252.91" y1="171.38" x2="328.17" y2="171.38" xlink:href="#linear-gradient"/><linearGradient id="linear-gradient-25" x1="252.79" y1="170.93" x2="329.2" y2="170.93" xlink:href="#linear-gradient-3"/><linearGradient id="linear-gradient-26" x1="382.54" y1="268.74" x2="216.74" y2="268.41" xlink:href="#linear-gradient"/><linearGradient id="linear-gradient-27" x1="294.56" y1="268.68" x2="370.87" y2="268.68" xlink:href="#linear-gradient-3"/><linearGradient id="linear-gradient-28" x1="294.64" y1="221.91" x2="369.9" y2="221.91" xlink:href="#linear-gradient"/><linearGradient id="linear-gradient-29" x1="294.51" y1="221.46" x2="370.93" y2="221.46" xlink:href="#linear-gradient-3"/><linearGradient id="linear-gradient-30" x1="409.62" y1="303.69" x2="296.67" y2="306.99" xlink:href="#linear-gradient"/><linearGradient id="linear-gradient-31" x1="336.64" y1="305.26" x2="412.96" y2="305.26" xlink:href="#linear-gradient-3"/><linearGradient id="linear-gradient-32" x1="336.72" y1="271.18" x2="411.98" y2="271.18" xlink:href="#linear-gradient"/><linearGradient id="linear-gradient-33" x1="336.6" y1="270.73" x2="413.01" y2="270.73" xlink:href="#linear-gradient-3"/><linearGradient id="linear-gradient-34" x1="461.89" y1="338.28" x2="342.66" y2="344.56" xlink:href="#linear-gradient"/><linearGradient id="linear-gradient-35" x1="378.72" y1="341.64" x2="455.04" y2="341.64" xlink:href="#linear-gradient-3"/><linearGradient id="linear-gradient-36" x1="379.25" y1="319.84" x2="454.51" y2="319.84" xlink:href="#linear-gradient"/><linearGradient id="linear-gradient-37" x1="378.67" y1="319.84" x2="455.09" y2="319.84" xlink:href="#linear-gradient-3"/><linearGradient id="linear-gradient-38" x1="290.63" y1="291.63" x2="178.67" y2="290.31" xlink:href="#linear-gradient"/><linearGradient id="linear-gradient-39" x1="214.66" y1="292.17" x2="284.89" y2="292.17" xlink:href="#linear-gradient-3"/><linearGradient id="linear-gradient-40" x1="214.81" y1="244.8" x2="283.63" y2="244.8" xlink:href="#linear-gradient"/><linearGradient id="linear-gradient-41" x1="214.66" y1="244.34" x2="284.69" y2="244.34" xlink:href="#linear-gradient-3"/><linearGradient id="linear-gradient-42" x1="240.55" y1="334.79" x2="141.47" y2="334.46" xlink:href="#linear-gradient"/><linearGradient id="linear-gradient-43" x1="171.56" y1="335.56" x2="242.78" y2="335.56" xlink:href="#linear-gradient-3"/><linearGradient id="linear-gradient-44" x1="172.19" y1="309.78" x2="242.04" y2="309.78" xlink:href="#linear-gradient"/><linearGradient id="linear-gradient-45" x1="171.55" y1="309.78" x2="242.68" y2="309.78" xlink:href="#linear-gradient-3"/><linearGradient id="linear-gradient-46" x1="289.8" y1="367.93" x2="176.18" y2="367.27" xlink:href="#linear-gradient"/><linearGradient id="linear-gradient-47" x1="212.27" y1="367.63" x2="284.48" y2="367.63" xlink:href="#linear-gradient-3"/><linearGradient id="linear-gradient-48" x1="212.92" y1="351.01" x2="283.62" y2="351.01" xlink:href="#linear-gradient"/><linearGradient id="linear-gradient-49" x1="212.27" y1="351.01" x2="284.27" y2="351.01" xlink:href="#linear-gradient-3"/><linearGradient id="linear-gradient-50" x1="323.86" y1="127.05" x2="203.14" y2="118.8" gradientUnits="userSpaceOnUse"><stop offset="0.01" stop-color="#9c750b"/><stop offset="0.99" stop-color="#9c750b" stop-opacity="0"/></linearGradient><linearGradient id="linear-gradient-51" x1="324.24" y1="121.43" x2="203.52" y2="113.18" xlink:href="#linear-gradient-50"/><linearGradient id="linear-gradient-52" x1="283.64" y1="109.33" x2="222.87" y2="107.84" xlink:href="#linear-gradient-50"/><linearGradient id="linear-gradient-53" x1="284.08" y1="91.29" x2="223.31" y2="89.8" xlink:href="#linear-gradient-50"/><linearGradient id="linear-gradient-54" x1="247.51" y1="77.29" x2="248" y2="100.08" gradientUnits="userSpaceOnUse"><stop offset="0.01" stop-color="#fff"/><stop offset="0.99" stop-color="#fff" stop-opacity="0"/></linearGradient><linearGradient id="linear-gradient-55" x1="273.67" y1="82.73" x2="237.23" y2="81.96" xlink:href="#linear-gradient-50"/><linearGradient id="linear-gradient-56" x1="242.8" y1="70.11" x2="255.28" y2="70.11" xlink:href="#linear-gradient-54"/><linearGradient id="linear-gradient-57" x1="273.93" y1="70.24" x2="237.49" y2="69.47" xlink:href="#linear-gradient-50"/><linearGradient id="linear-gradient-58" x1="248.54" y1="23.57" x2="262.64" y2="57.92" xlink:href="#linear-gradient-54"/><linearGradient id="linear-gradient-59" x1="277.67" y1="113.99" x2="250.37" y2="26.35" xlink:href="#linear-gradient-50"/><linearGradient id="linear-gradient-60" x1="366.98" y1="28.86" x2="198.76" y2="12.13" xlink:href="#linear-gradient-50"/><linearGradient id="linear-gradient-61" x1="253.29" y1="6.25" x2="257.69" y2="31.35" xlink:href="#linear-gradient-54"/><linearGradient id="linear-gradient-62" x1="228.03" y1="61.93" x2="249.61" y2="15.91" xlink:href="#linear-gradient-50"/><linearGradient id="linear-gradient-63" x1="349.39" y1="175.46" x2="259.37" y2="169.3" gradientUnits="userSpaceOnUse"><stop offset="0.01" stop-color="#4c4c4c"/><stop offset="0.99" stop-color="#4c4c4c" stop-opacity="0"/></linearGradient><linearGradient id="linear-gradient-64" x1="349.68" y1="171.27" x2="259.65" y2="165.11" xlink:href="#linear-gradient-63"/><linearGradient id="linear-gradient-65" x1="319.4" y1="162.24" x2="274.08" y2="161.13" xlink:href="#linear-gradient-63"/><linearGradient id="linear-gradient-66" x1="319.73" y1="148.79" x2="274.41" y2="147.68" xlink:href="#linear-gradient-63"/><linearGradient id="linear-gradient-67" x1="292.45" y1="138.35" x2="292.82" y2="155.34" xlink:href="#linear-gradient-54"/><linearGradient id="linear-gradient-68" x1="311.96" y1="142.4" x2="284.79" y2="141.83" xlink:href="#linear-gradient-63"/><linearGradient id="linear-gradient-69" x1="288.94" y1="132.99" x2="298.25" y2="132.99" xlink:href="#linear-gradient-54"/><linearGradient id="linear-gradient-70" x1="312.16" y1="133.09" x2="284.98" y2="132.51" xlink:href="#linear-gradient-63"/><linearGradient id="linear-gradient-71" x1="293.23" y1="98.29" x2="303.74" y2="123.9" xlink:href="#linear-gradient-54"/><linearGradient id="linear-gradient-72" x1="314.95" y1="165.71" x2="294.59" y2="100.36" xlink:href="#linear-gradient-63"/><linearGradient id="linear-gradient-73" x1="381.55" y1="102.23" x2="256.1" y2="89.75" xlink:href="#linear-gradient-63"/><linearGradient id="linear-gradient-74" x1="296.76" y1="85.37" x2="300.05" y2="104.09" xlink:href="#linear-gradient-54"/><linearGradient id="linear-gradient-75" x1="277.93" y1="126.89" x2="294.02" y2="92.57" xlink:href="#linear-gradient-63"/><linearGradient id="linear-gradient-76" x1="255.8" y1="173.56" x2="186.33" y2="168.81" gradientTransform="matrix(-1, 0, 0, 1, 418.18, 0)" gradientUnits="userSpaceOnUse"><stop offset="0.01" stop-color="#632929"/><stop offset="0.99" stop-color="#632929" stop-opacity="0"/></linearGradient><linearGradient id="linear-gradient-77" x1="256.02" y1="170.32" x2="186.55" y2="165.57" xlink:href="#linear-gradient-76"/><linearGradient id="linear-gradient-78" x1="232.65" y1="163.36" x2="197.68" y2="162.5" xlink:href="#linear-gradient-76"/><linearGradient id="linear-gradient-79" x1="232.91" y1="152.98" x2="197.94" y2="152.12" xlink:href="#linear-gradient-76"/><linearGradient id="linear-gradient-80" x1="211.86" y1="144.92" x2="212.15" y2="158.04" gradientTransform="matrix(-1, 0, 0, 1, 418.18, 0)" xlink:href="#linear-gradient-54"/><linearGradient id="linear-gradient-81" x1="226.92" y1="148.05" x2="205.95" y2="147.61" xlink:href="#linear-gradient-76"/><linearGradient id="linear-gradient-82" x1="209.15" y1="140.79" x2="216.33" y2="140.79" gradientTransform="matrix(-1, 0, 0, 1, 418.18, 0)" xlink:href="#linear-gradient-54"/><linearGradient id="linear-gradient-83" x1="227.07" y1="140.86" x2="206.1" y2="140.42" xlink:href="#linear-gradient-76"/><linearGradient id="linear-gradient-84" x1="212.46" y1="114.01" x2="220.57" y2="133.78" gradientTransform="matrix(-1, 0, 0, 1, 418.18, 0)" xlink:href="#linear-gradient-54"/><linearGradient id="linear-gradient-85" x1="229.22" y1="166.04" x2="213.51" y2="115.61" xlink:href="#linear-gradient-76"/><linearGradient id="linear-gradient-86" x1="280.61" y1="117.06" x2="183.81" y2="107.43" xlink:href="#linear-gradient-76"/><linearGradient id="linear-gradient-87" x1="215.19" y1="104.04" x2="217.72" y2="118.49" gradientTransform="matrix(-1, 0, 0, 1, 418.18, 0)" xlink:href="#linear-gradient-54"/><linearGradient id="linear-gradient-88" x1="200.65" y1="136.08" x2="213.07" y2="109.6" xlink:href="#linear-gradient-76"/><radialGradient id="radial-gradient-2" cx="230.57" cy="430.62" r="83.66" xlink:href="#radial-gradient"/><radialGradient id="radial-gradient-3" cx="396.87" cy="398.41" r="94.97" xlink:href="#radial-gradient"/><radialGradient id="radial-gradient-4" cx="100.45" cy="512.23" r="178.35" xlink:href="#radial-gradient"/></defs><g id="Layer_2" data-name="Layer 2"><g id="Layer_8" data-name="Layer 8"><path d="M485.47,382.08V328.17l-32.83,20.7L289.41,245.76a79.5,79.5,0,0,0-82.32-1.58L32.65,345.23.35,329.32,0,378.14l.14.07a28.78,28.78,0,0,0,13.92,27.5l54.25,32.62a31.56,31.56,0,0,0,31.73.44l31.86-17.95a22.89,22.89,0,0,1,23.4.46l72.79,45.29a26.52,26.52,0,0,0,27.66.22l44.91-27a13.59,13.59,0,0,0,.33-23.1l-14.1-9A4.57,4.57,0,0,1,287,400l21-12.54a4.57,4.57,0,0,1,4.68,0l81.47,48.51a31.11,31.11,0,0,0,32.48-.39l46.7-29.32A26,26,0,0,0,485.47,382.08Z" style="fill:url(#radial-gradient)"/><path d="M289.41,189.76,473.38,306a26.14,26.14,0,0,1-.05,44.23l-46.7,29.32a31.11,31.11,0,0,1-32.48.39l-81.47-48.51a4.57,4.57,0,0,0-4.68,0L287,344a4.57,4.57,0,0,0-.12,7.77l14.1,9a13.59,13.59,0,0,1-.33,23.1l-44.91,27a26.52,26.52,0,0,1-27.66-.22L155.3,365.28a22.89,22.89,0,0,0-23.4-.46L100,382.77a31.56,31.56,0,0,1-31.73-.44L14.06,349.71a29,29,0,0,1,.41-49.95L207.09,188.18A79.5,79.5,0,0,1,289.41,189.76Z" style="fill:url(#linear-gradient)"/><path d="M286.9,246.09V120.33H211.69s0,125.53,0,125.76h0c.17,1.32,1.21,2.67,3.07,3.75L242.81,266c3.75,2.16,9.41,2.4,12.66.52l29.27-16.9C286.37,248.71,287.07,247.42,286.9,246.09Z" style="fill:url(#linear-gradient-2)"/><path d="M250,268.38a15.3,15.3,0,0,1-7.45-1.85l-28.05-16.2c-2-1.13-3.15-2.61-3.35-4.16,0-.23,0-80.66,0-125.84v-.58h75.8a.58.58,0,0,1,.57.57V246.06a4.21,4.21,0,0,1-2.45,4.09l-29.28,16.9A11.68,11.68,0,0,1,250,268.38Zm-37.7-147.47c0,8.09,0,124.16,0,125.16s1.14,2.32,2.78,3.27l28,16.19a14,14,0,0,0,6.62,1.72h.33c.14,0,0-130,0-130l36.26-16.33Z" style="fill:url(#linear-gradient-3)"/><path d="M284.28,124.35,255,141.25c-3.24,1.87-8.91,1.63-12.65-.53l-28.05-16.19c-3.75-2.17-4.15-5.44-.91-7.31l29.27-16.9c3.25-1.87,8.91-1.64,12.66.52l28,16.2C287.12,119.2,287.53,122.47,284.28,124.35Z" style="fill:url(#linear-gradient-4)"/><path d="M250,142.62a15.41,15.41,0,0,1-7.45-1.85l-28.05-16.2c-2.15-1.24-3.38-2.93-3.38-4.63a4.31,4.31,0,0,1,2.48-3.67l29.27-16.9c3.39-2,9.33-1.73,13.23.52l28.05,16.2c2.15,1.24,3.38,2.93,3.38,4.63a4.33,4.33,0,0,1-2.47,3.67l-29.28,16.9A11.78,11.78,0,0,1,250,142.62Zm-1.35-43.45a10.64,10.64,0,0,0-5.21,1.2l-29.27,16.9a3.23,3.23,0,0,0-1.9,2.67c0,1.28,1,2.6,2.81,3.63l28,16.2c3.58,2.06,9,2.3,12.08.52l29.27-16.9a3.23,3.23,0,0,0,1.9-2.67c0-1.28-1-2.6-2.81-3.63l-28.05-16.2A14.2,14.2,0,0,0,248.62,99.17Z" style="fill:url(#linear-gradient-5)"/><path d="M244.27,271.08V171.84H169.06s0,99,0,99.24h0c.18,1.32,1.21,2.67,3.08,3.74L200.19,291c3.74,2.16,9.41,2.4,12.65.52l29.27-16.9C243.74,273.7,244.45,272.41,244.27,271.08Z" style="fill:url(#linear-gradient-6)"/><path d="M208.22,292.46a15.3,15.3,0,0,1-7.45-1.86l-28.05-16.19c-2-1.13-3.15-2.61-3.35-4.17,0-.22,0-54.13,0-99.31v-.58h76.36v99.78a4.21,4.21,0,0,1-2.45,4.1L214,291.13A11.84,11.84,0,0,1,208.22,292.46Zm-37.71-121c0,8.1,0,97.65,0,98.64s1.14,2.32,2.79,3.27l28,16.2a14.13,14.13,0,0,0,6.62,1.71h.32c.15,0,0-103.48,0-103.48l36.26-16.34Z" style="fill:url(#linear-gradient-7)"/><path d="M242.53,174.94l-29.27,16.9c-3.24,1.88-8.91,1.64-12.65-.52l-28.05-16.2c-3.75-2.16-4.16-5.43-.91-7.3l29.27-16.9c3.24-1.87,8.91-1.64,12.65.52l28.05,16.2C245.37,169.8,245.77,173.07,242.53,174.94Z" style="fill:url(#linear-gradient-8)"/><path d="M208.22,193.22a15.38,15.38,0,0,1-7.45-1.85l-28.05-16.2c-2.15-1.24-3.39-2.93-3.39-4.63a4.31,4.31,0,0,1,2.48-3.67L201.08,150c3.4-2,9.33-1.73,13.23.52l28.05,16.2c2.16,1.24,3.39,2.93,3.39,4.63a4.33,4.33,0,0,1-2.48,3.67L214,191.89A11.84,11.84,0,0,1,208.22,193.22Zm-1.35-43.45a10.53,10.53,0,0,0-5.21,1.2l-29.27,16.9a3.21,3.21,0,0,0-1.9,2.67c0,1.28,1,2.6,2.81,3.63l28,16.2c3.58,2.06,9,2.3,12.07.52L242.7,174a3.25,3.25,0,0,0,1.9-2.67c0-1.28-1-2.6-2.81-3.64l-28-16.19A14.09,14.09,0,0,0,206.87,149.77Z" style="fill:url(#linear-gradient-9)"/><path d="M203.23,294.94V222.23H128s0,72.48,0,72.71h0c.17,1.32,1.21,2.67,3.07,3.75l28,16.19c3.74,2.16,9.41,2.4,12.65.53l29.27-16.9C202.69,297.57,203.4,296.27,203.23,294.94Z" style="fill:url(#linear-gradient-10)"/><path d="M166.49,316.47a15.3,15.3,0,0,1-7.45-1.86l-28-16.19c-2-1.13-3.15-2.61-3.35-4.17,0-.24,0-45.71,0-72.79v-.58H204v73.26a4.22,4.22,0,0,1-2.45,4.1l-29.28,16.9A11.78,11.78,0,0,1,166.49,316.47ZM128.79,222c0,6.81,0,71.23,0,72.11.15,1.14,1.14,2.32,2.78,3.27l28.05,16.19a13.93,13.93,0,0,0,6.2,1.71v-79.4l37-13.88Z" style="fill:url(#linear-gradient-11)"/><path d="M201.07,224.92l-29.27,16.9c-3.24,1.87-8.91,1.64-12.65-.53L131.09,225.1c-3.74-2.16-4.15-5.43-.9-7.31l29.27-16.9c3.24-1.87,8.91-1.63,12.65.53l28,16.19C203.91,219.78,204.31,223.05,201.07,224.92Z" style="fill:url(#linear-gradient-12)"/><path d="M166.49,243.75A15.3,15.3,0,0,1,159,241.9l-28-16.2c-2.15-1.24-3.38-2.93-3.38-4.63a4.33,4.33,0,0,1,2.48-3.67l29.27-16.9c3.39-2,9.33-1.73,13.23.52l28,16.2c2.15,1.24,3.38,2.93,3.38,4.63a4.32,4.32,0,0,1-2.47,3.67l-29.28,16.9A11.78,11.78,0,0,1,166.49,243.75Zm-1.35-43.45a10.64,10.64,0,0,0-5.21,1.2l-29.27,16.9a3.25,3.25,0,0,0-1.9,2.67c0,1.28,1,2.6,2.81,3.64l28.05,16.19c3.58,2.07,9,2.3,12.08.52L201,224.52a3.23,3.23,0,0,0,1.9-2.67c0-1.28-1-2.6-2.81-3.63L172,202A14.2,14.2,0,0,0,165.14,200.3Z" style="fill:url(#linear-gradient-13)"/><path d="M177,215.69l-19.74,1.21c-.15,0-.22.12-.11.18l4.14,2.4c.07,0,.07.1,0,.15l-10.79,6.23a.08.08,0,0,0,0,.15l4.41,2.55,4.42,2.54a.24.24,0,0,0,.26,0l10.79-6.23a.3.3,0,0,1,.26,0l4.14,2.4c.11.06.3,0,.32-.07l2.1-11.4C177.24,215.74,177.15,215.68,177,215.69Z" style="fill:#6669f1"/><path d="M159.49,229.72a.69.69,0,0,1-.37-.1l-9.06-5.23L150,224a.55.55,0,0,1,.29-.48l10.22-5.9-3.57-2.06a.54.54,0,0,1-.27-.6.62.62,0,0,1,.59-.46L177,213.33a.66.66,0,0,1,.56.21l.16.17,0,.29-2.11,11.4a.55.55,0,0,1-.33.41.77.77,0,0,1-.68,0l-4-2.34-10.68,6.17A.69.69,0,0,1,159.49,229.72ZM151.34,224l8.15,4.7,10.68-6.17a.81.81,0,0,1,.74,0l3.83,2.22,1.94-10.5-18.18,1.12,3.29,1.9.06.35a.55.55,0,0,1-.29.48Z" style="fill:#fff"/><path d="M160.62,318.84V271.5H85.41s0,47.11,0,47.34h0c.17,1.32,1.21,2.67,3.07,3.75l28.05,16.19c3.75,2.16,9.41,2.4,12.66.53l29.27-16.9C160.09,321.46,160.79,320.17,160.62,318.84Z" style="fill:url(#linear-gradient-14)"/><path d="M124.41,340.37a15.25,15.25,0,0,1-7.45-1.86l-28-16.19c-2-1.14-3.15-2.62-3.36-4.17,0-.24,0-29.81,0-47.42v-.58h76.36V318c.19,1.59-.7,3.08-2.45,4.1L130.19,339A11.84,11.84,0,0,1,124.41,340.37ZM86.7,271.31c0,16.23,0,46.11,0,46.73.15,1.15,1.14,2.33,2.78,3.28l28.06,16.19a13.93,13.93,0,0,0,6.2,1.71l.18-57.24,36.84-10.67Z" style="fill:url(#linear-gradient-15)"/><path d="M159.17,274.29l-29.27,16.9c-3.24,1.88-8.91,1.64-12.65-.52l-28-16.2c-3.75-2.16-4.16-5.43-.91-7.3l29.27-16.9c3.24-1.87,8.91-1.64,12.65.52l28,16.2C162,269.15,162.42,272.42,159.17,274.29Z" style="fill:url(#linear-gradient-16)"/><path d="M124.41,293a15.24,15.24,0,0,1-7.45-1.85l-28-16.2c-2.15-1.24-3.39-2.93-3.39-4.63A4.33,4.33,0,0,1,88,266.67l29.27-16.9c3.4-2,9.33-1.73,13.23.52l28.05,16.2c2.15,1.24,3.39,2.93,3.39,4.63a4.31,4.31,0,0,1-2.48,3.67l-29.27,16.9A11.73,11.73,0,0,1,124.41,293Zm-1.35-43.45a10.64,10.64,0,0,0-5.21,1.2l-29.27,16.9a3.23,3.23,0,0,0-1.9,2.67c0,1.28,1,2.6,2.8,3.64l28.06,16.19c3.57,2.07,9,2.3,12.07.52l29.27-16.9a3.21,3.21,0,0,0,1.9-2.67c0-1.28-1-2.6-2.81-3.63l-28.05-16.2A14.14,14.14,0,0,0,123.06,249.57Z" style="fill:url(#linear-gradient-17)"/><path d="M118.38,341.66V319.77H43.18s0,21.65,0,21.89h0c.18,1.32,1.21,2.67,3.08,3.74L74.3,361.6c3.74,2.16,9.41,2.39,12.65.52l29.27-16.9C117.85,344.28,118.56,343,118.38,341.66Z" style="fill:url(#linear-gradient-18)"/><path d="M82.33,364a15.24,15.24,0,0,1-7.45-1.85l-28-16.2c-2-1.13-3.15-2.61-3.35-4.16,0-.24,0-13.87,0-22v-.58h76.36v22.43a4.21,4.21,0,0,1-2.45,4.1l-29.27,16.9A11.84,11.84,0,0,1,82.33,364Zm-37.7-43.61c0,7.48,0,20.81,0,21.28.15,1.16,1.14,2.34,2.79,3.29l28.05,16.19a13.91,13.91,0,0,0,6.22,1.7l0-25.8,37-16.66Z" style="fill:url(#linear-gradient-19)"/><path d="M117.1,323.4,87.83,340.3c-3.25,1.87-8.91,1.64-12.66-.53L47.12,323.58c-3.74-2.16-4.15-5.43-.9-7.31l29.27-16.9c3.24-1.87,8.91-1.63,12.65.53l28.05,16.19C119.94,318.26,120.34,321.53,117.1,323.4Z" style="fill:url(#linear-gradient-20)"/><path d="M82.33,342.13a15.24,15.24,0,0,1-7.44-1.86l-28-16.19c-2.16-1.24-3.39-2.93-3.39-4.63a4.31,4.31,0,0,1,2.48-3.67l29.27-16.9c3.4-2,9.33-1.73,13.23.52l28.05,16.19c2.15,1.25,3.39,2.94,3.39,4.64a4.33,4.33,0,0,1-2.48,3.67L88.12,340.8A11.85,11.85,0,0,1,82.33,342.13ZM81,298.68a10.6,10.6,0,0,0-5.2,1.19L46.5,316.77a3.25,3.25,0,0,0-1.9,2.68c0,1.27,1,2.6,2.81,3.63l28.05,16.2c3.58,2.06,9,2.3,12.08.52l29.27-16.9a3.23,3.23,0,0,0,1.9-2.67c0-1.28-1-2.61-2.81-3.64L87.85,300.4A14,14,0,0,0,81,298.68Z" style="fill:url(#linear-gradient-21)"/><path d="M253.52,271.08V171.84h75.21s0,99,0,99.24h0c-.18,1.32-1.21,2.67-3.07,3.74L297.61,291c-3.75,2.16-9.41,2.4-12.66.52l-29.27-16.9C254.05,273.7,253.34,272.41,253.52,271.08Z" style="fill:url(#linear-gradient-22)"/><path d="M290.32,292.42a11.73,11.73,0,0,1-5.76-1.33l-29.27-16.9a4.17,4.17,0,0,1-2.43-4.06V170.39h76.27v.54c0,37,0,99.07,0,99.31-.2,1.54-1.39,3-3.33,4.13l-28.06,16.2A15.26,15.26,0,0,1,290.32,292.42Zm-36.4-121v98.78c-.15,1.16.52,2.23,1.9,3l29.27,16.9a11.07,11.07,0,0,0,5.87,1.18V184.91Z" style="fill:url(#linear-gradient-23)"/><path d="M255.1,174.94l29.27,16.9c3.24,1.88,8.91,1.64,12.65-.52l28.05-16.2c3.75-2.16,4.16-5.43.91-7.3l-29.27-16.9c-3.24-1.87-8.91-1.64-12.65.52L256,167.64C252.26,169.8,251.86,173.07,255.1,174.94Z" style="fill:url(#linear-gradient-24)"/><path d="M284.54,191.89,255.26,175a4.33,4.33,0,0,1-2.47-3.67c0-1.7,1.23-3.39,3.38-4.63l28.05-16.2c3.9-2.25,9.84-2.48,13.23-.52l29.27,16.9a4.31,4.31,0,0,1,2.48,3.67c0,1.7-1.23,3.39-3.38,4.63l-28.05,16.2a15.41,15.41,0,0,1-7.45,1.85A11.78,11.78,0,0,1,284.54,191.89Zm.26-40.4-28.05,16.19c-1.79,1-2.81,2.36-2.81,3.64a3.23,3.23,0,0,0,1.9,2.67l29.27,16.9c3.08,1.78,8.5,1.54,12.08-.52l28.05-16.2c1.79-1,2.81-2.35,2.81-3.63a3.23,3.23,0,0,0-1.9-2.67L296.88,151a10.53,10.53,0,0,0-5.21-1.2A14.09,14.09,0,0,0,284.8,151.49Z" style="fill:url(#linear-gradient-25)"/><path d="M295.12,294.17V221.46h75.21s0,72.48,0,72.71h0c-.18,1.32-1.21,2.67-3.08,3.75L339.2,314.11c-3.74,2.16-9.41,2.4-12.65.53l-29.27-16.9C295.65,296.8,294.94,295.5,295.12,294.17Z" style="fill:url(#linear-gradient-26)"/><path d="M332.05,316.42a11.8,11.8,0,0,1-5.77-1.32L297,298.2a4.18,4.18,0,0,1-2.43-4.06V220.93h76.28v.53c0,27.08,0,72.55,0,72.78-.21,1.55-1.39,3-3.34,4.14l-28,16.2A15.28,15.28,0,0,1,332.05,316.42ZM295.65,222v72.24c-.16,1.16.52,2.24,1.9,3l29.27,16.9a11,11,0,0,0,5.67,1.2l.23-77.94Z" style="fill:url(#linear-gradient-27)"/><path d="M296.83,225.48l29.27,16.9c3.24,1.87,8.91,1.63,12.65-.53l28.05-16.19c3.75-2.16,4.15-5.44.91-7.31l-29.27-16.9c-3.25-1.87-8.91-1.64-12.66.53l-28,16.19C294,220.33,293.58,223.6,296.83,225.48Z" style="fill:url(#linear-gradient-28)"/><path d="M326.26,242.42,297,225.52a4.31,4.31,0,0,1-2.48-3.67c0-1.7,1.24-3.39,3.39-4.63L326,201c3.9-2.25,9.83-2.48,13.23-.52l29.27,16.9a4.33,4.33,0,0,1,2.48,3.67c0,1.7-1.23,3.39-3.39,4.63l-28.05,16.2a15.24,15.24,0,0,1-7.45,1.85A11.84,11.84,0,0,1,326.26,242.42Zm.27-40.4-28,16.2c-1.79,1-2.81,2.35-2.81,3.63a3.21,3.21,0,0,0,1.9,2.67l29.27,16.9c3.08,1.78,8.49,1.55,12.08-.52L367,224.71c1.78-1,2.81-2.36,2.81-3.64a3.25,3.25,0,0,0-1.91-2.67L338.6,201.5a10.6,10.6,0,0,0-5.2-1.2A14.15,14.15,0,0,0,326.53,202Z" style="fill:url(#linear-gradient-29)"/><path d="M337.2,318.07V270.73h75.21s0,47.11,0,47.34h0c-.17,1.32-1.21,2.67-3.07,3.75l-28,16.19c-3.75,2.16-9.41,2.4-12.65.53l-29.28-16.9C337.74,320.7,337,319.4,337.2,318.07Z" style="fill:url(#linear-gradient-30)"/><path d="M374.13,340.32a11.73,11.73,0,0,1-5.76-1.32L339.1,322.1a4.17,4.17,0,0,1-2.43-4.06V270.2h76.27v.53c0,17.61,0,47.18,0,47.41-.2,1.55-1.39,3-3.33,4.14l-28.05,16.2A15.3,15.3,0,0,1,374.13,340.32Zm-36.39-69.06v46.88c-.15,1.16.53,2.24,1.9,3l29.27,16.9a11.62,11.62,0,0,0,6.84,1.12V283.81Z" style="fill:url(#linear-gradient-31)"/><path d="M338.91,274.75l29.27,16.9c3.25,1.87,8.91,1.63,12.66-.53l28.05-16.19c3.74-2.16,4.15-5.44.9-7.31l-29.27-16.9c-3.24-1.87-8.91-1.64-12.65.53l-28.05,16.19C336.07,269.6,335.67,272.87,338.91,274.75Z" style="fill:url(#linear-gradient-32)"/><path d="M368.35,291.69l-29.27-16.9a4.31,4.31,0,0,1-2.48-3.67c0-1.7,1.23-3.39,3.38-4.63L368,250.29c3.89-2.25,9.83-2.48,13.22-.52l29.28,16.9a4.33,4.33,0,0,1,2.47,3.67c0,1.7-1.23,3.39-3.38,4.63l-28.05,16.2a15.3,15.3,0,0,1-7.45,1.85A11.68,11.68,0,0,1,368.35,291.69Zm.26-40.4-28.05,16.2c-1.78,1-2.81,2.35-2.81,3.63a3.23,3.23,0,0,0,1.9,2.67l29.27,16.9c3.08,1.78,8.5,1.55,12.08-.52L409.05,274c1.79-1,2.81-2.36,2.81-3.64a3.23,3.23,0,0,0-1.9-2.67l-29.27-16.9a10.64,10.64,0,0,0-5.21-1.2A14.2,14.2,0,0,0,368.61,251.29Z" style="fill:url(#linear-gradient-33)"/><path d="M379.28,341.73V319.84h75.21s0,21.65,0,21.89h0c-.17,1.32-1.21,2.67-3.07,3.74l-28.05,16.2c-3.75,2.16-9.41,2.4-12.65.52l-29.28-16.9C379.81,344.35,379.11,343.06,379.28,341.73Z" style="fill:url(#linear-gradient-34)"/><path d="M416.21,364a11.73,11.73,0,0,1-5.76-1.32l-29.27-16.9c-1.74-1-2.62-2.48-2.43-4.06V319.3H455v.53c0,8.11,0,21.74,0,22-.2,1.54-1.39,3-3.33,4.14l-28.06,16.19A15.26,15.26,0,0,1,416.21,364Zm-36.4-43.61V341.8c-.15,1.16.52,2.24,1.9,3L411,361.73a11.17,11.17,0,0,0,5.87,1.19l0-32.13Z" style="fill:url(#linear-gradient-35)"/><path d="M381.44,323.4l29.27,16.9c3.24,1.87,8.91,1.64,12.65-.53l28.05-16.19c3.75-2.16,4.15-5.43.91-7.31l-29.27-16.9c-3.25-1.87-8.91-1.63-12.65.53l-28.06,16.19C378.6,318.26,378.19,321.53,381.44,323.4Z" style="fill:url(#linear-gradient-36)"/><path d="M410.42,340.8l-29.27-16.9a4.33,4.33,0,0,1-2.48-3.67c0-1.7,1.23-3.39,3.39-4.64l28.05-16.19c3.89-2.25,9.83-2.49,13.23-.52l29.27,16.9a4.31,4.31,0,0,1,2.48,3.67c0,1.7-1.24,3.39-3.39,4.63l-28.05,16.19a15.25,15.25,0,0,1-7.45,1.86A11.84,11.84,0,0,1,410.42,340.8Zm.26-40.4-28.05,16.19c-1.78,1-2.81,2.36-2.81,3.64a3.25,3.25,0,0,0,1.9,2.67L411,339.8c3.07,1.78,8.49,1.54,12.07-.52l28.05-16.2c1.79-1,2.81-2.36,2.81-3.63a3.23,3.23,0,0,0-1.9-2.68l-29.27-16.9a10.64,10.64,0,0,0-5.21-1.19A14.09,14.09,0,0,0,410.68,300.4Z" style="fill:url(#linear-gradient-37)"/><path d="M284.42,319.54h0l-.24-76.23H215.44l.21,75.6a2.66,2.66,0,0,0,0,.63h0a5,5,0,0,0,2.8,3.42l25.65,14.81c3.43,2,8.61,2.19,11.57.48l26.77-15.46A3.29,3.29,0,0,0,284.42,319.54Z" style="fill:url(#linear-gradient-38)"/><path d="M250.49,340.82a14.19,14.19,0,0,1-6.85-1.7L218,324.31a5.64,5.64,0,0,1-3.1-3.87,3.27,3.27,0,0,1,0-.77l-.22-76.14h70l.25,76.79a4,4,0,0,1-2.28,3.82L255.82,339.6A10.88,10.88,0,0,1,250.49,340.82Zm-34.61-96.08.22,75a2.06,2.06,0,0,0,0,.55,4.62,4.62,0,0,0,2.51,3l25.65,14.8a12.71,12.71,0,0,0,5.65,1.55l.23-78.71,33.28-16.16Z" style="fill:url(#linear-gradient-39)"/><path d="M281.63,248.05l-26.77,15.46c-3,1.71-8.14,1.5-11.57-.48l-25.65-14.81c-3.42-2-3.79-5-.83-6.68l26.77-15.45c3-1.71,8.14-1.5,11.57.48l25.65,14.8C284.22,243.35,284.59,246.34,281.63,248.05Z" style="fill:url(#linear-gradient-40)"/><path d="M250.29,264.81a14,14,0,0,1-6.85-1.71l-25.65-14.81c-2-1.15-3.13-2.72-3.13-4.3a4,4,0,0,1,2.3-3.43l26.77-15.45c3.12-1.81,8.59-1.59,12.17.48l25.65,14.81c2,1.15,3.14,2.72,3.14,4.3a4,4,0,0,1-2.31,3.43l-26.76,15.45A10.9,10.9,0,0,1,250.29,264.81Zm-1.24-39.73a9.71,9.71,0,0,0-4.72,1.08l-26.76,15.45a2.89,2.89,0,0,0-1.7,2.38c0,1.14.92,2.32,2.53,3.25l25.65,14.81c3.25,1.87,8.17,2.09,11,.48l26.77-15.45a2.9,2.9,0,0,0,1.69-2.38c0-1.14-.92-2.32-2.53-3.25L255.3,226.64A12.88,12.88,0,0,0,249.05,225.08Z" style="fill:url(#linear-gradient-41)"/><path d="M242.29,340.57h0l-.15-31.82H172.36l.1,31.61c0,.21,0,0,0,.21h0a5.15,5.15,0,0,0,2.85,3.48l26,15c3.47,2,8.73,2.22,11.74.48l27.17-15.68A3.38,3.38,0,0,0,242.29,340.57Z" style="fill:url(#linear-gradient-42)"/><path d="M207.85,362.18a14.4,14.4,0,0,1-7-1.73l-26-15a5.85,5.85,0,0,1-3.16-3.89.89.89,0,0,1,0-.42l-.1-32.18h71.05l.15,32.42a4,4,0,0,1-2.33,3.9l-27.17,15.68A11,11,0,0,1,207.85,362.18Zm-34.92-21s0,.08,0,.12a4.6,4.6,0,0,0,2.54,3l26,15a12.85,12.85,0,0,0,5.65,1.56V325.64l34.17-15.43h-68.5Z" style="fill:url(#linear-gradient-43)"/><path d="M240,313.09l-27.17,15.68c-3,1.74-8.27,1.52-11.74-.48l-26-15c-3.47-2-3.85-5.05-.84-6.78l27.17-15.69c3-1.74,8.27-1.52,11.74.49l26,15C242.64,308.31,243,311.35,240,313.09Z" style="fill:url(#linear-gradient-44)"/><path d="M207.74,330.57a14.39,14.39,0,0,1-7-1.73l-26-15c-2-1.17-3.2-2.77-3.2-4.39a4.13,4.13,0,0,1,2.35-3.5l27.17-15.68c3.18-1.84,8.73-1.62,12.38.49l26,15c2,1.17,3.2,2.77,3.2,4.38a4.13,4.13,0,0,1-2.35,3.5l-27.17,15.68A11,11,0,0,1,207.74,330.57Zm-1.25-40.33a9.79,9.79,0,0,0-4.78,1.1L174.54,307a2.87,2.87,0,0,0-1.72,2.39c0,1.15.94,2.35,2.56,3.28l26,15c3.29,1.9,8.27,2.12,11.1.48l27.17-15.68.32.55-.32-.55a2.89,2.89,0,0,0,1.72-2.4c0-1.15-.94-2.34-2.56-3.28l-26-15A13,13,0,0,0,206.49,290.24Z" style="fill:url(#linear-gradient-45)"/><path d="M284,364.22h0L283.72,351H213.09l.23,12.6a2.36,2.36,0,0,0,0,.65h0c.16,1.23,1.13,2.5,2.88,3.51L242.55,383c3.52,2,8.84,2.25,11.89.49l27.5-15.88A3.39,3.39,0,0,0,284,364.22Z" style="fill:url(#linear-gradient-46)"/><path d="M249.11,385.1a14.4,14.4,0,0,1-7.05-1.76l-26.35-15.21a5.83,5.83,0,0,1-3.2-4,3.57,3.57,0,0,1,0-.8l-.24-13.19h71.92l.26,13.86A4,4,0,0,1,282.1,368l-27.5,15.88A11.27,11.27,0,0,1,249.11,385.1Zm-35.52-33.65.21,11.94a2.74,2.74,0,0,0,0,.58,4.65,4.65,0,0,0,2.56,3l26.35,15.21a13.18,13.18,0,0,0,6.5,1.6s.13-19.95,0-21l33.71-11.39Z" style="fill:url(#linear-gradient-47)"/><path d="M281.57,354.36l-27.5,15.88c-3,1.76-8.37,1.53-11.89-.5l-26.35-15.21c-3.52-2-3.9-5.1-.85-6.86l27.49-15.88c3.05-1.76,8.37-1.54,11.89.49l26.35,15.22C284.23,349.53,284.61,352.6,281.57,354.36Z" style="fill:url(#linear-gradient-48)"/><path d="M248.91,372.06a14.38,14.38,0,0,1-7-1.76l-26.35-15.21c-2.06-1.18-3.24-2.8-3.24-4.44a4.16,4.16,0,0,1,2.38-3.54l27.5-15.88c3.22-1.86,8.84-1.64,12.54.49L281,346.94c2,1.18,3.23,2.8,3.23,4.44a4.17,4.17,0,0,1-2.38,3.54l-27.5,15.88A11.15,11.15,0,0,1,248.91,372.06Zm-1.28-40.82a9.91,9.91,0,0,0-4.83,1.11l-27.5,15.88a2.9,2.9,0,0,0-1.73,2.42c0,1.16.94,2.37,2.58,3.32l26.35,15.21c3.34,1.93,8.38,2.15,11.24.5l27.5-15.88a2.91,2.91,0,0,0,1.73-2.42c0-1.16-.94-2.37-2.58-3.32L254,332.85A13.2,13.2,0,0,0,247.63,331.24Z" style="fill:url(#linear-gradient-49)"/><path d="M275.31,116.29h-8.2l-15.17-8.76a6,6,0,0,0-5.42-.22l-15.56,9h-8.2v5.65h0a2.29,2.29,0,0,0,1.31,1.67l22.06,12.73a6,6,0,0,0,5.41.23l22.83-13.18a1.58,1.58,0,0,0,.92-1.45h0Z" style="fill:#ffcb3d"/><path d="M249.19,137.7a6.86,6.86,0,0,1-3.35-.85l-22.05-12.73a3.09,3.09,0,0,1-1.54-1.75l-.07-.43h0v-5.82a.42.42,0,0,1,.42-.42h8.2l15.43-8.9a6.58,6.58,0,0,1,6,.22l15,8.68h8.2a.42.42,0,0,1,.42.43l0,6.31a2.35,2.35,0,0,1-1.18,1.46l-22.83,13.18A5.46,5.46,0,0,1,249.19,137.7Zm-25.84-15.86v.06a1.75,1.75,0,0,0,1,1.2l22.06,12.73a5.65,5.65,0,0,0,2.83.69v-5.06l25.46-14.58H267L251.64,108a5.45,5.45,0,0,0-4.82-.23l-15.7,9.07h-7.77Z" style="fill:url(#linear-gradient-50)"/><path d="M274.38,117.74l-22.83,13.18a6,6,0,0,1-5.41-.22L224.08,118c-1.6-.92-1.77-2.32-.39-3.12l22.83-13.18a6,6,0,0,1,5.41.22L274,114.62C275.59,115.54,275.76,116.94,274.38,117.74Z" style="fill:#ffcb3d"/><path d="M249.19,132.05a6.86,6.86,0,0,1-3.35-.84l-22.05-12.74a2.78,2.78,0,0,1-1.62-2.27,2.18,2.18,0,0,1,1.23-1.87l22.83-13.18a6.58,6.58,0,0,1,6,.22l22,12.74a2.78,2.78,0,0,1,1.62,2.27,2.18,2.18,0,0,1-1.23,1.87l-22.83,13.18A5.35,5.35,0,0,1,249.19,132.05Zm-.32-30.34a4.17,4.17,0,0,0-2.05.46L224,115.35a1.08,1.08,0,0,0-.65.85c0,.41.39.88,1,1.26l22.06,12.73a5.45,5.45,0,0,0,4.82.22l22.83-13.18a1.08,1.08,0,0,0,.65-.85c0-.41-.39-.88-1-1.26l-22.06-12.73A5.74,5.74,0,0,0,248.87,101.71Z" style="fill:url(#linear-gradient-51)"/><path d="M268.64,115.51l-3.28-25.08H232.72l-3.26,24.86a.76.76,0,0,0,0,.21v.11h0a1.7,1.7,0,0,0,1,1.25l16.46,9.51a4.48,4.48,0,0,0,4,.16l17-9.84A1.13,1.13,0,0,0,268.64,115.51Z" style="fill:#ffcb3d"/><path d="M249.15,127.52a5.28,5.28,0,0,1-2.57-.65l-16.47-9.5a2.54,2.54,0,0,1-1.17-1.28l-.11-.56h0c0-.14,0-.26.06-.39l3.31-25.29h33.32a.41.41,0,0,1,.4.34l3.3,25.23a1.72,1.72,0,0,1-1,1.78l-17,9.84A4.1,4.1,0,0,1,249.15,127.52ZM230,115.58c0,.25.28.53.69.77l16.47,9.51a3.94,3.94,0,0,0,1.72.48V96.09L233.23,91,230,115.38l0,.19Z" style="fill:url(#linear-gradient-52)"/><path d="M264.79,91.33,250.6,99.52a3.74,3.74,0,0,1-3.36-.13l-13.71-7.92c-1-.57-1.1-1.44-.24-1.94l14.19-8.19a3.74,3.74,0,0,1,3.36.14l13.7,7.91C265.54,90,265.65,90.84,264.79,91.33Z" style="fill:#ffcb3d"/><path d="M249.14,100.45a4.47,4.47,0,0,1-2.2-.56L233.24,92a1.94,1.94,0,0,1-1.12-1.6A1.57,1.57,0,0,1,233,89l14.19-8.19a4.33,4.33,0,0,1,3.94.14l13.71,7.91A1.94,1.94,0,0,1,266,90.49a1.56,1.56,0,0,1-.87,1.35L250.89,100A3.51,3.51,0,0,1,249.14,100.45Zm-.21-18.85a2.43,2.43,0,0,0-1.16.25L233.59,90c-.09,0-.29.18-.29.34s.14.36.53.58l13.7,7.92a3.22,3.22,0,0,0,2.78.14l14.18-8.19c.09,0,.29-.19.29-.34s-.14-.36-.53-.59L250.55,82A3.37,3.37,0,0,0,248.93,81.6Z" style="fill:url(#linear-gradient-53)"/><path d="M257,87.55h0s-3.64-3.64-3.64-17h-8.69c0,13.39-3.64,17-3.64,17h0c-1.1,1.7-.23,3.69,2.13,5.06a13,13,0,0,0,11.71,0C257.25,91.24,258.12,89.25,257,87.55Z" style="fill:#ffcb3d"/><path d="M248.2,70.52h-3.51c0,13.39-3.64,17-3.64,17-1.1,1.7-.23,3.69,2.13,5.06a13,13,0,0,0,11.71,0l.14-.1a12.86,12.86,0,0,1-8.31-1.16" style="fill:url(#linear-gradient-54)"/><path d="M249,94.58a12.54,12.54,0,0,1-6.15-1.47,5.5,5.5,0,0,1-2.81-3.26,3.32,3.32,0,0,1,.47-2.62c.11-.12,3.55-3.83,3.55-16.71v-.59H254v.59c0,12.88,3.44,16.59,3.47,16.62l.08.09a3.32,3.32,0,0,1,.47,2.62,5.5,5.5,0,0,1-2.81,3.26A12.53,12.53,0,0,1,249,94.58ZM245.27,71.1c-.1,13-3.65,16.72-3.81,16.87a2.15,2.15,0,0,0-.24,1.61,4.42,4.42,0,0,0,2.26,2.52,12.46,12.46,0,0,0,6.08,1.31c6.46,0,.52-9.1.43-21.42Z" style="fill:url(#linear-gradient-55)"/><path d="M255.28,71.15V64.8H242.79v6.35a3.09,3.09,0,0,0,1.83,2.55,9.74,9.74,0,0,0,8.83,0A3.09,3.09,0,0,0,255.28,71.15Z" style="fill:#ffcb3d"/><path d="M247.43,74a3.11,3.11,0,0,1-1.83-2.55V65.13h-2.8v6.36A3.09,3.09,0,0,0,244.63,74a9.53,9.53,0,0,0,5.8,1A8.39,8.39,0,0,1,247.43,74Z" style="fill:url(#linear-gradient-56)"/><path d="M249,75.35a9.6,9.6,0,0,1-4.71-1.14,3.65,3.65,0,0,1-2.12-3.06V64.21h13.65v6.94a3.65,3.65,0,0,1-2.12,3.06A9.59,9.59,0,0,1,249,75.35Zm-5.66-10v5.76a2.55,2.55,0,0,0,1.54,2,8.8,8.8,0,0,0,5.07.94V69.35l4.71-4Z" style="fill:url(#linear-gradient-57)"/><path d="M277.72,17.13H220.35s-.86,27.23,18.79,48.68a7.66,7.66,0,0,0,2.24,1.89,16.93,16.93,0,0,0,15.31,0,7.66,7.66,0,0,0,2.24-1.89h0C278.58,44.36,277.72,17.13,277.72,17.13Z" style="fill:#ffcb3d"/><path d="M228.13,22h49.19c.23-3,.18-4.71.18-4.71H220.13S219.27,44.5,238.92,66a7.66,7.66,0,0,0,2.24,1.89,14.15,14.15,0,0,0,4.66,1.56C227.32,48.16,228.13,22,228.13,22Z" style="fill:url(#linear-gradient-58)"/><path d="M249,70.11a16.35,16.35,0,0,1-8-1.9,8.12,8.12,0,0,1-2.4-2c-19.56-21.34-18.92-48.78-18.92-49.06l0-.56h58.51l0,.56c0,.28.64,27.72-18.95,49.1a8.09,8.09,0,0,1-2.37,2A16.37,16.37,0,0,1,249,70.11ZM220.93,17.72c0,4,.95,28.37,18.65,47.69a6.94,6.94,0,0,0,2.09,1.78A15.48,15.48,0,0,0,250,68.92c2.34-.12,12-33,5.29-48.53Z" style="fill:url(#linear-gradient-59)"/><ellipse cx="249.04" cy="17.13" rx="28.68" ry="16.56" style="fill:#ffcb3d"/><path d="M269.32,6.71C258.12.24,240,.24,228.75,6.71c-5.29,3.06-8.05,7-8.34,11,.29,4,3.05,8,8.34,11,11.2,6.47,29.37,6.47,40.57,0,5.29-3.05,8.05-7,8.34-11C277.37,13.72,274.61,9.77,269.32,6.71Z" style="fill:#fffae0"/><path d="M249,34.26c-7.46,0-14.91-1.63-20.58-4.91s-8.7-7.57-8.7-12.22,3.09-9,8.7-12.22c11.35-6.55,29.81-6.55,41.15,0h0c5.61,3.24,8.7,7.58,8.7,12.22s-3.09,9-8.7,12.22S256.49,34.26,249,34.26Zm0-33.1c-7.24,0-14.48,1.59-20,4.77-5.23,3-8.11,7-8.11,11.2s2.88,8.19,8.11,11.2c11,6.37,28.95,6.37,40,0,5.23-3,8.11-7,8.11-11.2S274.25,9,269,5.93h0C263.51,2.75,256.27,1.16,249,1.16Z" style="fill:url(#linear-gradient-60)"/><ellipse cx="249.04" cy="17.13" rx="24.86" ry="13.54" style="fill:#ffcb3d"/><path d="M266.61,7.45c-8.77-4.78-22.46-5.23-32.18-1.37,9.14-2.24,20.26-1.33,27.77,2.77,9.41,5.12,9.41,14,0,19.14a26.9,26.9,0,0,1-3,1.37,30.83,30.83,0,0,0,7.38-2.77C276.32,21.31,276.32,12.73,266.61,7.45Z" style="fill:url(#linear-gradient-61)"/><path d="M249,31.21c-6.47,0-12.94-1.34-17.87-4s-7.57-6.23-7.57-10.06,2.69-7.39,7.57-10c9.86-5.37,25.89-5.37,35.75,0h0c4.88,2.66,7.57,6.23,7.57,10s-2.69,7.4-7.57,10.06S255.51,31.21,249,31.21Zm0-27.06a44.64,44.64,0,0,0-5.44.33c-4.35.53-12.17,24.72,3.24,25.59,7,.39,14.16-.95,19.48-3.84,4.51-2.46,7-5.69,7-9.1s-2.48-6.64-7-9.09C261.55,5.44,255.3,4.15,249,4.15Z" style="fill:url(#linear-gradient-62)"/><path d="M313.19,167.43h-6.12l-11.31-6.53a4.49,4.49,0,0,0-4-.17l-11.61,6.7H274v4.21h0a1.73,1.73,0,0,0,1,1.24l16.45,9.5a4.52,4.52,0,0,0,4,.17l17-9.84a1.15,1.15,0,0,0,.69-1.08h0Z" style="fill:#c7c7c7"/><path d="M293.71,183.4a5.07,5.07,0,0,1-2.5-.63l-16.45-9.5a2.27,2.27,0,0,1-1.14-1.3l-.06-.33h0v-4.33a.32.32,0,0,1,.32-.32H280l11.5-6.64a4.91,4.91,0,0,1,4.48.17L307.19,167h6.12a.32.32,0,0,1,.31.32l0,4.71a1.74,1.74,0,0,1-.88,1.08l-17,9.83A4,4,0,0,1,293.71,183.4Zm-19.27-11.82v0a1.3,1.3,0,0,0,.76.9l16.45,9.5a4.31,4.31,0,0,0,2.11.51v-3.77l19-10.88H307l-11.41-6.59a4.07,4.07,0,0,0-3.6-.17l-11.71,6.76h-5.79Z" style="fill:url(#linear-gradient-63)"/><path d="M312.49,168.51l-17,9.83a4.48,4.48,0,0,1-4-.16L275,168.68c-1.19-.69-1.32-1.73-.29-2.33l17-9.83a4.49,4.49,0,0,1,4,.17l16.44,9.49C313.4,166.87,313.53,167.92,312.49,168.51Z" style="fill:#c7c7c7"/><path d="M293.71,179.19a5.21,5.21,0,0,1-2.5-.63l-16.45-9.5a2.08,2.08,0,0,1-1.2-1.7,1.62,1.62,0,0,1,.91-1.39l17-9.83a4.91,4.91,0,0,1,4.48.17l16.44,9.49a2.1,2.1,0,0,1,1.21,1.7,1.62,1.62,0,0,1-.92,1.39l-17,9.83A4.05,4.05,0,0,1,293.71,179.19Zm-.24-22.63a3.15,3.15,0,0,0-1.53.34l-17,9.83a.82.82,0,0,0-.48.63c0,.31.29.66.77.94l16.45,9.5a4.13,4.13,0,0,0,3.6.17l17-9.84a.79.79,0,0,0,.48-.63c0-.31-.28-.66-.77-.94l-16.44-9.49A4.26,4.26,0,0,0,293.47,156.56Z" style="fill:url(#linear-gradient-64)"/><path d="M308.21,166.85l-2.44-18.7H281.42L279,166.69c0,.05,0,.1,0,.16v.07h0a1.28,1.28,0,0,0,.73.93L292,175a3.34,3.34,0,0,0,3,.12l12.72-7.34A.84.84,0,0,0,308.21,166.85Z" style="fill:#c7c7c7"/><path d="M293.68,175.81a4,4,0,0,1-1.92-.48l-12.28-7.09a1.94,1.94,0,0,1-.88-1l-.07-.42h0a2.26,2.26,0,0,1,0-.29L281,147.71h24.85a.3.3,0,0,1,.3.26l2.46,18.81a1.29,1.29,0,0,1-.72,1.33l-12.72,7.34A3.09,3.09,0,0,1,293.68,175.81Zm-14.27-8.91c0,.19.21.4.51.58l12.28,7.09a3.06,3.06,0,0,0,1.29.36V152.37l-11.68-3.78-2.42,18.16,0,.14Z" style="fill:url(#linear-gradient-65)"/><path d="M305.34,148.82l-10.58,6.11a2.82,2.82,0,0,1-2.51-.1L282,148.93c-.74-.43-.82-1.08-.18-1.45l10.58-6.11a2.79,2.79,0,0,1,2.51.1l10.22,5.9C305.9,147.8,306,148.45,305.34,148.82Z" style="fill:#c7c7c7"/><path d="M293.67,155.62a3.31,3.31,0,0,1-1.64-.42l-10.22-5.9a1.44,1.44,0,0,1-.83-1.19,1.16,1.16,0,0,1,.65-1L292.21,141a3.24,3.24,0,0,1,3,.1l10.22,5.9a1.46,1.46,0,0,1,.83,1.2,1.19,1.19,0,0,1-.65,1L295,155.31A2.64,2.64,0,0,1,293.67,155.62Zm-.15-14.06a1.78,1.78,0,0,0-.87.19l-10.58,6.11c-.06,0-.21.13-.21.25s.1.27.39.44l10.22,5.9a2.41,2.41,0,0,0,2.07.1l10.58-6.11c.07,0,.22-.13.22-.25s-.11-.27-.4-.44l-10.22-5.9A2.53,2.53,0,0,0,293.52,141.56Z" style="fill:url(#linear-gradient-66)"/><path d="M299.55,146h0s-2.72-2.72-2.72-12.7h-6.48c0,10-2.71,12.7-2.71,12.7h0c-.82,1.27-.17,2.75,1.59,3.77a9.66,9.66,0,0,0,8.73,0C299.72,148.75,300.37,147.27,299.55,146Z" style="fill:#c7c7c7"/><path d="M293,133.3h-2.62c0,10-2.71,12.7-2.71,12.7-.82,1.27-.17,2.75,1.59,3.77a9.66,9.66,0,0,0,8.73,0l.1-.07a9.56,9.56,0,0,1-6.19-.87" style="fill:url(#linear-gradient-67)"/><path d="M293.59,151.24a9.34,9.34,0,0,1-4.58-1.09,4.11,4.11,0,0,1-2.09-2.43,2.45,2.45,0,0,1,.35-2c.08-.09,2.64-2.85,2.64-12.46v-.44h7.36v.44c0,9.61,2.57,12.37,2.59,12.39l.06.07a2.49,2.49,0,0,1,.35,2,4.11,4.11,0,0,1-2.09,2.43A9.41,9.41,0,0,1,293.59,151.24Zm-2.8-17.51c-.08,9.7-2.73,12.47-2.84,12.58a1.54,1.54,0,0,0-.18,1.2,3.26,3.26,0,0,0,1.68,1.88,9.24,9.24,0,0,0,4.53,1c4.82,0,.4-6.78.32-16Z" style="fill:url(#linear-gradient-68)"/><path d="M298.25,133.77V129h-9.31v4.74a2.3,2.3,0,0,0,1.36,1.9,7.27,7.27,0,0,0,6.58,0A2.31,2.31,0,0,0,298.25,133.77Z" style="fill:#c7c7c7"/><path d="M292.4,135.92A2.31,2.31,0,0,1,291,134v-4.74h-2.09V134a2.32,2.32,0,0,0,1.37,1.9,7.08,7.08,0,0,0,4.32.71A6,6,0,0,1,292.4,135.92Z" style="fill:url(#linear-gradient-69)"/><path d="M293.59,136.9a7.15,7.15,0,0,1-3.51-.85,2.73,2.73,0,0,1-1.58-2.28v-5.18h10.19v5.18a2.74,2.74,0,0,1-1.59,2.28A7.1,7.1,0,0,1,293.59,136.9Zm-4.21-7.43v4.3a1.89,1.89,0,0,0,1.14,1.52,6.6,6.6,0,0,0,3.78.7v-3.57l3.51-2.95Z" style="fill:url(#linear-gradient-70)"/><path d="M315,93.48H272.2s-.64,20.31,14,36.31a5.47,5.47,0,0,0,1.66,1.4,12.63,12.63,0,0,0,11.42,0,5.4,5.4,0,0,0,1.67-1.4h0C315.62,113.79,315,93.48,315,93.48Z" style="fill:#c7c7c7"/><path d="M278,97.1h36.67a34.82,34.82,0,0,0,.14-3.51H272s-.64,20.3,14,36.3a5.55,5.55,0,0,0,1.67,1.41,10.3,10.3,0,0,0,3.47,1.16C277.4,116.62,278,97.1,278,97.1Z" style="fill:url(#linear-gradient-71)"/><path d="M293.59,133a12.07,12.07,0,0,1-5.93-1.42,6,6,0,0,1-1.79-1.52c-14.58-15.91-14.11-36.38-14.11-36.58l0-.42h43.63v.42c0,.2.48,20.67-14.13,36.61a5.9,5.9,0,0,1-1.77,1.49A12,12,0,0,1,293.59,133ZM272.64,93.92c0,3,.7,21.16,13.9,35.57a5.23,5.23,0,0,0,1.56,1.32,11.64,11.64,0,0,0,6.21,1.3c1.74-.1,9-24.59,3.94-36.2Z" style="fill:url(#linear-gradient-72)"/><ellipse cx="293.59" cy="93.48" rx="21.39" ry="12.35" style="fill:#c7c7c7"/><path d="M308.72,85.71c-8.35-4.82-21.9-4.82-30.25,0-4,2.28-6,5.23-6.23,8.21.22,3,2.28,5.93,6.23,8.21,8.35,4.83,21.9,4.83,30.25,0,3.95-2.28,6-5.22,6.22-8.21C314.73,90.94,312.67,88,308.72,85.71Z" style="fill:#fff"/><path d="M293.59,106.26a31.4,31.4,0,0,1-15.34-3.66c-4.18-2.42-6.49-5.65-6.49-9.12s2.31-6.7,6.49-9.11c8.46-4.89,22.23-4.89,30.69,0h0c4.18,2.41,6.48,5.65,6.48,9.11s-2.3,6.7-6.48,9.12A31.42,31.42,0,0,1,293.59,106.26Zm0-24.69a30.48,30.48,0,0,0-14.9,3.56c-3.9,2.25-6.05,5.22-6.05,8.35s2.15,6.11,6.05,8.36c8.22,4.74,21.59,4.74,29.81,0,3.9-2.25,6.05-5.22,6.05-8.36s-2.15-6.1-6.05-8.35h0A30.52,30.52,0,0,0,293.59,81.57Z" style="fill:url(#linear-gradient-73)"/><ellipse cx="293.59" cy="93.48" rx="18.54" ry="10.1" style="fill:#c7c7c7"/><path d="M306.7,86.26c-6.54-3.56-16.75-3.9-24-1,6.82-1.67,15.11-1,20.71,2.06,7,3.82,7,10.46,0,14.28a20.36,20.36,0,0,1-2.21,1,23.2,23.2,0,0,0,5.5-2.06C313.94,96.6,313.94,90.2,306.7,86.26Z" style="fill:url(#linear-gradient-74)"/><path d="M293.59,104a28.64,28.64,0,0,1-13.33-3c-3.64-2-5.64-4.65-5.64-7.5s2-5.51,5.64-7.5c7.35-4,19.31-4,26.66,0h0c3.64,2,5.65,4.65,5.65,7.5s-2,5.52-5.65,7.5A28.58,28.58,0,0,1,293.59,104Zm0-20.18a34,34,0,0,0-4,.24c-3.24.4-9.08,18.44,2.42,19.09a28.12,28.12,0,0,0,14.52-2.86c3.36-1.83,5.21-4.24,5.21-6.79s-1.85-5-5.21-6.78A27.69,27.69,0,0,0,293.59,83.8Z" style="fill:url(#linear-gradient-75)"/><path d="M321.52,214.7l20.1,1.23c.16,0,.22.12.11.19l-4.22,2.43a.08.08,0,0,0,0,.15l11,6.35c.08,0,.08.11,0,.15L344,227.8l-4.5,2.59a.3.3,0,0,1-.26,0l-11-6.34a.32.32,0,0,0-.27,0l-4.22,2.43c-.11.07-.3,0-.31-.06l-2.15-11.61C321.3,214.75,321.4,214.69,321.52,214.7Z" style="fill:#6669f1"/><path d="M339,228.88l-10.88-6.28L324,225a.82.82,0,0,1-.7,0,.6.6,0,0,1-.34-.42L320.84,213l0-.29.15-.17a.75.75,0,0,1,.58-.22l20.1,1.24a.62.62,0,0,1,.6.46.56.56,0,0,1-.28.62l-3.63,2.09,10.41,6a.58.58,0,0,1,.29.49l-.06.35-9.23,5.33a.73.73,0,0,1-.74,0Zm-1.74-11.68a.59.59,0,0,1-.29-.5l0-.35,3.35-1.94-18.51-1.14,2,10.69,3.9-2.25a.77.77,0,0,1,.75,0L339.38,228l8.29-4.79Z" style="fill:#fff"/><path d="M363.74,264.52l20.1,1.24c.16,0,.22.12.11.18l-4.22,2.44a.08.08,0,0,0,0,.15l11,6.35a.08.08,0,0,1,0,.15l-4.49,2.59-4.5,2.6a.3.3,0,0,1-.26,0l-11-6.34a.26.26,0,0,0-.27,0L366,276.31c-.11.07-.3,0-.31-.06l-2.15-11.61C363.52,264.57,363.62,264.52,363.74,264.52Z" style="fill:#6669f1"/><path d="M381.23,278.71l-10.88-6.28-4.12,2.37a.76.76,0,0,1-.69,0,.6.6,0,0,1-.34-.42l-2.14-11.61,0-.29.15-.17a.75.75,0,0,1,.58-.22l20.1,1.23a.64.64,0,0,1,.6.47.54.54,0,0,1-.28.61l-3.63,2.1,10.4,6a.55.55,0,0,1,.3.49l-.06.35L382,278.71a.73.73,0,0,1-.74,0ZM379.49,267a.54.54,0,0,1-.29-.49l.05-.35,3.35-1.94-18.51-1.14,2,10.69,3.9-2.26a.77.77,0,0,1,.75,0l10.88,6.29,8.29-4.79Z" style="fill:#fff"/><path d="M403.47,313.71l20.1,1.24c.16,0,.22.12.11.18l-4.22,2.44a.08.08,0,0,0,0,.15l11,6.34c.08,0,.08.11,0,.16L426,326.81l-4.5,2.6a.3.3,0,0,1-.26,0l-11-6.35a.32.32,0,0,0-.27,0l-4.22,2.44c-.11.06-.3,0-.31-.07l-2.15-11.6C403.25,313.76,403.35,313.7,403.47,313.71Z" style="fill:#6669f1"/><path d="M421,327.9l-10.88-6.28L406,324a.78.78,0,0,1-.7,0,.62.62,0,0,1-.34-.43L402.79,312l0-.29.15-.18a.75.75,0,0,1,.58-.22l20.1,1.24a.63.63,0,0,1,.6.46.55.55,0,0,1-.28.62l-3.63,2.1,10.4,6a.57.57,0,0,1,.3.49l-.06.36-9.23,5.33a.81.81,0,0,1-.74,0Zm-1.74-11.69a.58.58,0,0,1-.29-.5l.05-.35,3.35-1.93-18.51-1.14,2,10.68,3.9-2.25a.77.77,0,0,1,.75,0L421.33,327l8.29-4.79Z" style="fill:#fff"/><path d="M134.53,263.65l-19.74,1.22c-.15,0-.22.12-.11.18l4.15,2.39a.08.08,0,0,1,0,.15L108,273.82a.08.08,0,0,0,0,.15l4.42,2.55,4.41,2.55a.3.3,0,0,0,.26,0l10.8-6.23a.3.3,0,0,1,.26,0l4.14,2.39c.11.07.3,0,.31-.06l2.11-11.4C134.75,263.7,134.65,263.65,134.53,263.65Z" style="fill:#6669f1"/><path d="M117,277.68a.77.77,0,0,1-.36-.09l-9.07-5.23,0-.35a.58.58,0,0,1,.29-.49L118,265.63l-3.56-2.06a.54.54,0,0,1-.28-.61.6.6,0,0,1,.59-.45l19.74-1.22a.72.72,0,0,1,.57.22l.15.17,0,.28-2.1,11.4a.63.63,0,0,1-.33.42.76.76,0,0,1-.69,0l-4-2.33-10.69,6.17A.78.78,0,0,1,117,277.68ZM108.85,272l8.14,4.7,10.69-6.17a.73.73,0,0,1,.73,0l3.84,2.21,1.94-10.49L116,263.38l3.29,1.9,0,.34a.54.54,0,0,1-.29.49Z" style="fill:#fff"/><path d="M91.82,312.72l-19.74,1.21c-.16,0-.22.12-.11.18l4.14,2.4c.07,0,.07.1,0,.15l-10.79,6.23a.08.08,0,0,0,0,.15l4.41,2.55,4.42,2.55a.3.3,0,0,0,.26,0L85.2,321.9a.3.3,0,0,1,.26,0l4.14,2.4c.11.06.3,0,.32-.07L92,312.84C92,312.77,91.93,312.71,91.82,312.72Z" style="fill:#6669f1"/><path d="M74.28,326.75a.69.69,0,0,1-.37-.1l-9.06-5.23-.06-.35a.55.55,0,0,1,.29-.48l10.21-5.9-3.56-2.06a.56.56,0,0,1-.28-.6.64.64,0,0,1,.6-.46l19.74-1.21a.66.66,0,0,1,.56.21l.16.17,0,.29-2.11,11.4a.55.55,0,0,1-.33.41.77.77,0,0,1-.68,0l-4-2.34-10.69,6.17A.65.65,0,0,1,74.28,326.75Zm-8.15-5.68,8.15,4.7L85,319.6a.81.81,0,0,1,.74,0l3.83,2.22,1.94-10.5-18.18,1.12,3.29,1.9.06.35a.55.55,0,0,1-.29.48Z" style="fill:#fff"/><path d="M298.69,166.55v-.82c0-.12,0-.25,0-.38,0-.69,0-1.4-.11-2.13a9.39,9.39,0,0,0-.56-2.46l-.07-.17,2.16-1.61,0,.1.1.25c0,.1.07.2.11.3a2.56,2.56,0,0,0,.09.26,1.68,1.68,0,0,0,.16.39.8.8,0,0,0,.24.27.34.34,0,0,0,.34,0,.36.36,0,0,0,.21-.21.93.93,0,0,0,0-.27.62.62,0,0,0,0-.13,1.72,1.72,0,0,0-.08-.38l-.1-.3-.06-.12,2.06-1.6,0,.08.07.18c0,.07,0,.14.07.21s0,.13.06.17h0a3.93,3.93,0,0,1,.17,1,3.67,3.67,0,0,1-.63,2.16,4.13,4.13,0,0,1-1.69,1.43,3.39,3.39,0,0,1-.41.15c0,.45,0,.88,0,1.3v1.26Z" style="fill:#fff"/><path d="M190.32,167.36H195l8.73-5a3.46,3.46,0,0,1,3.11-.13l9,5.17h4.72v3.25h0a1.3,1.3,0,0,1-.75,1l-12.69,7.32A3.45,3.45,0,0,1,204,179l-13.13-7.58a.9.9,0,0,1-.54-.84h0Z" style="fill:#db9070"/><path d="M203.82,179.33l-13.13-7.59a1.32,1.32,0,0,1-.68-.84l0-3.63a.25.25,0,0,1,.25-.24H195l8.65-5a3.77,3.77,0,0,1,3.45-.13l8.88,5.13h4.72a.23.23,0,0,1,.24.24v3.34h0l0,.25a1.76,1.76,0,0,1-.88,1l-12.69,7.33a4,4,0,0,1-1.93.48A3.12,3.12,0,0,1,203.82,179.33Zm16.4-11.63h-4.47l-9-5.21a3.13,3.13,0,0,0-2.77.13l-8.81,5.08h-4.47l14.65,8.4V179a3.34,3.34,0,0,0,1.63-.4l12.69-7.33a1,1,0,0,0,.59-.69V167.7Z" style="fill:url(#linear-gradient-76)"/><path d="M190.86,168.2,204,175.78a3.45,3.45,0,0,0,3.12-.13l12.69-7.32c.92-.53,1-1.34.22-1.8l-13.14-7.59a3.46,3.46,0,0,0-3.11.13l-12.69,7.33C190.16,166.93,190.06,167.74,190.86,168.2Z" style="fill:#db9070"/><path d="M203.82,176.08l-13.13-7.59a1.24,1.24,0,0,1-.71-1.07,1.61,1.61,0,0,1,.93-1.31l12.69-7.33a3.8,3.8,0,0,1,3.45-.13l13.14,7.59a1.24,1.24,0,0,1,.71,1.07,1.61,1.61,0,0,1-.93,1.31L207.28,176a4,4,0,0,1-1.93.48A3.12,3.12,0,0,1,203.82,176.08Zm.12-16.71-12.69,7.32c-.37.22-.6.49-.6.73s.21.39.37.49l13.14,7.58a3.15,3.15,0,0,0,2.78-.13L219.63,168c.37-.22.59-.49.59-.73a.63.63,0,0,0-.37-.49l-13.14-7.58a2.37,2.37,0,0,0-1.18-.27A3.29,3.29,0,0,0,203.94,159.37Z" style="fill:url(#linear-gradient-77)"/><path d="M194.16,166.91,196,152.49h18.79l1.87,14.3a.5.5,0,0,1,0,.12V167h0a1,1,0,0,1-.56.72l-9.48,5.47a2.58,2.58,0,0,1-2.32.1l-9.81-5.66A.65.65,0,0,1,194.16,166.91Z" style="fill:#db9070"/><path d="M204.19,173.55l-9.81-5.66a1,1,0,0,1-.56-1l1.9-14.51a.23.23,0,0,1,.23-.2h19.17L217,166.7a1.6,1.6,0,0,1,0,.23h0l-.06.32a1.41,1.41,0,0,1-.67.73l-9.48,5.48a3.12,3.12,0,0,1-1.48.37A2.34,2.34,0,0,1,204.19,173.55Zm12.19-6.6h0l0-.11-1.87-14-9,2.92v17.41a2.32,2.32,0,0,0,1-.28L216,167.4c.23-.14.38-.3.39-.45Z" style="fill:url(#linear-gradient-78)"/><path d="M196.37,153l8.17,4.72a2.16,2.16,0,0,0,1.93-.08l7.89-4.56c.57-.33.63-.83.14-1.11l-8.17-4.72a2.16,2.16,0,0,0-1.93.08l-7.89,4.56C195.94,152.22,195.88,152.72,196.37,153Z" style="fill:#db9070"/><path d="M204.37,158l-8.16-4.71a.93.93,0,0,1-.51-.78,1.15,1.15,0,0,1,.64-.93l7.89-4.55a2.47,2.47,0,0,1,2.27-.08l8.17,4.71a.92.92,0,0,1,.5.78,1.13,1.13,0,0,1-.64.93l-7.89,4.55a2.56,2.56,0,0,1-1.26.32A2,2,0,0,1,204.37,158Zm.2-10.38-7.89,4.55c-.22.13-.3.26-.3.34s.11.16.16.19l8.17,4.71a1.79,1.79,0,0,0,1.59-.08l7.89-4.55c.22-.13.3-.26.3-.34s-.11-.16-.16-.19l-8.17-4.71a1.34,1.34,0,0,0-.66-.15A1.91,1.91,0,0,0,204.57,147.63Z" style="fill:url(#linear-gradient-79)"/><path d="M200.84,150.83h0s2.1-2.1,2.1-9.81h5c0,7.71,2.09,9.81,2.09,9.81h0c.64,1,.14,2.12-1.23,2.91a7.46,7.46,0,0,1-6.73,0C200.71,153,200.21,151.81,200.84,150.83Z" style="fill:#db9070"/><path d="M205.92,141h2c0,7.71,2.09,9.81,2.09,9.81.64,1,.14,2.12-1.23,2.91a7.46,7.46,0,0,1-6.73,0l-.08-.06a7.33,7.33,0,0,0,4.78-.67" style="fill:url(#linear-gradient-80)"/><path d="M201.9,154a3.19,3.19,0,0,1-1.61-1.88,1.9,1.9,0,0,1,.27-1.51l0,0s2-2.15,2-9.57v-.33h5.68V141c0,7.42,2,9.55,2,9.62a1.9,1.9,0,0,1,.27,1.51A3.17,3.17,0,0,1,209,154a7.86,7.86,0,0,1-7.07,0Zm3-12.16c-.06,7.09-3.47,12.34.25,12.33a7.13,7.13,0,0,0,3.5-.76,2.48,2.48,0,0,0,1.29-1.45,1.24,1.24,0,0,0-.13-.92c-.09-.09-2.14-2.23-2.2-9.71Z" style="fill:url(#linear-gradient-81)"/><path d="M201.85,141.39v-3.66H209v3.66a1.8,1.8,0,0,1-1.05,1.47,5.61,5.61,0,0,1-5.08,0A1.8,1.8,0,0,1,201.85,141.39Z" style="fill:#db9070"/><path d="M206.36,143.05a1.77,1.77,0,0,0,1-1.47v-3.65H209v3.66a1.8,1.8,0,0,1-1.05,1.47,5.57,5.57,0,0,1-3.34.55A4.9,4.9,0,0,0,206.36,143.05Z" style="fill:url(#linear-gradient-82)"/><path d="M202.73,143.15a2.09,2.09,0,0,1-1.22-1.76v-4h7.86v4a2.11,2.11,0,0,1-1.22,1.76,5.89,5.89,0,0,1-5.42,0Zm-.55-5.08,2.71,2.28v2.75a5.07,5.07,0,0,0,2.92-.54,1.45,1.45,0,0,0,.88-1.17v-3.32Z" style="fill:url(#linear-gradient-83)"/><path d="M188.93,110.31h33s.5,15.66-10.81,28a4.3,4.3,0,0,1-1.29,1.08,9.7,9.7,0,0,1-8.81,0,4.25,4.25,0,0,1-1.28-1.08h0C188.44,126,188.93,110.31,188.93,110.31Z" style="fill:#db9070"/><path d="M217.47,113.1H189.16c-.13-1.71-.1-2.71-.1-2.71h33s.49,15.66-10.81,28a4.43,4.43,0,0,1-1.29,1.08,7.85,7.85,0,0,1-2.68.9C217.93,128.16,217.47,113.1,217.47,113.1Z" style="fill:url(#linear-gradient-84)"/><path d="M200.86,139.7a4.65,4.65,0,0,1-1.36-1.16c-11.27-12.3-10.91-28.09-10.91-28.25V110h33.67v.32c0,.16.37,15.95-10.88,28.23A4.67,4.67,0,0,1,210,139.7a10.15,10.15,0,0,1-9.15,0Zm1-27.52c-3.89,9,1.69,27.86,3,27.93a9,9,0,0,0,4.79-1,4.16,4.16,0,0,0,1.2-1C221.07,127,221.59,113,221.61,110.64Z" style="fill:url(#linear-gradient-85)"/><ellipse cx="205.44" cy="110.31" rx="16.51" ry="9.53" style="fill:#db9070"/><path d="M193.77,104.31c6.44-3.72,16.89-3.72,23.34,0,3,1.76,4.63,4,4.8,6.33-.17,2.31-1.75,4.58-4.8,6.34-6.45,3.72-16.9,3.72-23.34,0-3.05-1.76-4.64-4-4.81-6.34C189.13,108.34,190.72,106.07,193.77,104.31Z" style="fill:#ffd9d9"/><path d="M193.6,117.34c-3.23-1.87-5-4.36-5-7s1.78-5.17,5-7h0c6.53-3.77,17.15-3.77,23.68,0,3.23,1.87,5,4.36,5,7s-1.77,5.16-5,7a26.27,26.27,0,0,1-23.68,0Zm.34-13.48h0c-3,1.74-4.67,4-4.67,6.45s1.66,4.7,4.67,6.44c6.34,3.66,16.66,3.66,23,0,3-1.74,4.67-4,4.67-6.44s-1.66-4.71-4.67-6.45a25.42,25.42,0,0,0-23,0Z" style="fill:url(#linear-gradient-86)"/><ellipse cx="205.44" cy="110.31" rx="14.3" ry="7.79" style="fill:#db9070"/><path d="M195.32,104.73c5.05-2.75,12.93-3,18.52-.78-5.26-1.29-11.65-.77-16,1.59-5.41,2.95-5.41,8.07,0,11a17.79,17.79,0,0,0,1.71.78,17.89,17.89,0,0,1-4.25-1.59C189.74,112.71,189.74,107.77,195.32,104.73Z" style="fill:url(#linear-gradient-87)"/><path d="M195.15,116.09c-2.81-1.53-4.35-3.58-4.35-5.78s1.54-4.26,4.35-5.79h0c5.68-3.09,14.9-3.09,20.57,0,2.81,1.53,4.36,3.59,4.36,5.79s-1.55,4.25-4.36,5.78a24,24,0,0,1-20.57,0Zm.34-11c-2.59,1.41-4,3.27-4,5.24s1.43,3.82,4,5.23a21.71,21.71,0,0,0,11.21,2.21c8.87-.5,4.37-14.42,1.87-14.73a27.11,27.11,0,0,0-3.13-.19A21.39,21.39,0,0,0,195.49,105.07Z" style="fill:url(#linear-gradient-88)"/><path d="M197.68,165.43v-.87c0-.12,0-.24,0-.37,0-.34,0-.72,0-1.14,0-.58,0-1.22-.13-1.93,0-.11,0-.24-.06-.4l-.06-.44v0q-.06-.35-.12-.63l0-.2,1.41.28,0,.22c0,.15.05.32.07.51s0,.37.08.53,0,.24,0,.27l0,.31c0,.19.05.34.07.46a.56.56,0,0,0,.14.27l.05,0s0,0,0-.07a.19.19,0,0,0,0-.08c0-.08,0-.18,0-.3s-.05-.42-.07-.62,0-.37,0-.49l0-.19,1.24.44,0,.25c0,.16,0,.36.05.58s0,.44,0,.64c0,0,0,.07,0,.11a3.39,3.39,0,0,0,0,.35c0,.11,0,.17.09.2h0s.09,0,.1,0a.68.68,0,0,0,0-.14.13.13,0,0,0,0-.06,1.34,1.34,0,0,0,0-.21v0c0-.18,0-.38-.05-.59s0-.4,0-.57l0-.24,1.24.31,0,.21s0,.1,0,.28,0,.38.06.63,0,.47,0,.67,0,.34,0,.52a4.34,4.34,0,0,1-.09.52,1.17,1.17,0,0,1-.21.4.62.62,0,0,1-.44.26,1.08,1.08,0,0,1-.63-.2,2.84,2.84,0,0,1-.76-.75.89.89,0,0,1-.66-.13c0,.3,0,.6,0,.92s0,.39,0,.6v.8Z" style="fill:#fff"/><path d="M257,105.76l2.44-1.44a18.07,18.07,0,0,1,.62,4.53,41.34,41.34,0,0,1-.08,4.37l-2.63,1.34S258,108.88,257,105.76Z" style="fill:#fff"/><path d="M242.31,465.11V414.57l64.82-44.26v58.41a14,14,0,0,1-6.87,12l-47.43,28C249.06,471,242.31,469.48,242.31,465.11Z" style="fill:url(#radial-gradient-2)"/><path d="M410.46,431.15v-46l75.09-49.54v47.9a28.19,28.19,0,0,1-13.5,24.05l-49.59,30.22C416.65,441.43,410.46,438,410.46,431.15Z" style="fill:url(#radial-gradient-3)"/><path d="M.34,331.24,0,379.57a36,36,0,0,0,18.31,31.36l56,30.18c4.92,2.77,9.76,0,9.82-5.67l.5-48.61Z" style="fill:url(#radial-gradient-4)"/></g></g></svg>