<svg xmlns="http://www.w3.org/2000/svg" width="1631" height="1568" version="1" viewBox="0 0 1223 1176">
  <path fill="#ffa59b" d="M516 11C576-7 641-1 698 22l2 5-10-1a609 609 0 0 0-117-9c-18 1-36 3-53 8l-19 5c-5 1-10 4-15 4l1-2c9-8 20-13 29-21z"/>
  <g fill="#fc5954">
    <path d="M477 25c13-6 26-11 39-14-9 8-20 13-29 21l-1 2c5 0 10-3 15-4l19-5a287 287 0 0 1 102-8c23 0 46 4 68 9l10 1-2-5c21 7 40 17 58 29 10 8 21 15 29 26-39-27-87-38-134-42-40 0-80 8-116 25-24 11-47 27-66 46s-34 41-47 64c-29 51-45 108-56 165-14 78-17 157-18 235-10-45-19-91-24-137-3-28-4-56-4-84-6 14-11 29-14 44a312 312 0 0 1 85-309c25-24 54-44 86-59zM201 864c0-4 2-8 5-9h12v67c-1 5 3 10 8 10h68c3 0 6 2 7 5l1 12h-79c-12 1-23-11-22-23v-62zM167 896c0-3 2-7 6-8h12v33c0 10 1 20-3 29-7 15-20 27-36 27l-30 1c0-6-1-12 3-16 3-3 7-2 11-2 11 0 23-1 31-9 5-4 6-11 6-17v-38zM51 906c7-3 16 4 14 12-1 7-11 10-16 6-6-4-5-15 2-18z"/>
    <path d="M73 906c7-3 15 4 14 11 0 7-9 12-15 7-7-4-6-15 1-18zM0 932h134c4 0 8 1 10 5v12H10c-4 0-9-2-10-6v-11zM244 956c7-2 15 6 12 13-2 7-12 10-17 4-5-5-2-16 5-17z"/>
    <path d="M265 956c7-2 15 5 14 12-2 7-11 11-17 6s-4-16 3-18z"/>
    <path d="M287 956c7-2 16 5 14 12-1 7-11 11-16 6-7-4-5-15 2-18z"/>
  </g>
  <g fill="#27698f">
    <path d="M801 89c14 7 25 19 36 30 24 29 42 63 55 98 11 32 18 66 15 100l3-10v-1h1c5-13 10-26 13-39l3 39a315 315 0 0 1-419 304 625 625 0 0 0 13 90c-10-17-18-36-26-55a712 712 0 0 1-45-274c1-42 7-84 20-124 10-30 26-60 48-83 17-17 37-31 59-40l-4 7-10 12c3 2 6-1 10-1a176 176 0 0 1 111-10l18 6 8 2-7-12v-5c27 13 49 35 62 61 17 35 20 77 8 113-7 19-18 36-32 50-26 23-62 33-96 29-33-3-65-20-87-45-19-20-33-44-43-70-4 37 1 75 16 109a179 179 0 0 0 92 93c-6 4-14 1-21 2 3 4 8 6 12 9 8 4 17 8 26 10l28 5 13 1c7 1 13-1 20-1 20-1 40-6 59-14 4-2 8-4 10-8-8-1-16 1-24-2 31-10 58-29 79-54a249 249 0 0 0 33-243c-13-30-32-58-57-79zM1152 839l48-17c4-1 5 3 6 6l-49 17c-3 1-5-4-5-6zM1206 831c4-1 8-2 11 0 4 2 5 7 6 12l-57 21 37 44c6 7 8 18 5 27s-13 14-22 14h-62c-3 11-11 20-21 26-7 4-14 5-22 4v-10c1-4 4-7 8-7 11-1 19-13 20-23v-41c0-4 3-8 7-9h11v43h59c3 0 7-1 8-4 1-6-3-10-7-14l-41-49c-2-3-3-8 0-11 4-3 9-4 14-6l46-17zM520 855l11-1v85c0 4-2 9-6 10h-11v-85c0-4 2-8 6-9zM679 855l11-1v85c0 4-2 9-6 10h-10v-85c-1-4 1-8 5-9zM618 858c6-3 14-1 17 5s1 15-6 17c-6 4-14 1-17-5s0-15 6-17zM553 861c6-2 14 2 16 8s-1 14-8 16c-6 3-15-1-16-8-3-6 1-14 8-16z"/>
    <path d="M597 908c5-15 22-24 37-20 10 3 19 12 22 22 2 8 1 18-4 26-6 7-14 13-24 13h-65c-1 5-4 10-8 14-7 10-19 16-31 16h-27c0-5-1-11 2-15 2-2 4-2 6-2 10 0 20 0 29-4 7-3 13-11 14-19v-41c0-3 1-7 5-8 4-2 8-1 12-1v43h33c-4-7-4-16-1-24m23-3c-5 3-8 8-8 14 0 11 14 17 22 10 5-4 7-11 5-17-4-6-12-9-19-7zM388 905c6-10 17-17 28-17h24c4 0 8 2 8 6l1 11h-30c-4 0-9 0-12 3-2 1-3 4-4 6 10 0 20 0 29 3 6 3 9 10 10 17 1 9-1 19-6 26a42 42 0 0 1-33 18h-31c-8 0-15-3-21-8-10-8-16-19-17-32v-37c0-4 4-7 8-7h9v40c0 5 1 11 4 15 3 6 9 9 15 11s13 1 19 1c7 0 14 1 21-1 7-3 12-9 15-16 2-4-1-10-6-12-8-3-17-2-26-2-5-1-7-6-7-10 0-5 0-10 2-15zM473 897c-1-4 1-8 5-9h12v48c0 15-10 29-23 37-7 4-15 5-22 4 0-5-2-12 3-16 14-4 25-17 25-31v-33zM762 889c9-3 21-2 29 5a31 31 0 0 1 7 43c-6 6-15 12-24 12h-30c-3 0-7 0-10 2-2 2-3 5-3 8v20c-4 0-9 1-13-1-2-1-3-4-3-7v-20c0-9 8-15 15-18l14-1c-3-7-4-14-2-21 2-10 11-18 20-22m4 16c-5 3-8 8-8 14 0 11 14 17 22 10 3-3 6-7 6-11 0-10-11-16-20-13zM969 889c8-2 17-2 24 2 8 5 14 13 16 22 1 7 0 14-3 20-5 8-13 14-22 16-7 1-14 0-21-3-7-5-14-13-15-22-1-8 0-17 5-23 4-6 10-10 16-12m3 16c-4 3-8 8-8 14 0 10 13 16 21 11 6-3 9-11 6-17-3-7-12-10-19-8zM1027 899c5-5 12-10 19-11s14-1 20 3c6 3 10 9 13 14 4 8 3 17 3 26 0 8-1 17-5 24-7 13-21 23-36 22h-27c0-4-1-10 2-14 1-2 4-3 6-3 9 0 19 0 28-3 4-2 8-5 11-9-9 2-18 2-26-3-7-5-13-12-14-21-2-9 0-18 6-25m19 6c-5 3-9 8-8 14-1 11 14 17 22 10 3-3 5-7 5-11 1-9-10-16-19-13z"/>
    <path d="M820 898c0-4 2-8 6-9h12l-1 43h75c4 0 8 2 9 6v11h-86c-5 17-21 31-39 30h-27c0-5-1-11 2-15 3-3 8-2 12-2 11 0 24-1 32-10 4-5 5-12 5-18v-36z"/>
    <path d="M879 900c7-2 14 1 16 8 3 6-1 14-8 16s-15-2-16-9c-2-7 2-14 8-15z"/>
  </g>
  <g fill="#47c1f3">
    <path d="M619 113c13-2 27-2 41-1 9 4 20 8 26 16-2 1-4 2-6 1-17-3-35-4-53-2l-18 2-19 3 2-4c9-6 19-10 29-15h-2zM655 472c26 5 54 3 80-3h1l1 2c8-1 15 1 23 1l-4 4 4-1c-19 8-39 13-59 14-7 0-13 2-20 1l-13-1-28-5h5c-6-3-13-4-18-8 2-1 3-2 5-1 8-1 16 1 23-3z"/>
  </g>
  <g fill="#3a9ecd">
    <path d="M660 112c15 1 30 5 43 11v5l7 12-8-2-19-6a176 176 0 0 0-110 10c-4 0-7 3-10 1l10-12 4-7a170 170 0 0 1 44-11c-10 5-20 9-29 15l-2 4 19-3 18-2c18-2 36-1 53 2 2 1 4 0 6-1-6-8-17-12-26-16zM910 306l13-46 1 7a319 319 0 0 1-14 39zM602 465c7-1 15 2 21-2 11 4 21 7 32 9-7 4-15 2-23 3-2-1-3 0-5 1 5 4 12 5 18 8h-5c-9-2-18-6-26-10-4-3-9-5-12-9zM736 468l10-3c8 3 16 1 24 2-2 4-6 6-10 8l-4 1 4-4c-8 0-15-2-23-1l-1-2v-1z"/>
  </g>
  <g fill="#78909c">
    <path d="M302 1057h20c4 0 8 4 7 8 0 4-3 7-7 7h-17c-7 0-13 7-12 13 0 4 3 7 6 9 9 4 20 5 28 11 7 5 9 14 8 22-1 10-8 19-17 22-6 3-13 2-19 2h-14c-4 0-7-3-7-7-1-4 3-8 7-8h25c8-1 13-10 9-17-3-5-9-6-14-8-8-3-17-5-22-13-5-6-5-13-4-20 3-11 12-19 23-21zM18 1065a32 32 0 0 1 48 39c-5 9-14 16-25 17H21v23c0 4-4 8-8 7-4 0-7-4-7-8v-54c0-9 4-18 12-24m3 23v18h18c7 0 14-6 15-13 3-10-5-20-15-21-9 0-17 7-18 16zM204 1066c0-3 1-7 4-8 4-2 10 1 11 6v18h11c5 2 7 9 3 12-3 5-9 3-14 3v36c1 4 6 3 9 3 6 0 9 8 5 12-3 4-8 3-12 3-10-1-18-10-17-20v-65zM424 1075c3-9 12-17 22-17 3 0 7-1 10 1 4 2 4 9 1 12-3 2-6 1-9 1-5 1-10 5-11 10h16c4 1 7 4 6 8 0 4-3 7-7 7h-15v46c0 3-1 6-4 7-4 3-11-1-11-6v-55c0-5 0-10 2-14zM467 1066c0-3 2-7 5-8 4-2 10 1 10 6v18h11c5 1 7 9 4 13-4 3-10 2-15 2v34l2 5c4 1 8-1 11 2 4 2 5 8 1 11-3 3-7 2-10 2-8 0-16-6-18-13l-1-13v-59zM868 1072c14-16 39-19 57-8 4 2 8 5 11 10 4 4 0 12-6 11-4 0-6-4-9-6-12-9-30-9-41 2a32 32 0 0 0 18 55c15 2 31-9 34-24h-30c-4-1-7-5-7-9 1-3 4-6 7-6h39c3 0 6 3 7 6 1 13-5 26-15 35a47 47 0 0 1-65-66zM105 1083c9-2 20-1 28 4 9 6 16 17 16 28l-1 30c0 6-8 8-12 4-1-1-1-4-4-4-1 3-5 4-7 5-10 2-22 1-30-5-7-4-12-11-14-19a35 35 0 0 1 24-43m4 15c-7 2-13 7-14 14-2 7 1 15 6 20 6 5 16 6 23 2 5-3 9-9 10-15a20 20 0 0 0-25-21zM180 1083l13-1c5 2 6 10 2 13-3 3-8 1-11 2-5 2-9 6-9 11v36c0 6-8 9-12 5-3-2-3-6-3-9v-33c1-11 9-22 20-24zM371 1083a35 35 0 0 1 40 23c2 10 1 21-4 29-5 7-12 13-21 15s-18 1-26-4a35 35 0 0 1-13-45c5-9 13-16 24-18m1 15c-8 2-14 10-14 19a20 20 0 0 0 39 5c1-7 0-14-5-19s-13-7-20-5zM506 1090c0-4 3-8 7-8 4-1 9 3 8 7l1 34c0 8 7 14 15 13 6-1 12-6 12-13v-34c0-5 6-8 10-7 3 1 5 5 5 8v33c0 8 8 14 16 13 7-1 12-7 12-13v-34c0-5 6-8 10-7 3 1 5 4 5 7v34c0 8-3 15-9 20-11 11-31 11-41-1-10 12-31 12-42 1-5-5-8-13-8-20l-1-33zM621 1105a35 35 0 0 1 67 9v30c0 4-4 7-8 7s-7-3-7-7c-7 7-16 8-25 7s-17-7-23-14c-7-9-8-22-4-32m27-7c-9 2-16 12-14 21 1 9 8 16 17 17a20 20 0 1 0-3-38zM720 1083l12-1c5 2 6 10 2 13-3 3-7 2-11 2-5 1-9 7-9 12v35c0 5-5 8-9 7-3-1-6-4-5-7l-1-36c0-12 9-23 21-25zM769 1083c15-4 32 5 38 19 2 4 0 8-3 10l-42 19 3 2c8 6 21 4 27-5 2-3 2-8 6-9 6-3 12 2 11 8-4 14-19 25-34 24a35 35 0 0 1-6-68m1 15c-8 2-14 10-14 19l33-15c-5-5-13-6-19-4zM979 1083l11-1c6 1 8 9 4 13s-10 1-14 3-7 6-6 10l-1 36c1 4-3 7-7 7s-8-3-7-7v-36c-1-12 8-23 20-25zM1028 1083a35 35 0 0 1 40 25c2 8 1 16-2 23s-9 13-16 17c-7 3-15 4-23 2-10-2-18-9-23-18-5-8-5-19-2-28 5-11 14-19 26-21m2 15c-9 2-15 10-15 19a20 20 0 1 0 14-19zM1083 1083c5-3 11 1 11 6v33a14 14 0 0 0 22 12c4-3 6-7 6-11v-34a7 7 0 0 1 15 0v29c0 6 0 13-4 18-4 7-10 12-18 14-7 2-14 1-21-2-8-5-14-14-15-24v-35c0-3 2-5 4-6zM1149 1115a35 35 0 1 1 66 17c-6 10-16 18-27 19-8 1-17 0-24-6v24c-1 5-7 8-12 6-2-2-3-5-3-8v-52m28-17a20 20 0 0 0 1 37c7 2 14 0 19-5a20 20 0 0 0-20-32z"/>
  </g>
</svg>
